<?xml version="1.0" encoding="utf-8"?>
<!-- Generator: Adobe Illustrator 21.1.0, SVG Export Plug-In . SVG Version: 6.00 Build 0)  -->
<svg version="1.1" id="Layer_1" xmlns="http://www.w3.org/2000/svg" xmlns:xlink="http://www.w3.org/1999/xlink" x="0px" y="0px"
	 viewBox="0 0 82.1 80.4" style="enable-background:new 0 0 82.1 80.4;" xml:space="preserve">
<g id="WZJVKe.tif">
	<g>
		<path d="M81.5,44.6C69.7,56.4,57.9,68.2,46.1,80c-4.6,0.7-9.1,1.1-11.7-3.9c-2.7-5.1-0.1-8.8,3.6-12.3c4.8-4.5,9.3-9.3,14.8-14.7
			c-2.7-0.1-4.3-0.3-5.9-0.3c-11.5,0-23,0-34.5,0c-1.3,0-2.7,0.1-4,0c-5.1-0.4-8.5-4-8.4-8.8c0.1-4.8,3.9-8.3,9.3-8.4
			c12.8-0.1,25.7,0,38.5-0.1c1.3,0,2.7-0.2,4.7-0.4C46.9,25.6,42,20.7,37,15.7c-4.5-4.5-4.9-9.4-1.2-13.2c3.7-3.8,8.6-3.4,13.1,1.1
			c9.6,9.5,19,19.2,28.7,28.6C81.5,35.9,83,39.6,81.5,44.6z"/>
	</g>
</g>
</svg>
