<?xml version="1.0" encoding="utf-8"?>
<!-- Generator: Adobe Illustrator 21.1.0, SVG Export Plug-In . SVG Version: 6.00 Build 0)  -->
<svg version="1.1"
	 id="Layer_1" xmlns:cc="http://creativecommons.org/ns#" xmlns:dc="http://purl.org/dc/elements/1.1/" xmlns:inkscape="http://www.inkscape.org/namespaces/inkscape" xmlns:rdf="http://www.w3.org/1999/02/22-rdf-syntax-ns#" xmlns:sodipodi="http://sodipodi.sourceforge.net/DTD/sodipodi-0.dtd" xmlns:svg="http://www.w3.org/2000/svg"
	 xmlns="http://www.w3.org/2000/svg" xmlns:xlink="http://www.w3.org/1999/xlink" x="0px" y="0px" viewBox="0 0 89.9 84"
	 style="enable-background:new 0 0 89.9 84;" xml:space="preserve">
<g transform="translate(0,-952.36218)">
	<path d="M42.2,952.4c-0.6,0-1.2,0-1.8,0c-3.1,0.1-6.2,0.6-9.3,1.4c-22.4,6-35.7,29.1-29.7,51.4c6,22.4,29.1,35.7,51.4,29.7
		c22.4-6,35.7-29.1,29.7-51.4c-0.5-2.2-2.6-3.5-4.7-3.1s-3.5,2.6-3.1,4.7c0,0.1,0.1,0.3,0.1,0.4c4.9,18.2-5.9,36.8-24,41.7
		c-18.2,4.9-36.8-5.9-41.7-24c-4.9-18.2,5.9-36.8,24-41.7c9.9-2.7,20.5-0.7,28.8,5.4c1.8,1.3,4.3,0.9,5.6-0.9
		c1.3-1.8,0.9-4.3-0.9-5.6c0,0,0,0,0,0C59.5,955.2,50.9,952.4,42.2,952.4L42.2,952.4z M85.7,955.3c-1,0.1-2,0.5-2.7,1.3
		c-10.5,11-31.6,33.8-43.3,46.2l-14.1-12.4c-1.7-1.5-4.2-1.3-5.7,0.3s-1.3,4.2,0.3,5.7l0,0l17,15c1.6,1.4,4.1,1.3,5.6-0.2
		c11.2-11.7,34.9-37.5,45.9-49c1.5-1.6,1.5-4.1-0.1-5.7C87.9,955.7,86.9,955.3,85.7,955.3z"/>
</g>
</svg>
