<?xml version="1.0" encoding="utf-8"?>
<!-- Generator: Adobe Illustrator 21.1.0, SVG Export Plug-In . SVG Version: 6.00 Build 0)  -->
<svg version="1.1" id="Layer_1" xmlns="http://www.w3.org/2000/svg" xmlns:xlink="http://www.w3.org/1999/xlink" x="0px" y="0px"
	 viewBox="0 0 118 118" style="enable-background:new 0 0 118 118;" xml:space="preserve">
<style type="text/css">
	.st0{fill:#292541;}
</style>
<path class="st0" d="M117.8,54.7h-12c-1.1-12-6.7-22.7-15.1-30.4l8.5-8.5C109.8,25.7,116.7,39.4,117.8,54.7z M12.2,54.7
	c1-11.4,6.1-21.6,13.9-29.2L17.6,17C7.7,26.8,1.2,40,0.2,54.7H12.2z M19,15.6l8.5,8.5c7.8-7,18-11.5,29.2-12v-12
	C42.2,0.6,29,6.4,19,15.6z M58.8,12c0.1,0,0.2,0,0.2,0c11.4,0,21.9,4.1,30.1,10.9l8.5-8.5C87.3,5.4,73.8,0,59,0c-0.1,0-0.2,0-0.2,0
	V12z M22.9,89.1C16.1,80.9,12,70.4,12,59c0-0.7,0-1.5,0.1-2.2h-12C0,57.5,0,58.3,0,59c0,14.8,5.4,28.3,14.4,38.6L22.9,89.1z
	 M105.9,56.8c0,0.7,0.1,1.5,0.1,2.2c0,12.1-4.6,23.1-12.1,31.4l8.5,8.5c9.7-10.5,15.6-24.5,15.6-40c0-0.7,0-1.5-0.1-2.2H105.9z
	 M92.5,91.9C84,100.6,72.1,106,59,106c-0.1,0-0.2,0-0.2,0v12c0.1,0,0.2,0,0.2,0c16.4,0,31.3-6.7,42-17.6L92.5,91.9z M56.7,105.9
	c-12.8-0.6-24.3-6.4-32.4-15.3l-8.5,8.5c10.3,11.1,24.8,18.2,40.9,18.8V105.9z"/>
</svg>
