<?xml version="1.0" encoding="utf-8"?>
<!-- Generator: Adobe Illustrator 21.1.0, SVG Export Plug-In . SVG Version: 6.00 Build 0)  -->
<svg version="1.1" xmlns="http://www.w3.org/2000/svg" xmlns:xlink="http://www.w3.org/1999/xlink" x="0px" y="0px"
	 viewBox="0 0 782 379.8" style="enable-background:new 0 0 782 379.8;" xml:space="preserve">
<style type="text/css">
	.st0{opacity:0.45;}
	.st1{fill-rule:evenodd;clip-rule:evenodd;fill:#645494;}
	.st2{fill-rule:evenodd;clip-rule:evenodd;fill:#412699;}
	.st3{fill-rule:evenodd;clip-rule:evenodd;fill:#271262;}
	.st4{fill-rule:evenodd;clip-rule:evenodd;fill:#270E42;}
	.st5{fill-rule:evenodd;clip-rule:evenodd;fill:#1E022E;}
	.st6{fill-rule:evenodd;clip-rule:evenodd;fill:#FFFFFF;}
	.st7{opacity:0.25;fill-rule:evenodd;clip-rule:evenodd;fill:#645494;}
	.st8{opacity:0.25;fill-rule:evenodd;clip-rule:evenodd;fill:#FFFFFF;}
	.st9{opacity:0.2;fill-rule:evenodd;clip-rule:evenodd;fill:#3966A3;}
	.st10{opacity:0.2;fill-rule:evenodd;clip-rule:evenodd;fill:#29316E;}
	.st11{opacity:0.2;fill-rule:evenodd;clip-rule:evenodd;fill:#0F0F4D;}
	.st12{opacity:0.2;fill-rule:evenodd;clip-rule:evenodd;fill:#FFFFFF;}
	.st13{opacity:0.2;fill-rule:evenodd;clip-rule:evenodd;fill:#68AEFD;}
	.st14{opacity:0.25;fill-rule:evenodd;clip-rule:evenodd;fill:#BFB4F6;}
	.st15{opacity:0.25;fill-rule:evenodd;clip-rule:evenodd;fill:#7F68FD;}
	.st16{opacity:0.25;fill-rule:evenodd;clip-rule:evenodd;fill:#4C39A3;}
	.st17{opacity:0.25;fill-rule:evenodd;clip-rule:evenodd;fill:#45296E;}
	.st18{opacity:0.25;fill-rule:evenodd;clip-rule:evenodd;fill:#300F4D;}
	.st19{opacity:0.25;}
	.st20{fill-rule:evenodd;clip-rule:evenodd;fill:#2C2462;}
	.st21{fill-rule:evenodd;clip-rule:evenodd;fill:#470062;}
	.st22{opacity:0.2;fill:#1837FF;}
	.st23{fill:#772365;}
	.st24{fill:#C457A0;}
	.st25{opacity:0.8;fill:#CAAAE5;}
	.st26{fill:#D36475;}
	.st27{fill:#FF99BB;}
	.st28{fill:#7D33FF;}
	.st29{fill:#B897FF;}
	.st30{fill:#F476D2;}
	.st31{fill:#2A35D8;}
	.st32{fill:#932D30;}
	.st33{opacity:0.8;fill:#6A41FF;}
	.st34{fill:#5A21D8;}
	.st35{fill:#CFB3FF;}
	.st36{fill:#6725F4;}
</style>
<g id="Layer_3" class="st0">
	<path class="st1" d="M325.4,342.3l44.4-147.6c2.8-9.3,9.9-9.4,12.7,0c2.8,9.4,10,9.2,12.7,0L450.9,9.3c3.8-12.6,16.8-12.3,20.5,0
		l31.2,103.9c2.3,7.8,9.1,7.9,11.4,0c3.7-12.3,13.7-12.5,17.4,0l68.9,229.1C508.7,342.3,417,342.3,325.4,342.3L325.4,342.3z"/>
	<path class="st2" d="M459.8,0.1c6.9,1.9,11.4,8.5,10.6,19.3l-8.7,116.2c-0.7,9,1.4,20,6.4,28l38.3,61.2c6.3,9.8,7.1,27.3,2.8,39.6
		l-27,77.9h118.1l-68.9-229.1c-3.7-12.5-13.7-12.3-17.4,0c-2.4,7.9-9.1,7.8-11.4,0L471.4,9.3C469.3,2.5,464.4-0.6,459.8,0.1
		L459.8,0.1z"/>
	<polygon class="st3" points="507.4,342.3 455.2,342.3 471.3,307.6 462.5,311.8 476.8,271.7 472.5,274.4 482.3,242.4 492.6,276.2 
		488.6,271.7 500.7,311.6 492.6,307.6 507.4,342.3 	"/>
	<polygon class="st3" points="577,342.3 501.6,342.3 516.3,310.6 508.2,314.5 521.3,277.8 517.4,280.3 526.4,251.1 535.7,282 
		532.1,277.8 537,294.1 546.2,265.1 542.5,266.3 552.2,230.4 562.4,268.3 558.9,265 570.4,307.9 563,305.1 577,342.3 	"/>
	<polygon class="st3" points="435.2,342.3 371.4,342.3 391.1,299.9 380.3,305 397.8,255.9 392.5,259.3 404.5,220.2 417.1,261.5 
		412.2,255.9 427,304.8 417.1,299.9 435.2,342.3 	"/>
	<path class="st1" d="M357.6,38.1c-13.6,0-24.5,11-24.5,24.5c0,13.6,11,24.5,24.5,24.5c13.6,0,24.5-11,24.5-24.5
		C382.1,49.1,371.2,38.1,357.6,38.1L357.6,38.1z"/>
	<polygon class="st4" points="600.3,342.3 647.9,342.3 633.2,310.6 641.3,314.5 628.2,277.8 632.2,280.3 623.2,251.1 613.8,282 
		617.4,277.8 606.4,314.3 613.8,310.6 600.3,342.3 	"/>
	<polygon class="st3" points="398.1,342.3 350.4,342.3 365.1,310.6 357.1,314.5 370.2,277.8 366.2,280.3 375.2,251.1 384.5,282 
		380.9,277.8 392,314.3 384.5,310.6 398.1,342.3 	"/>
	<polygon class="st4" points="295.9,342.3 343.5,342.3 328.8,310.6 336.8,314.5 323.8,277.8 327.7,280.3 318.7,251.1 309.4,282 
		313,277.8 301.9,314.3 309.4,310.6 295.9,342.3 	"/>
	<polygon class="st5" points="328.3,342.3 343.5,342.3 328.8,310.6 336.8,314.5 323.8,277.8 327.7,280.3 318.7,251.1 322.7,277.2 
		320.9,276 327.4,309.9 323.1,307.9 328.3,342.3 	"/>
	<path class="st5" d="M675.3,342.3H250.4c-1.8,0-3.3,1.5-3.3,3.3v3.8c0,1.8,1.5,3.3,3.3,3.3h424.9c1.8,0,3.3-1.5,3.3-3.3v-3.8
		C678.6,343.8,677.1,342.3,675.3,342.3L675.3,342.3z"/>
	<path class="st6" d="M357.6,38.1c-0.2,0-0.4,0-0.6,0c6.5,3.4,10.9,10.1,10.9,18c0,11.2-9,20.2-20.2,20.2c-4.9,0-9.5-1.8-13-4.7
		c3.6,9.1,12.5,15.6,22.9,15.6c13.6,0,24.5-11,24.5-24.5C382.1,49.1,371.2,38.1,357.6,38.1L357.6,38.1z"/>
	<polygon class="st5" points="632.7,342.3 647.9,342.3 633.2,310.6 641.3,314.5 628.2,277.8 632.2,280.3 623.2,251.1 627.2,277.2 
		625.3,276 631.8,309.9 627.5,307.9 632.7,342.3 	"/>
	<polygon class="st4" points="270.1,342.3 321.6,342.3 306.5,305.2 314.5,308.2 300.9,265.1 304.6,266.3 294.9,230.4 284.7,268.3 
		288.1,265 276.6,307.9 284.1,305.1 270.1,342.3 	"/>
	<polygon class="st5" points="305.4,342.3 321.6,342.3 306.5,305.2 314.5,308.2 300.9,265.1 304.6,266.3 294.9,230.4 300,264.8 
		297.6,264.1 304.2,304.3 300.1,302.8 305.4,342.3 	"/>
	<path class="st4" d="M419.4,138.9l6.4-9.7v-15.9l4.2,6.7v3.9l5.3,14.5l0.9,9l-6.2-3.1v5.1l17.8,22.6l-3.9,7.8l-13.9-4.7v1.5
		l29.6,30.5l3.7,18.6L430,215.5v3.7l35.2,20.7l-6.5,15.9l-28.7-8.5v95.1h-4.2v-94.1l-31.2,9.2l-7.4-13.8l38.6-23.5v-3.4l-23.4,7.4
		l-7.2-11.8l30.5-32.1v-4.7l-15,5.2l2-12.3c4.3-5.4,8.7-10.8,13-16.2v-8.3l-4.6,0.6L419.4,138.9L419.4,138.9z"/>
	<polygon class="st5" points="430,141.6 430,123.8 435.2,138.4 436.1,147.4 430,144.3 430,149.4 447.8,172 443.9,179.8 430,175.1 
		430,176.6 459.6,207.1 463.3,225.7 430,215.5 430,219.1 465.1,239.9 458.7,255.8 430,247.3 430,290.9 425.8,292.4 425.8,248.2 
		407.9,253.5 409.8,248.3 426.1,236.8 428.7,218.4 425.8,220.2 425.8,216.8 414.1,220.5 426.1,204.1 432.3,206.9 428.4,177.6 
		425.8,180.3 425.8,175.6 420,177.6 431.8,166.4 429.1,148.3 425.8,152.4 425.8,144.1 421.1,144.7 430,141.6 	"/>
	<polygon class="st2" points="418.1,188.4 395.2,212.4 400.9,215.5 418.1,191.9 418.1,188.4 	"/>
	<polygon class="st2" points="402.6,234.3 387.1,243.7 390.8,250.6 405.9,237.5 402.6,234.3 	"/>
	<polygon class="st2" points="423.3,155.5 412.8,168.5 416.4,171.2 424.1,159 423.3,155.5 	"/>
	<path class="st6" d="M527.9,293.7"/>
	<line class="st6" x1="527.9" y1="292" x2="527.9" y2="292"/>
	<path class="st4" d="M553.2,282.4l31.7-21.7v-3.1l-19.2,6.8l-5.9-10.9l25.1-29.6v-4.4l-12.3,4.8l1.7-11.3c3.5-5,7.1-9.9,10.6-14.9
		v-20.4l4.6-6.5l3.2,18l-3.2,4.2v3.4l13.5,19.3l-3.2,7.2l-10.3-3.9v2.3c7.7,9,15.5,17.9,23.2,26.9l3,17.2l-26.3-9.1v3.7l27.8,18.4
		l-1.3,16l-26.5-8.8v56.3H585v-55.7l-25.6,8.5L553.2,282.4L553.2,282.4z"/>
	<polygon class="st2" points="585,198 574.3,212.9 573.6,217.8 584.4,208.1 585,198 	"/>
	<path class="st5" d="M587.4,259l-2.5,1.7v-3.1l-14.9,5.3l15.2-15.1l4.3,1.7l-1.4-29.4l-3.2,3.8v-4.4l-4.4,1.7l9-8.7l0-15.6
		l13.5,19.3l-3.2,7.2l-10.3-3.9v2.3c7.7,9,15.5,17.9,23.2,26.9l3,17.2l-26.3-9.1v3.7l27.8,18.4l-1.3,16l-26.5-8.8l0,28.4l-4.6-2.8
		v-25l-25.6,8.5l26.5-22.3L587.4,259L587.4,259z"/>
	<polygon class="st2" points="574.6,236.1 559.9,253.4 562.7,255 578.1,243.7 574.6,236.1 	"/>
	<path d="M335.5,342.3v-10.1c0-0.7-0.6-1.3-1.3-1.3h-1.6c-0.7,0-1.3,0.6-1.3,1.3c0,0.7,0.6,1.3,1.3,1.3h0.4v8.8H335.5L335.5,342.3z"
		/>
	<path class="st4" d="M396.3,251.1l-31.7-21.7v-3.1l19.2,6.8l5.9-10.9l-25.1-29.6v-4.4l12.3,4.8l-1.7-11.3c-3.5-5-7.1-9.9-10.6-14.9
		v-20.4l-4.6-6.5l-3.2,18l3.2,4.2v3.4l-13.5,19.3l3.2,7.2l10.3-3.9v2.3c-7.7,9-15.5,17.9-23.2,26.9l-3,17.2l26.3-9.1v3.7l-27.8,18.4
		l1.3,16l26.5-8.8v87.5h4.6v-87l25.6,8.5L396.3,251.1L396.3,251.1z"/>
	<path class="st5" d="M396.3,251.1l-31.7-21.7v-3.1l19.2,6.8l5.9-10.9l-25.1-29.6v-4.4l12.3,4.8l-1.7-11.3c-3.5-5-7.1-9.9-10.6-14.9
		V177l-7.5,12.2l2.8-1.1v2.3l1.4-1.6l3.2,28.6l-13.1,7.1l-2.4,4.7l10.9-3.8v3.7l2.2-1.4l-2.2,16.7L342,260.8l17.9-6v25.4l4.6,2
		v-26.9l25.6,8.5L396.3,251.1L396.3,251.1z"/>
	<path class="st7" d="M576.3,47.5c-2.5,0-4.6,2.1-4.6,4.6c0,2.5,2.1,4.6,4.6,4.6c2.5,0,4.6-2.1,4.6-4.6
		C580.9,49.5,578.8,47.5,576.3,47.5L576.3,47.5z"/>
	<path class="st7" d="M544.4,71.6c-1.4,0-2.6,1.2-2.6,2.6c0,1.4,1.2,2.6,2.6,2.6c1.4,0,2.6-1.2,2.6-2.6
		C547,72.8,545.8,71.6,544.4,71.6L544.4,71.6z"/>
	<path class="st7" d="M382.5,7.2c-2.5,0-4.6,2.1-4.6,4.6c0,2.5,2.1,4.6,4.6,4.6c2.5,0,4.6-2.1,4.6-4.6
		C387.1,9.3,385.1,7.2,382.5,7.2L382.5,7.2z"/>
	<path class="st7" d="M531.9,23.8c-1.9,0-3.4,1.5-3.4,3.4c0,1.9,1.5,3.4,3.4,3.4c1.9,0,3.4-1.5,3.4-3.4
		C535.3,25.3,533.8,23.8,531.9,23.8L531.9,23.8z"/>
	<path class="st8" d="M316.1,27.1c-1.4,0-2.6,1.2-2.6,2.6c0,1.4,1.2,2.6,2.6,2.6c1.4,0,2.6-1.2,2.6-2.6
		C318.7,28.3,317.6,27.1,316.1,27.1L316.1,27.1z"/>
	<path class="st8" d="M604.3,12.3c-1.4,0-2.6,1.2-2.6,2.6c0,1.4,1.2,2.6,2.6,2.6c1.4,0,2.6-1.2,2.6-2.6
		C606.9,13.5,605.8,12.3,604.3,12.3L604.3,12.3z"/>
	<path class="st7" d="M620.7,59.3c-1.9,0-3.4,1.5-3.4,3.4c0,1.9,1.5,3.4,3.4,3.4c1.9,0,3.4-1.5,3.4-3.4
		C624.1,60.8,622.6,59.3,620.7,59.3L620.7,59.3z"/>
	<path class="st7" d="M297.5,76.8c-1.4,0-2.6,1.2-2.6,2.6c0,1.4,1.2,2.6,2.6,2.6c1.4,0,2.6-1.2,2.6-2.6
		C300.1,77.9,298.9,76.8,297.5,76.8L297.5,76.8z"/>
	<path class="st8" d="M515.6,52.6c-1.4,0-2.6,1.2-2.6,2.6c0,1.4,1.2,2.6,2.6,2.6c1.4,0,2.6-1.2,2.6-2.6
		C518.2,53.8,517,52.6,515.6,52.6L515.6,52.6z"/>
	<path class="st1" d="M416.7,35.7c-1.4,0-2.6,1.2-2.6,2.6c0,1.4,1.2,2.6,2.6,2.6c1.4,0,2.6-1.2,2.6-2.6
		C419.3,36.8,418.1,35.7,416.7,35.7L416.7,35.7z"/>
</g>
<g id="Layer_5">
	<polygon class="st9" points="258.1,340 335.1,340 311.4,288.6 324.4,294.9 303.3,235.6 309.7,239.7 295.1,192.4 280,242.3 
		285.8,235.6 267.9,294.6 280,288.6 258.1,340 	"/>
	<polygon class="st9" points="155.3,340 266.6,340 244.9,293.1 256.8,298.8 237.5,244.7 243.4,248.4 230.1,205.2 216.3,250.8 
		221.6,244.7 214.3,268.7 200.8,225.9 206.3,227.6 191.9,174.7 176.9,230.6 182,225.8 165,289.2 176,285 155.3,340 	"/>
	<polygon class="st10" points="120.9,340 50.6,340 72.3,293.1 60.4,298.8 79.7,244.7 73.8,248.4 87.1,205.2 101,250.8 95.6,244.7 
		111.9,298.5 101,293.1 120.9,340 	"/>
	<polygon class="st11" points="73,340 50.6,340 72.3,293.1 60.4,298.8 79.7,244.7 73.8,248.4 87.1,205.2 81.2,243.7 83.9,242 
		74.3,292.1 80.7,289.1 73,340 	"/>
	<path class="st12" d="M227.8,268.2"/>
	<line class="st12" x1="227.8" y1="265.7" x2="227.8" y2="265.7"/>
	<path class="st10" d="M190.4,251.4l-46.9-32.1v-4.6l28.3,10.1l8.7-16.2l-37-43.8v-6.4l18.2,7l-2.4-16.7c-5.2-7.3-10.5-14.7-15.7-22
		V96.7l-6.8-9.6l-4.7,26.6l4.7,6.2v5l-19.9,28.5l4.7,10.6l15.2-5.8v3.3c-11.4,13.2-22.9,26.4-34.3,39.7l-4.5,25.4l38.8-13.4v5.5
		l-41,27.2l1.9,23.7l39.1-13V340h6.8v-82.3l37.9,12.6L190.4,251.4L190.4,251.4z"/>
	<polygon class="st13" points="143.5,126.8 159.3,148.8 160.3,156 144.4,141.8 143.5,126.8 	"/>
	<path class="st11" d="M139.9,216.9l3.6,2.5v-4.6l22,7.8L143,200.3l-6.3,2.4l2.1-43.4l4.7,5.6v-6.4l6.5,2.5l-13.3-12.9l0-23.1
		l-19.9,28.5l4.7,10.6l15.2-5.8v3.3c-11.4,13.2-22.9,26.4-34.3,39.7l-4.5,25.4l38.8-13.4v5.5l-41,27.2l1.9,23.7l39.1-13l0,41.9
		l6.8-4.2v-36.9l37.9,12.6l-39.2-33L139.9,216.9L139.9,216.9z"/>
	<polygon class="st13" points="158.8,183 180.5,208.7 176.4,211 153.7,194.4 158.8,183 	"/>
</g>
<g id="Layer_6">
	<path class="st14" d="M549.7,347.1l24.2-80.4c1.5-5,5.4-5.1,6.9,0c1.5,5.1,5.4,5,6.9,0l30.3-100.9c2.1-6.9,9.2-6.7,11.2,0l17,56.6
		c1.3,4.3,4.9,4.3,6.2,0c2-6.7,7.5-6.8,9.5,0l37.5,124.8C649.5,347.1,599.6,347.1,549.7,347.1L549.7,347.1z"/>
	<path class="st15" d="M622.9,160.7c3.7,1,6.2,4.6,5.7,10.5l-4.7,63.3c-0.4,4.9,0.8,10.9,3.5,15.2l20.9,33.3
		c3.4,5.4,3.9,14.9,1.6,21.6l-14.7,42.4h64.3l-37.5-124.8c-2-6.8-7.5-6.7-9.5,0c-1.3,4.3-5,4.3-6.2,0l-17-56.6
		C628.1,162,625.4,160.3,622.9,160.7L622.9,160.7z"/>
	<polygon class="st16" points="648.8,347.1 620.4,347.1 629.2,328.2 624.4,330.5 632.2,308.6 629.8,310.1 635.2,292.7 640.8,311.1 
		638.6,308.6 645.2,330.4 640.8,328.2 648.8,347.1 	"/>
	<polygon class="st16" points="686.8,347.1 645.7,347.1 653.7,329.8 649.3,331.9 656.4,312 654.3,313.3 659.2,297.4 664.3,314.2 
		662.3,312 665,320.8 670,305 668,305.7 673.3,286.2 678.8,306.8 676.9,305 683.2,328.4 679.1,326.8 686.8,347.1 	"/>
	<polygon class="st16" points="609.5,347.1 574.8,347.1 585.5,324 579.6,326.8 589.2,300 586.3,301.9 592.8,280.6 599.7,303.1 
		597,300 605.1,326.6 599.7,324 609.5,347.1 	"/>
	<path class="st14" d="M567.3,181.4c-7.4,0-13.4,6-13.4,13.4c0,7.4,6,13.4,13.4,13.4c7.4,0,13.4-6,13.4-13.4
		C580.6,187.4,574.7,181.4,567.3,181.4L567.3,181.4z"/>
	<polygon class="st17" points="699.4,347.1 725.4,347.1 717.4,329.8 721.8,331.9 714.6,312 716.8,313.3 711.9,297.4 706.8,314.2 
		708.8,312 702.7,331.8 706.8,329.8 699.4,347.1 	"/>
	<polygon class="st16" points="589.3,347.1 563.4,347.1 571.4,329.8 567,331.9 574.1,312 571.9,313.3 576.8,297.4 581.9,314.2 
		580,312 586,331.8 581.9,329.8 589.3,347.1 	"/>
	<polygon class="st17" points="533.6,347.1 559.6,347.1 551.6,329.8 556,331.9 548.8,312 551,313.3 546.1,297.4 541,314.2 543,312 
		537,331.8 541,329.8 533.6,347.1 	"/>
	<polygon class="st18" points="551.3,347.1 559.6,347.1 551.6,329.8 556,331.9 548.8,312 551,313.3 546.1,297.4 548.3,311.6 
		547.3,311 550.8,329.5 548.5,328.3 551.3,347.1 	"/>
	<path class="st18" d="M740.3,347.1H508.9c-1,0-1.8,0.8-1.8,1.8v2c0,1,0.8,1.8,1.8,1.8h231.4c1,0,1.8-0.8,1.8-1.8v-2
		C742.1,347.9,741.3,347.1,740.3,347.1L740.3,347.1z"/>
	<path class="st8" d="M567.3,181.4c-0.1,0-0.2,0-0.3,0c3.5,1.8,6,5.5,6,9.8c0,6.1-4.9,11-11,11c-2.7,0-5.2-1-7.1-2.6
		c1.9,5,6.8,8.5,12.5,8.5c7.4,0,13.4-6,13.4-13.4C580.6,187.4,574.7,181.4,567.3,181.4L567.3,181.4z"/>
	<polygon class="st18" points="717.1,347.1 725.4,347.1 717.4,329.8 721.8,331.9 714.6,312 716.8,313.3 711.9,297.4 714.1,311.6 
		713.1,311 716.6,329.5 714.3,328.3 717.1,347.1 	"/>
	<polygon class="st17" points="519.6,347.1 547.7,347.1 539.4,326.9 543.8,328.5 536.4,305 538.4,305.7 533.1,286.2 527.6,306.8 
		529.4,305 523.2,328.4 527.2,326.8 519.6,347.1 	"/>
	<polygon class="st18" points="538.9,347.1 547.7,347.1 539.4,326.9 543.8,328.5 536.4,305 538.4,305.7 533.1,286.2 535.9,304.9 
		534.6,304.5 538.2,326.4 536,325.6 538.9,347.1 	"/>
	<path class="st17" d="M600.9,236.3l3.5-5.3v-8.7l2.3,3.6v2.1l2.9,7.9l0.5,4.9l-3.4-1.7v2.8l9.7,12.3l-2.1,4.2l-7.6-2.6v0.8
		l16.1,16.6l2,10.1l-18.1-5.6v2l19.1,11.3l-3.5,8.7l-15.6-4.6v51.8h-2.3v-51.3l-17,5l-4-7.5l21-12.8v-1.8l-12.7,4l-3.9-6.4
		l16.6-17.5v-2.6l-8.2,2.8l1.1-6.7c2.4-2.9,4.7-5.9,7.1-8.8v-4.5l-2.5,0.3L600.9,236.3L600.9,236.3z"/>
	<polygon class="st18" points="606.7,237.8 606.7,228.1 609.6,236 610,240.9 606.7,239.2 606.7,242 616.4,254.3 614.3,258.6 
		606.7,256 606.7,256.8 622.8,273.4 624.8,283.6 606.7,278 606.7,280 625.8,291.3 622.3,299.9 606.7,295.3 606.7,319.1 604.4,319.9 
		604.4,295.8 594.7,298.7 595.7,295.9 604.6,289.6 606,279.6 604.4,280.6 604.4,278.7 598,280.8 604.6,271.8 608,273.3 605.8,257.4 
		604.4,258.9 604.4,256.3 601.3,257.4 607.7,251.3 606.2,241.4 604.4,243.6 604.4,239.1 601.9,239.5 606.7,237.8 	"/>
	<polygon class="st15" points="600.2,263.2 587.8,276.3 590.8,278 600.2,265.2 600.2,263.2 	"/>
	<polygon class="st15" points="591.8,288.2 583.4,293.4 585.4,297.1 593.6,290 591.8,288.2 	"/>
	<polygon class="st15" points="603,245.3 597.3,252.4 599.3,253.9 603.5,247.3 603,245.3 	"/>
	<path class="st8" d="M660,320.6"/>
	<line class="st8" x1="660" y1="319.7" x2="660" y2="319.7"/>
	<path class="st17" d="M673.8,314.5l17.3-11.8v-1.7l-10.4,3.7l-3.2-6l13.6-16.1v-2.4l-6.7,2.6l0.9-6.2c1.9-2.7,3.9-5.4,5.8-8.1
		v-11.1l2.5-3.5l1.7,9.8l-1.7,2.3v1.9l7.4,10.5l-1.7,3.9l-5.6-2.1v1.2c4.2,4.9,8.4,9.7,12.6,14.6l1.7,9.4l-14.3-4.9v2l15.1,10
		l-0.7,8.7l-14.4-4.8v30.6h-2.5v-30.4l-14,4.6L673.8,314.5L673.8,314.5z"/>
	<polygon class="st15" points="691.1,268.5 685.3,276.6 684.9,279.3 690.8,274 691.1,268.5 	"/>
	<path class="st18" d="M692.4,301.7l-1.3,0.9v-1.7l-8.1,2.9l8.3-8.2l2.3,0.9l-0.8-16l-1.7,2.1v-2.4l-2.4,0.9l4.9-4.7l0-8.5l7.4,10.5
		l-1.7,3.9l-5.6-2.1v1.2c4.2,4.9,8.4,9.7,12.6,14.6l1.7,9.4l-14.3-4.9v2l15.1,10l-0.7,8.7l-14.4-4.8l0,15.5l-2.5-1.6v-13.6l-14,4.6
		l14.4-12.2L692.4,301.7L692.4,301.7z"/>
	<polygon class="st15" points="685.5,289.2 677.4,298.7 679,299.5 687.4,293.4 685.5,289.2 	"/>
	<path class="st19" d="M555.2,347.1v-5.5c0-0.4-0.3-0.7-0.7-0.7h-0.9c-0.4,0-0.7,0.3-0.7,0.7c0,0.4,0.3,0.7,0.7,0.7h0.2v4.8H555.2
		L555.2,347.1z"/>
	<path class="st17" d="M588.3,297.4l-17.3-11.8v-1.7l10.4,3.7l3.2-6l-13.6-16.1v-2.4l6.7,2.6l-0.9-6.2c-1.9-2.7-3.9-5.4-5.8-8.1
		v-11.1l-2.5-3.5l-1.7,9.8l1.7,2.3v1.9l-7.4,10.5l1.7,3.9l5.6-2.1v1.2c-4.2,4.9-8.4,9.8-12.6,14.6l-1.7,9.4l14.3-4.9v2l-15.1,10
		l0.7,8.7l14.4-4.8v47.7h2.5v-47.4l14,4.6L588.3,297.4L588.3,297.4z"/>
	<path class="st18" d="M588.3,297.4l-17.3-11.8v-1.7l10.4,3.7l3.2-6l-13.6-16.1v-2.4l6.7,2.6l-0.9-6.2c-1.9-2.7-3.9-5.4-5.8-8.1v5.6
		l-4.1,6.6l1.5-0.6v1.2l0.8-0.9l1.7,15.6l-7.2,3.9l-1.3,2.5l6-2.1v2l1.2-0.8l-1.2,9.1l-9.7,8.9l9.7-3.2v13.9l2.5,1.1v-14.6l14,4.6
		L588.3,297.4L588.3,297.4z"/>
	<path class="st14" d="M686.4,186.5c-1.4,0-2.5,1.1-2.5,2.5c0,1.4,1.1,2.5,2.5,2.5c1.4,0,2.5-1.1,2.5-2.5
		C688.9,187.6,687.8,186.5,686.4,186.5L686.4,186.5z"/>
	<path class="st14" d="M669,199.7c-0.8,0-1.4,0.6-1.4,1.4c0,0.8,0.6,1.4,1.4,1.4c0.8,0,1.4-0.6,1.4-1.4
		C670.4,200.3,669.8,199.7,669,199.7L669,199.7z"/>
	<path class="st14" d="M580.8,164.6c-1.4,0-2.5,1.1-2.5,2.5c0,1.4,1.1,2.5,2.5,2.5c1.4,0,2.5-1.1,2.5-2.5
		C583.4,165.7,582.2,164.6,580.8,164.6L580.8,164.6z"/>
	<path class="st14" d="M662.2,173.6c-1,0-1.8,0.8-1.8,1.8c0,1,0.8,1.8,1.8,1.8c1,0,1.8-0.8,1.8-1.8
		C664,174.4,663.2,173.6,662.2,173.6L662.2,173.6z"/>
	<path class="st8" d="M544.7,175.4c-0.8,0-1.4,0.6-1.4,1.4c0,0.8,0.6,1.4,1.4,1.4s1.4-0.6,1.4-1.4
		C546.1,176,545.5,175.4,544.7,175.4L544.7,175.4z"/>
	<path class="st8" d="M701.6,167.4c-0.8,0-1.4,0.6-1.4,1.4c0,0.8,0.6,1.4,1.4,1.4c0.8,0,1.4-0.6,1.4-1.4
		C703.1,168,702.4,167.4,701.6,167.4L701.6,167.4z"/>
	<path class="st14" d="M710.6,193c-1,0-1.8,0.8-1.8,1.8c0,1,0.8,1.8,1.8,1.8c1,0,1.8-0.8,1.8-1.8C712.4,193.8,711.6,193,710.6,193
		L710.6,193z"/>
	<path class="st14" d="M534.5,202.5c-0.8,0-1.4,0.6-1.4,1.4c0,0.8,0.6,1.4,1.4,1.4c0.8,0,1.4-0.6,1.4-1.4
		C535.9,203.1,535.3,202.5,534.5,202.5L534.5,202.5z"/>
	<path class="st8" d="M653.3,189.3c-0.8,0-1.4,0.6-1.4,1.4c0,0.8,0.6,1.4,1.4,1.4c0.8,0,1.4-0.6,1.4-1.4
		C654.7,190,654.1,189.3,653.3,189.3L653.3,189.3z"/>
	<path class="st14" d="M599.5,180.1c-0.8,0-1.4,0.6-1.4,1.4c0,0.8,0.6,1.4,1.4,1.4c0.8,0,1.4-0.6,1.4-1.4
		C600.9,180.7,600.2,180.1,599.5,180.1L599.5,180.1z"/>
	<path class="st20" d="M6,342.1h770c3.3,0,6,2.7,6,6v1c0,3.3-2.7,6-6,6H6c-3.3,0-6-2.7-6-6v-1C0,344.8,2.7,342.1,6,342.1z"/>
</g>
<g id="Layer_4">
	<path class="st21" d="M460.1,379.8 M383.7,364.5c0-8.4,34.2-15.3,76.4-15.3s76.4,6.8,76.4,15.3"/>
	<path class="st22" d="M481.3,219.8c-57.9-11.1-110.6,41.9-89.6,98.7c28.4,76.9,120.5,55.2,146.8,1.1
		C557.4,280.5,538.6,230.8,481.3,219.8z"/>
	<polygon class="st23" points="439.1,278.6 315.9,279.9 315.4,351 437.9,364.7 	"/>
	<polygon class="st24" points="438.3,280.6 309.1,271.7 308.2,300.6 435.7,306.1 	"/>
	<polygon class="st24" points="437.4,311.2 305.6,304.8 305.6,333.7 435.5,335 	"/>
	<polygon class="st24" points="437.4,340.2 313.1,338 313.9,366.1 436.6,364.4 	"/>
	<polygon class="st25" points="449.5,283.2 381.2,276.3 378.2,365.3 442.5,365.7 	"/>
	<polygon class="st26" points="602,319.7 449.4,303.9 449.4,365.7 602,365.7 	"/>
	<polygon class="st26" points="608,341.6 540.6,340.6 513.4,361.4 605.1,361.7 	"/>
	<rect x="566.4" y="340.6" class="st27" width="25.3" height="22.4"/>
	<rect x="505.6" y="339.3" class="st27" width="25.3" height="23.7"/>
	<rect x="537.1" y="317.9" class="st27" width="25.3" height="20.6"/>
	<polygon class="st28" points="610.6,234.8 451.3,234.1 449.2,315.3 602,319.9 	"/>
	<polygon class="st28" points="618.7,232.1 529.4,234.3 543.6,250.8 616.8,251.8 	"/>
	<polygon class="st28" points="612.2,280 567.5,281 565.2,300.4 610.3,299.8 	"/>
	<rect x="518.3" y="301.5" class="st29" width="22.6" height="15.6"/>
	<rect x="576.5" y="302.2" class="st29" width="22" height="15.6"/>
	<rect x="550.1" y="280.8" class="st29" width="22" height="20.1"/>
	<polygon class="st29" points="598.5,232.5 576,233.3 576.5,252.5 598.5,252.5 	"/>
	<polygon class="st29" points="556.6,232.9 534.1,233.7 533.9,250.3 556.6,253 	"/>
	<polygon class="st30" points="346.5,275.2 318.3,272.3 316.6,301.3 344.6,302.1 	"/>
	<polygon class="st30" points="382.2,308.9 354.9,306.9 353.3,333.5 381.2,334.8 	"/>
	<polygon class="st30" points="323.2,306 305.7,304.7 305.7,333.5 323.8,333.8 	"/>
	<polygon class="st30" points="358.2,339.3 329.7,339 330.3,365.6 357.2,365.6 	"/>
	<polygon class="st30" points="419.7,338.4 391.2,338 391.9,364.6 418.8,364.6 	"/>
	<rect x="525.3" y="252.1" class="st29" width="22" height="26.4"/>
	<rect x="581.9" y="254" class="st29" width="22" height="24"/>
	<polygon class="st31" points="608.9,252.5 505.3,249.6 505.6,252.2 608.3,256.1 	"/>
	<polygon class="st31" points="606.1,277.2 508.9,278.1 511.8,280.7 605.8,281 	"/>
	<polygon class="st31" points="603.5,300.1 514,301.4 515.3,303.4 603.5,303.4 	"/>
	<polygon class="st31" points="602.4,316.5 513.3,315.9 514.6,317.9 602.4,319.7 	"/>
	<polygon class="st32" points="601.9,338 489.7,337.4 487.5,339.3 601.9,341.6 	"/>
	<polygon class="st32" points="601.9,359.7 461.2,363 451.2,366.5 601.9,365.3 	"/>
	<path class="st33" d="M520.4,234.4l-69.1-0.3l-1.8,69.8l0,0v1.4l-0.3,10l0.3,0v50.4H497C557,343,576.6,269.8,520.4,234.4z"/>
	<g>
		<path class="st25" d="M408,240l52.7-0.4l1.7,67.2l0,0v1.3l0.2,9.6l-0.2,0v48.5l-55.4-2.2C350.6,342.2,355.1,274,408,240z"/>
	</g>
	<g>
		<path class="st34" d="M469.1,214c-58.5-11.2-111.8,42.3-90.6,99.5c28.8,77.6,121.8,55.7,148.4,1.1
			C546.1,275.2,527,225.1,469.1,214z"/>
		<path class="st28" d="M469.1,216.6c-58.5-11.2-111.8,42.3-90.6,99.5c28.8,77.6,121.8,55.7,148.4,1.1
			C546.1,277.8,527,227.7,469.1,216.6z"/>
		<path class="st35" d="M484.3,235.7c-54.4-26.5-112.6,22.7-92.9,75.8c22.7,61.3,93.6,46.9,118.7,6
			C525.3,292.7,524.4,255.2,484.3,235.7z"/>
		<path class="st36" d="M486.3,244.8c-49.9-30-106.4,15.3-88.3,64.3c20.5,55.2,85.6,40,107,2.8C517,291,515.4,262.3,486.3,244.8z"/>
		<path class="st35" d="M475.7,245.9c-42.8-19.1-87.5,19.5-72.1,61.2c17.3,46.7,69.5,37.1,91.5,7.8
			C511.3,293.3,510.2,261.3,475.7,245.9z"/>
	</g>
	<path class="st35" d="M487.5,339.3l7.5,13c0,0,12.6-7.1,20.1-17.2l-13.6-8.1L487.5,339.3z"/>
	<path class="st35" d="M517.7,296.8l15.2,2.8c0,0,3.2-13.6,0-26.3l-14.2,4.8L517.7,296.8z"/>
	<path class="st35" d="M500.5,248.5l11.6-11.7c0,0-10.4-9.5-22-14l-4.8,14.9L500.5,248.5z"/>
	<path class="st35" d="M455.3,231.4l2-16.5c0,0-14.6-0.8-26.2,3.2l5.7,14.5L455.3,231.4z"/>
	<path class="st35" d="M404.8,251.8l-11-11.2c0,0-9.8,9.9-14.4,21.8l14.7,4.6L404.8,251.8z"/>
	<path class="st35" d="M392.2,304l-17.1,1.9c0,0,3.4,14.1,9.8,24.6l12.4-8.6L392.2,304z"/>
	<path class="st35" d="M424.8,346.1l-7.6,14.8c0,0,13.8,5,26.2,6.1l-0.8-15.5L424.8,346.1z"/>
	<g>
		<path class="st36" d="M439.7,270.7c1,2.1,1.9,4.3,2.7,6.7c0.8,2.4,1.5,4.9,2.3,7.4l0,0.1c0.1,0.3-0.1,0.5-0.6,0.7
			c-2.1,0.6-4.2,1.2-6.3,1.9c-2.1,0.7-4.3,1.5-6.7,2.5c0,0.2,0.1,0.5,0.1,0.7c0.1,0.3,0.1,0.5,0.2,0.7c0.1,0.3,0.2,0.6,0.3,0.9
			c0.1,0.3,0.2,0.6,0.3,1c0.6-0.3,1.3-0.5,1.9-0.7c0.6-0.2,1.2-0.4,1.8-0.6c3.9-1.1,7.1-1.1,9.7-0.1c2.6,1,4.3,2.9,5.1,5.9
			c0.7,2.6,0.8,4.9,0.1,6.9c-0.7,2-1.8,3.7-3.5,5.2c-1.7,1.5-3.7,2.7-6.2,3.8c-2.5,1.1-5.1,2-7.9,2.8c-0.5,0.1-0.9,0-1.2-0.4
			c-0.4-0.8-0.9-1.7-1.3-2.5c-0.4-0.8-0.8-1.6-1.1-2.4c-0.1-0.3,0-0.5,0.3-0.7c1.7-0.6,3.2-1.3,4.3-1.9c1.1-0.6,2-1.2,2.6-1.8
			c0.6-0.6,1-1.2,1.2-1.8c0.2-0.6,0.2-1.2,0-1.8c-0.1-0.4-0.3-0.7-0.4-1.1c-0.2-0.3-0.5-0.6-0.8-0.7c-0.4-0.2-0.8-0.2-1.4-0.2
			c-0.6,0-1.4,0.2-2.4,0.4c-0.8,0.2-1.5,0.5-2.2,0.7c-0.7,0.3-1.4,0.7-2.2,1.2c-0.3,0.3-0.7,0.4-1.1,0.6c-0.3,0.1-0.5-0.1-0.5-0.4
			c-1-2-2-4.1-3-6.4c-1-2.2-1.9-4.5-2.9-6.7c-0.9-2.2-1.7-4.4-2.4-6.5c-0.7-2.1-1.3-3.9-1.8-5.5c-0.1-0.4,0.1-0.8,0.8-1.3
			c0.6-0.5,1.7-1,3.2-1.7c1.5-0.6,3.5-1.3,6.1-2.1c2.6-0.8,5.7-1.7,9.5-2.7c1.2-0.3,2-0.5,2.5-0.5
			C439.1,270.1,439.5,270.3,439.7,270.7z"/>
		<path class="st36" d="M463.5,263.7c2.8-0.8,5.3-0.9,7.7-0.5c2.4,0.4,4.5,1.3,6.4,2.7c1.9,1.4,3.5,3.1,4.9,5.2
			c1.4,2.1,2.4,4.5,3.1,7.1c0.8,2.8,1.2,5.7,1.2,8.5c0,2.9-0.4,5.6-1.3,8c-0.9,2.5-2.2,4.7-3.9,6.5c-1.8,1.8-4.1,3.1-6.9,3.9
			c-2.6,0.7-5.2,0.9-7.6,0.4c-2.4-0.4-4.6-1.4-6.7-2.9c-2-1.5-3.8-3.5-5.4-5.9c-1.6-2.5-2.8-5.4-3.8-8.7c-0.8-2.8-1.1-5.5-1-8.1
			c0.1-2.6,0.7-5,1.8-7.1c1-2.2,2.5-4,4.4-5.6C458.4,265.7,460.7,264.5,463.5,263.7z M471.8,295.6c1.1-0.3,1.8-1.3,2.1-2.9
			c0.3-1.6,0.2-3.5-0.4-5.6c-0.5-2-1.2-3.3-2-3.9c-0.8-0.6-1.8-0.8-3-0.4c-1.6,0.4-2.5,1.1-2.8,2.1c-0.3,0.9-0.2,2.4,0.3,4.4
			c0.6,2.2,1.5,3.9,2.6,5.1C469.7,295.4,470.7,295.9,471.8,295.6z"/>
	</g>
	<polygon class="st25" points="616.8,251.8 618.7,232.1 577.8,235.6 560.9,365.3 602,365.7 602,361.7 605.1,361.7 608,341.6 
		602,341.5 602,319.9 604,299.9 610.3,299.8 612.2,280 606,280.2 608.9,251.7 	"/>
	<polygon class="st28" points="565.8,281.1 609,280.9 571.9,284.6 	"/>
	<polygon class="st28" points="555.5,303.4 603.3,303.3 561.9,307.5 	"/>
	<polygon class="st26" points="562.5,318.9 600,319.7 563.3,322.6 	"/>
	<polygon class="st28" points="560.2,254.4 608.4,255.7 567,258.1 	"/>
	<polygon class="st26" points="551.7,340.6 599.4,341.6 556,343.7 	"/>
</g>
</svg>
