<?xml version="1.0" encoding="utf-8"?>
<!-- Generator: Adobe Illustrator 21.1.0, SVG Export Plug-In . SVG Version: 6.00 Build 0)  -->
<svg version="1.1"
	 id="Layer_1" xmlns:cc="http://creativecommons.org/ns#" xmlns:dc="http://purl.org/dc/elements/1.1/" xmlns:inkscape="http://www.inkscape.org/namespaces/inkscape" xmlns:rdf="http://www.w3.org/1999/02/22-rdf-syntax-ns#" xmlns:sodipodi="http://sodipodi.sourceforge.net/DTD/sodipodi-0.dtd" xmlns:svg="http://www.w3.org/2000/svg"
	 xmlns="http://www.w3.org/2000/svg" xmlns:xlink="http://www.w3.org/1999/xlink" x="0px" y="0px" viewBox="0 0 52 50"
	 style="enable-background:new 0 0 52 50;" xml:space="preserve">
<g transform="translate(0,-952.36218)">
	<path d="M41.1,1002.4c1.1-0.1,1.9-1.1,1.7-2.2c0,0,0-0.1,0-0.1l-2.5-15.6l11.1-11.1c0.8-0.8,0.8-2.1,0-2.8
		c-0.3-0.3-0.7-0.5-1.1-0.6l-15.5-2.4l-7-14.1c-0.5-1-1.7-1.4-2.7-0.9c-0.4,0.2-0.7,0.5-0.9,0.9l-7,14.1L1.7,970
		c-1.1,0.2-1.8,1.2-1.7,2.3c0.1,0.4,0.3,0.8,0.6,1.1l11.1,11.1L9.2,1000c-0.2,1.1,0.5,2.1,1.6,2.3c0.4,0.1,0.9,0,1.3-0.2l13.9-7.3
		l13.9,7.3C40.3,1002.3,40.7,1002.4,41.1,1002.4L41.1,1002.4z M38.2,996.8l-11.3-5.9c-0.6-0.3-1.3-0.3-1.8,0l-11.3,5.9l2.1-12.7
		c0.1-0.6-0.1-1.3-0.6-1.8l-9.1-9l12.6-1.9c0.6-0.1,1.2-0.5,1.5-1.1l5.7-11.5l5.7,11.5c0.3,0.6,0.8,1,1.5,1.1l12.6,1.9l-9.1,9
		c-0.5,0.5-0.7,1.1-0.6,1.8C36.1,984.1,38.2,996.8,38.2,996.8z"/>
</g>
</svg>
