<?xml version="1.0" encoding="utf-8"?>
<!-- Generator: Adobe Illustrator 21.1.0, SVG Export Plug-In . SVG Version: 6.00 Build 0)  -->
<svg version="1.1"
	 id="Layer_1" xmlns:cc="http://creativecommons.org/ns#" xmlns:dc="http://purl.org/dc/elements/1.1/" xmlns:inkscape="http://www.inkscape.org/namespaces/inkscape" xmlns:rdf="http://www.w3.org/1999/02/22-rdf-syntax-ns#" xmlns:sodipodi="http://sodipodi.sourceforge.net/DTD/sodipodi-0.dtd" xmlns:svg="http://www.w3.org/2000/svg"
	 xmlns="http://www.w3.org/2000/svg" xmlns:xlink="http://www.w3.org/1999/xlink" x="0px" y="0px" viewBox="0 0 98 87.9"
	 style="enable-background:new 0 0 98 87.9;" xml:space="preserve">
<g transform="translate(0,-952.36218)">
	<path d="M25.7,952.4c-6.6,0-13.2,2.6-18.2,7.9c-10,10.5-10,27.3,0,37.8l39.3,41.3c1.1,1.2,3,1.2,4.2,0.1c0,0,0.1-0.1,0.1-0.1
		c13.1-13.8,26.2-27.5,39.3-41.3c10-10.5,10-27.3,0-37.8c-10-10.5-26.4-10.5-36.4,0l-5.1,5.3l-5.1-5.3
		C38.9,955,32.3,952.4,25.7,952.4z M25.7,958.2c5,0,10,2,13.9,6.1l7.3,7.7c1.1,1.2,3,1.2,4.2,0.1c0,0,0.1-0.1,0.1-0.1l7.2-7.6
		c7.8-8.2,19.9-8.2,27.7,0c7.8,8.2,7.8,21.4,0,29.5c-12.4,13-24.8,26-37.2,39l-37.2-39.1c-7.8-8.2-7.8-21.4,0-29.5
		C15.7,960.3,20.7,958.2,25.7,958.2L25.7,958.2z"/>
</g>
</svg>
