<?xml version="1.0" encoding="utf-8"?>
<!-- Generator: Adobe Illustrator 21.1.0, SVG Export Plug-In . SVG Version: 6.00 Build 0)  -->
<svg version="1.1" id="Layer_1" xmlns="http://www.w3.org/2000/svg" xmlns:xlink="http://www.w3.org/1999/xlink" x="0px" y="0px"
	 viewBox="0 0 24 32" style="enable-background:new 0 0 24 32;" xml:space="preserve">
<path d="M12,0C5.4,0,0,5.4,0,12c0,12.4,11,19.5,11.5,19.8c0.3,0.2,0.7,0.2,1.1,0C13,31.5,24,24.4,24,12C24,5.4,18.6,0,12,0z
	 M12,29.8C9.9,28.2,2,21.8,2,12C2,6.5,6.5,2,12,2s10,4.5,10,10C22,21.8,14.1,28.2,12,29.8z M12,7c-2.8,0-5,2.2-5,5s2.2,5,5,5
	s5-2.2,5-5S14.8,7,12,7z M12,15c-1.7,0-3-1.3-3-3s1.3-3,3-3s3,1.3,3,3S13.7,15,12,15z"/>
</svg>
