<?xml version="1.0" encoding="utf-8"?>
<!-- Generator: Adobe Illustrator 21.1.0, SVG Export Plug-In . SVG Version: 6.00 Build 0)  -->
<svg version="1.1" id="Layer_1" xmlns="http://www.w3.org/2000/svg" xmlns:xlink="http://www.w3.org/1999/xlink" x="0px" y="0px"
	 viewBox="0 0 87.6 57.5" style="enable-background:new 0 0 87.6 57.5;" xml:space="preserve">
<path d="M78.1,0H9.5C4.3,0,0,4.3,0,9.5V48c0,5.2,4.3,9.5,9.5,9.5h68.6c5.2,0,9.5-4.3,9.5-9.5V9.5C87.6,4.3,83.3,0,78.1,0z M9.5,5
	h68.6c2.5,0,4.5,2,4.5,4.5v2.6l-1.1-1.4L43.8,41.6L6.1,10.8L5,12.1V9.5C5,7,7,5,9.5,5z M78.1,52.5H9.5C7,52.5,5,50.5,5,48V16.3
	l38.8,31.8l38.8-31.8V48C82.6,50.5,80.6,52.5,78.1,52.5z"/>
</svg>
