<?xml version="1.0" encoding="utf-8"?>
<!-- Generator: Adobe Illustrator 21.1.0, SVG Export Plug-In . SVG Version: 6.00 Build 0)  -->
<svg version="1.1" id="Layer_1" xmlns="http://www.w3.org/2000/svg" xmlns:xlink="http://www.w3.org/1999/xlink" x="0px" y="0px"
	 viewBox="0 0 47.9 39.2" style="enable-background:new 0 0 47.9 39.2;" xml:space="preserve">
<g>
	<path d="M3,6h29.9c1.7,0,3-1.3,3-3s-1.3-3-3-3H3C1.3,0,0,1.3,0,3S1.3,6,3,6z"/>
	<path d="M32.8,33.2H3c-1.7,0-3,1.3-3,3s1.3,3,3,3h29.9c1.7,0,3-1.3,3-3S34.5,33.2,32.8,33.2z"/>
	<path d="M44.8,16.6H3c-1.7,0-3,1.3-3,3s1.3,3,3,3h41.9c1.7,0,3-1.3,3-3S46.5,16.6,44.8,16.6z"/>
</g>
</svg>
