<?xml version="1.0" encoding="utf-8"?>
<!-- Generator: Adobe Illustrator 21.1.0, SVG Export Plug-In . SVG Version: 6.00 Build 0)  -->
<svg version="1.1" id="Layer_1" xmlns="http://www.w3.org/2000/svg" xmlns:xlink="http://www.w3.org/1999/xlink" x="0px" y="0px"
	 viewBox="0 0 50 85" style="enable-background:new 0 0 50 85;" xml:space="preserve">
<path d="M50,5c0-2.8-2.2-5-5-5H5C2.2,0,0,2.2,0,5v75c0,2.8,2.2,5,5,5h40c2.8,0,5-2.2,5-5V5z M5,4h40c0.6,0,1,0.4,1,1v57H4V5
	C4,4.4,4.4,4,5,4z M45,81H5c-0.6,0-1-0.4-1-1V66h42v14C46,80.6,45.6,81,45,81z"/>
<rect x="20" y="72" width="10" height="4"/>
</svg>
