<?xml version="1.0" encoding="utf-8"?>
<!-- Generator: Adobe Illustrator 21.1.0, SVG Export Plug-In . SVG Version: 6.00 Build 0)  -->
<svg version="1.1" id="Layer_1" xmlns="http://www.w3.org/2000/svg" xmlns:xlink="http://www.w3.org/1999/xlink" x="0px" y="0px"
	 viewBox="0 0 146.3 20.3" style="enable-background:new 0 0 146.3 20.3;" xml:space="preserve">
<style type="text/css">
	.st0{fill:#102344;}
	.st1{fill:#00B2F2;}
</style>
<g id="Layer_2">
</g>
<g id="Layer_3">
</g>
<g>
	<g>
		<path class="st0" d="M9.4,9.8l-5.8-9H0v15.4h3.7v-9l5.8,9H13V0.8H9.4V9.8z M21.9,0.5c-4.7,0-7.1,3-7.1,7v2c0,4,2.4,7,7.1,7
			c4.7,0,7.1-3,7.1-7v-2C28.9,3.5,26.5,0.5,21.9,0.5z M25.1,9.7c0,2.2-1.1,3.7-3.3,3.7c-2.2,0-3.3-1.5-3.3-3.7V7.3
			c0-2.2,1.1-3.7,3.3-3.7c2.2,0,3.3,1.5,3.3,3.7V9.7z M44.2,6.2c0-3.1-2-5.4-5.8-5.4h-7.2v15.4H35v-4.6h2.5l2.6,4.6h4.4L41.3,11
			C43.1,10.1,44.2,8.4,44.2,6.2z M38,8.6h-3V3.8h3c1.6,0,2.4,1,2.4,2.4C40.4,7.7,39.6,8.6,38,8.6z M51.4,6.9c1.6,0,2.3,1,2.4,2.1
			h2.7c-0.1-2.6-2.2-4.5-5.2-4.5c-3.4,0-5.4,2.2-5.4,5.2v1.6c0,3,2,5.2,5.4,5.2c3.1,0,5.1-1.9,5.2-4.5h-2.7C53.7,13,53,14,51.4,14
			c-1.7,0-2.5-1.1-2.5-2.6V9.5C48.9,8,49.7,6.9,51.4,6.9z M63.7,4.5c-2.5,0-4.2,1.2-4.9,3.4h2.8c0.3-0.6,0.9-1.1,2-1.1
			c1.2,0,2,0.8,2,1.8v1.6c-0.5-0.4-1.5-1-2.9-1c-2.7,0-4.6,1.1-4.6,3.6c0,2.2,1.8,3.6,4.3,3.6c1.3,0,2.8-0.5,3.3-1.3v1.1h2.9V8.9
			C68.5,6.2,66.6,4.5,63.7,4.5z M63.1,14.5c-1.3,0-2.2-0.6-2.2-1.7c0-1.1,0.9-1.6,2.3-1.6c1.3,0,2.3,0.6,2.3,1.6
			C65.6,13.7,64.5,14.5,63.1,14.5z M77.5,9.7L74,8.8c-0.6-0.1-0.9-0.4-0.9-1c0-0.8,0.7-1.3,1.9-1.3c1.3,0,1.9,0.6,1.9,1.5v0.2h2.6
			V8.1c0-2.3-1.8-3.7-4.5-3.7c-2.7,0-4.6,1.3-4.6,3.7c0,1.7,0.9,2.6,2.6,3l3.4,0.8c0.7,0.2,0.9,0.5,0.9,1c0,0.9-0.9,1.4-2.2,1.4
			c-1.4,0-2.3-0.6-2.3-1.6v-0.2h-2.6v0.2c0,2.4,2,3.7,4.9,3.7c2.8,0,4.9-1.6,4.9-3.8C80,11,79.2,10.1,77.5,9.7z M83.1,0
			c-1,0-1.7,0.7-1.7,1.7c0,1,0.7,1.7,1.7,1.7c1,0,1.7-0.7,1.7-1.7C84.8,0.7,84.1,0,83.1,0z M81.6,16.2h3V4.7h-3V16.2z M93.5,4.5
			c-1.6,0-2.8,0.6-3.4,1.6V4.7h-2.9v11.4h3V9.4c0-1.5,0.9-2.3,2.2-2.3c1.4,0,2.1,0.9,2.1,2.3v6.8h3V8.8C97.5,6.1,96,4.5,93.5,4.5z
			 M104.9,4.5c-3.4,0-5.4,2.2-5.4,5.2v1.6c0,2.9,2,5.2,5.4,5.2s5.4-2.2,5.4-5.2V9.6C110.3,6.7,108.3,4.5,104.9,4.5z M107.4,11.5
			c0,1.5-0.8,2.6-2.5,2.6c-1.7,0-2.5-1.1-2.5-2.6v-2c0-1.5,0.8-2.6,2.5-2.6c1.7,0,2.5,1.1,2.5,2.6V11.5z"/>
	</g>
</g>
<path class="st1" d="M111.8,14.6c0,1,0.7,1.7,1.7,1.7c1,0,1.7-0.7,1.7-1.7s-0.7-1.7-1.7-1.7C112.5,12.9,111.8,13.6,111.8,14.6z"/>
<path class="st1" d="M122.1,16.4c3.2,0,5-2.2,5-5V9.6c0-2.8-1.8-5-5-5c-3.2,0-5,2.2-5,5v1.8C117.1,14.2,118.9,16.4,122.1,16.4z
	 M125.5,9.6v1.8c0,2.1-1.2,3.7-3.4,3.7c-2.2,0-3.4-1.5-3.4-3.7V9.6c0-2.1,1.2-3.7,3.4-3.7C124.3,6,125.5,7.5,125.5,9.6z"/>
<path class="st1" d="M129.7,16.2h1.7v-5.5c0-2.8,1.4-4.2,3.5-4.2h0.3V4.8H135c-2,0-3.3,0.9-3.7,2.7V4.9h-1.6V16.2z"/>
<path class="st1" d="M141.3,20.3c2.9,0,5-1.8,5-4.1V4.9h-1.6v1.9c-0.5-1-1.7-2.1-3.8-2.1c-3,0-4.6,2-4.6,4.6v1.9
	c0,2.5,1.7,4.6,4.6,4.6c1.9,0,3.4-1.1,3.8-2.1v2.6c0,1.7-1.3,2.8-3.3,2.8c-1.5,0-2.6-0.5-3.2-1.6h-1.6
	C137,19.2,139.1,20.3,141.3,20.3z M141.1,14.3c-2.2,0-3.3-1.3-3.3-3.4V9.4c0-2.2,1.1-3.4,3.3-3.4c1.9,0,3.4,1.6,3.4,3.5v1.5
	C144.6,13.1,143.1,14.3,141.1,14.3z"/>
</svg>
