<?xml version="1.0" encoding="utf-8"?>
<!-- Generator: Adobe Illustrator 21.1.0, SVG Export Plug-In . SVG Version: 6.00 Build 0)  -->
<svg version="1.1" xmlns="http://www.w3.org/2000/svg" xmlns:xlink="http://www.w3.org/1999/xlink" x="0px" y="0px"
	 viewBox="0 0 782 379.8" style="enable-background:new 0 0 782 379.8;" xml:space="preserve">
<style type="text/css">
	.st0{fill-rule:evenodd;clip-rule:evenodd;fill:#645494;}
	.st1{fill-rule:evenodd;clip-rule:evenodd;fill:#412699;}
	.st2{fill-rule:evenodd;clip-rule:evenodd;fill:#271262;}
	.st3{fill-rule:evenodd;clip-rule:evenodd;fill:#270E42;}
	.st4{fill-rule:evenodd;clip-rule:evenodd;fill:#1E022E;}
	.st5{fill-rule:evenodd;clip-rule:evenodd;fill:#FFFFFF;}
	.st6{opacity:0.25;fill-rule:evenodd;clip-rule:evenodd;fill:#645494;}
	.st7{opacity:0.25;fill-rule:evenodd;clip-rule:evenodd;fill:#FFFFFF;}
	.st8{opacity:0.2;fill-rule:evenodd;clip-rule:evenodd;fill:#3966A3;}
	.st9{opacity:0.2;fill-rule:evenodd;clip-rule:evenodd;fill:#29316E;}
	.st10{opacity:0.2;fill-rule:evenodd;clip-rule:evenodd;fill:#0F0F4D;}
	.st11{opacity:0.2;fill-rule:evenodd;clip-rule:evenodd;fill:#FFFFFF;}
	.st12{opacity:0.2;fill-rule:evenodd;clip-rule:evenodd;fill:#68AEFD;}
	.st13{opacity:0.22;}
	.st14{opacity:0.25;fill-rule:evenodd;clip-rule:evenodd;fill:#BFB4F6;}
	.st15{opacity:0.25;fill-rule:evenodd;clip-rule:evenodd;fill:#7F68FD;}
	.st16{opacity:0.25;fill-rule:evenodd;clip-rule:evenodd;fill:#4C39A3;}
	.st17{opacity:0.25;fill-rule:evenodd;clip-rule:evenodd;fill:#45296E;}
	.st18{opacity:0.25;fill-rule:evenodd;clip-rule:evenodd;fill:#300F4D;}
	.st19{opacity:0.25;}
	.st20{fill:#F4AC45;}
	.st21{fill:#CC862B;}
	.st22{fill:#7A2216;}
	.st23{fill:#FFB450;}
	.st24{fill:#EA8E21;}
	.st25{fill:#B7321C;}
	.st26{opacity:0.6;fill:#FFDCBB;}
	.st27{fill:#EFB930;}
	.st28{fill:#FFEB73;}
	.st29{fill:#FFB531;}
	.st30{fill:#EFBDD7;}
	.st31{fill:#FFE9F4;}
	.st32{fill:#F4D9E8;}
	.st33{fill:#FFE07D;}
	.st34{fill:#FFDA88;}
	.st35{fill:#AA3B30;}
	.st36{fill:#FFB266;}
	.st37{fill:#7A0041;}
	.st38{fill:#672899;}
	.st39{fill:#6F7A2E;}
	.st40{fill:#561711;}
	.st41{fill:#D83A25;}
	.st42{fill:#CC8A2B;}
	.st43{fill:#EFAA3A;}
	.st44{fill:#FFE888;}
	.st45{fill:#EA7424;}
	.st46{fill:#FFC84D;}
	.st47{fill:#FFF18A;}
	.st48{fill:#A02C20;}
	.st49{opacity:0.6;}
	.st50{fill:url(#SVGID_1_);}
	.st51{fill:url(#SVGID_2_);}
	.st52{fill:url(#SVGID_3_);}
	.st53{fill:url(#SVGID_4_);}
	.st54{fill:url(#SVGID_5_);}
	.st55{fill:url(#SVGID_6_);}
	.st56{fill-rule:evenodd;clip-rule:evenodd;fill:#2C2462;}
	.st57{fill:url(#hair_1_);}
	.st58{fill:url(#SVGID_7_);}
	.st59{opacity:0.3;fill:#A55311;}
	.st60{opacity:0.2;fill:#FFA383;}
	.st61{opacity:0.61;fill:#FFB273;}
	.st62{opacity:0.4;fill:#FFB273;}
	.st63{fill:url(#axe_1_);}
	.st64{opacity:0.3;fill:#676E7A;}
	.st65{opacity:0.25;fill:#FFFFFF;}
	.st66{opacity:0.5;fill:#FFFFFF;}
	.st67{fill:#A8B5C1;}
	.st68{opacity:0.35;fill:#FFFFFF;}
	.st69{fill:#FFC19F;}
	.st70{opacity:0.8;fill:#FFC19F;}
	.st71{fill:url(#arm_3_);}
	.st72{opacity:0.6;fill:#FFC19F;}
	.st73{fill:url(#SVGID_8_);}
	.st74{fill:url(#SVGID_9_);}
	.st75{fill:url(#SVGID_10_);}
	.st76{fill:url(#pants_2_);}
	.st77{opacity:0.2;fill:#1D280D;}
	.st78{opacity:0.3;fill:#1D280D;}
	.st79{fill:url(#SVGID_11_);}
	.st80{opacity:0.75;fill:#893700;}
	.st81{fill:url(#SVGID_12_);}
	.st82{fill:url(#SVGID_13_);}
	.st83{fill:url(#SVGID_14_);}
	.st84{fill:url(#arm_4_);}
	.st85{fill:url(#SVGID_15_);}
	.st86{fill:url(#SVGID_16_);}
	.st87{fill:url(#SVGID_17_);}
	.st88{fill:url(#shirt_2_);}
	.st89{opacity:0.15;fill:url(#shadow_1_);}
	.st90{fill:url(#belt_3_);}
	.st91{opacity:0.35;}
	.st92{fill:url(#SVGID_18_);}
	.st93{fill:url(#SVGID_19_);}
	.st94{opacity:0.8;}
	.st95{fill:url(#SVGID_20_);}
	.st96{fill:url(#SVGID_21_);}
	.st97{opacity:0.4;fill:url(#SVGID_22_);}
	.st98{fill:url(#SVGID_23_);}
	.st99{opacity:0.6;fill:#FFEB78;}
	.st100{opacity:0.75;fill:#FFEB78;}
	.st101{fill:url(#SVGID_24_);}
	.st102{fill:url(#SVGID_25_);}
	.st103{fill:url(#SVGID_26_);}
	.st104{opacity:0.4;fill:#BF1604;}
	.st105{fill:#541918;}
	.st106{fill:#9B071C;}
	.st107{fill:#FFFFFF;}
	.st108{fill:#FF2B15;}
	.st109{fill:url(#SVGID_27_);}
	.st110{fill:#A55311;}
	.st111{fill:#471A08;}
	.st112{fill:#FCC79A;}
	.st113{opacity:0.69;fill:#FFD3AB;}
	.st114{fill:url(#SVGID_28_);}
	.st115{fill:url(#SVGID_29_);}
	.st116{fill:url(#SVGID_30_);}
	.st117{opacity:0.25;fill:url(#SVGID_31_);}
	.st118{opacity:0.25;fill:#FC8460;}
	.st119{fill:url(#SVGID_32_);}
	.st120{opacity:0.3;fill:url(#SVGID_33_);}
</style>
<g id="Layer_3">
	<path class="st0" d="M325.4,342.3l44.4-147.6c2.8-9.3,9.9-9.4,12.7,0c2.8,9.4,10,9.2,12.7,0L450.9,9.3c3.8-12.6,16.8-12.3,20.5,0
		l31.2,103.9c2.3,7.8,9.1,7.9,11.4,0c3.7-12.3,13.7-12.5,17.4,0l68.9,229.1C508.7,342.3,417,342.3,325.4,342.3L325.4,342.3z"/>
	<path class="st1" d="M459.8,0.1c6.9,1.9,11.4,8.5,10.6,19.3l-8.7,116.2c-0.7,9,1.4,20,6.4,28l38.3,61.2c6.3,9.8,7.1,27.3,2.8,39.6
		l-27,77.9h118.1l-68.9-229.1c-3.7-12.5-13.7-12.3-17.4,0c-2.4,7.9-9.1,7.8-11.4,0L471.4,9.3C469.3,2.5,464.4-0.6,459.8,0.1
		L459.8,0.1z"/>
	<polygon class="st2" points="507.4,342.3 455.2,342.3 471.3,307.6 462.5,311.8 476.8,271.7 472.5,274.4 482.3,242.4 492.6,276.2 
		488.6,271.7 500.7,311.6 492.6,307.6 507.4,342.3 	"/>
	<polygon class="st2" points="577,342.3 501.6,342.3 516.3,310.6 508.2,314.5 521.3,277.8 517.4,280.3 526.4,251.1 535.7,282 
		532.1,277.8 537,294.1 546.2,265.1 542.5,266.3 552.2,230.4 562.4,268.3 558.9,265 570.4,307.9 563,305.1 577,342.3 	"/>
	<polygon class="st2" points="435.2,342.3 371.4,342.3 391.1,299.9 380.3,305 397.8,255.9 392.5,259.3 404.5,220.2 417.1,261.5 
		412.2,255.9 427,304.8 417.1,299.9 435.2,342.3 	"/>
	<path class="st0" d="M357.6,38.1c-13.6,0-24.5,11-24.5,24.5c0,13.6,11,24.5,24.5,24.5c13.6,0,24.5-11,24.5-24.5
		C382.1,49.1,371.2,38.1,357.6,38.1L357.6,38.1z"/>
	<polygon class="st3" points="600.3,342.3 647.9,342.3 633.2,310.6 641.3,314.5 628.2,277.8 632.2,280.3 623.2,251.1 613.8,282 
		617.4,277.8 606.4,314.3 613.8,310.6 600.3,342.3 	"/>
	<polygon class="st2" points="398.1,342.3 350.4,342.3 365.1,310.6 357.1,314.5 370.2,277.8 366.2,280.3 375.2,251.1 384.5,282 
		380.9,277.8 392,314.3 384.5,310.6 398.1,342.3 	"/>
	<polygon class="st3" points="295.9,342.3 343.5,342.3 328.8,310.6 336.8,314.5 323.8,277.8 327.7,280.3 318.7,251.1 309.4,282 
		313,277.8 301.9,314.3 309.4,310.6 295.9,342.3 	"/>
	<polygon class="st4" points="328.3,342.3 343.5,342.3 328.8,310.6 336.8,314.5 323.8,277.8 327.7,280.3 318.7,251.1 322.7,277.2 
		320.9,276 327.4,309.9 323.1,307.9 328.3,342.3 	"/>
	<path class="st4" d="M675.3,342.3H250.4c-1.8,0-3.3,1.5-3.3,3.3v3.8c0,1.8,1.5,3.3,3.3,3.3h424.9c1.8,0,3.3-1.5,3.3-3.3v-3.8
		C678.6,343.8,677.1,342.3,675.3,342.3L675.3,342.3z"/>
	<path class="st5" d="M357.6,38.1c-0.2,0-0.4,0-0.6,0c6.5,3.4,10.9,10.1,10.9,18c0,11.2-9,20.2-20.2,20.2c-4.9,0-9.5-1.8-13-4.7
		c3.6,9.1,12.5,15.6,22.9,15.6c13.6,0,24.5-11,24.5-24.5C382.1,49.1,371.2,38.1,357.6,38.1L357.6,38.1z"/>
	<polygon class="st4" points="632.7,342.3 647.9,342.3 633.2,310.6 641.3,314.5 628.2,277.8 632.2,280.3 623.2,251.1 627.2,277.2 
		625.3,276 631.8,309.9 627.5,307.9 632.7,342.3 	"/>
	<polygon class="st3" points="270.1,342.3 321.6,342.3 306.5,305.2 314.5,308.2 300.9,265.1 304.6,266.3 294.9,230.4 284.7,268.3 
		288.1,265 276.6,307.9 284.1,305.1 270.1,342.3 	"/>
	<polygon class="st4" points="305.4,342.3 321.6,342.3 306.5,305.2 314.5,308.2 300.9,265.1 304.6,266.3 294.9,230.4 300,264.8 
		297.6,264.1 304.2,304.3 300.1,302.8 305.4,342.3 	"/>
	<path class="st3" d="M419.4,138.9l6.4-9.7v-15.9l4.2,6.7v3.9l5.3,14.5l0.9,9l-6.2-3.1v5.1l17.8,22.6l-3.9,7.8l-13.9-4.7v1.5
		l29.6,30.5l3.7,18.6L430,215.5v3.7l35.2,20.7l-6.5,15.9l-28.7-8.5v95.1h-4.2v-94.1l-31.2,9.2l-7.4-13.8l38.6-23.5v-3.4l-23.4,7.4
		l-7.2-11.8l30.5-32.1v-4.7l-15,5.2l2-12.3c4.3-5.4,8.7-10.8,13-16.2v-8.3l-4.6,0.6L419.4,138.9L419.4,138.9z"/>
	<polygon class="st4" points="430,141.6 430,123.8 435.2,138.4 436.1,147.4 430,144.3 430,149.4 447.8,172 443.9,179.8 430,175.1 
		430,176.6 459.6,207.1 463.3,225.7 430,215.5 430,219.1 465.1,239.9 458.7,255.8 430,247.3 430,290.9 425.8,292.4 425.8,248.2 
		407.9,253.5 409.8,248.3 426.1,236.8 428.7,218.4 425.8,220.2 425.8,216.8 414.1,220.5 426.1,204.1 432.3,206.9 428.4,177.6 
		425.8,180.3 425.8,175.6 420,177.6 431.8,166.4 429.1,148.3 425.8,152.4 425.8,144.1 421.1,144.7 430,141.6 	"/>
	<polygon class="st1" points="418.1,188.4 395.2,212.4 400.9,215.5 418.1,191.9 418.1,188.4 	"/>
	<polygon class="st1" points="402.6,234.3 387.1,243.7 390.8,250.6 405.9,237.5 402.6,234.3 	"/>
	<polygon class="st1" points="423.3,155.5 412.8,168.5 416.4,171.2 424.1,159 423.3,155.5 	"/>
	<path class="st5" d="M527.9,293.7"/>
	<line class="st5" x1="527.9" y1="292" x2="527.9" y2="292"/>
	<path class="st3" d="M553.2,282.4l31.7-21.7v-3.1l-19.2,6.8l-5.9-10.9l25.1-29.6v-4.4l-12.3,4.8l1.7-11.3c3.5-5,7.1-9.9,10.6-14.9
		v-20.4l4.6-6.5l3.2,18l-3.2,4.2v3.4l13.5,19.3l-3.2,7.2l-10.3-3.9v2.3c7.7,9,15.5,17.9,23.2,26.9l3,17.2l-26.3-9.1v3.7l27.8,18.4
		l-1.3,16l-26.5-8.8v56.3H585v-55.7l-25.6,8.5L553.2,282.4L553.2,282.4z"/>
	<polygon class="st1" points="585,198 574.3,212.9 573.6,217.8 584.4,208.1 585,198 	"/>
	<path class="st4" d="M587.4,259l-2.5,1.7v-3.1l-14.9,5.3l15.2-15.1l4.3,1.7l-1.4-29.4l-3.2,3.8v-4.4l-4.4,1.7l9-8.7l0-15.6
		l13.5,19.3l-3.2,7.2l-10.3-3.9v2.3c7.7,9,15.5,17.9,23.2,26.9l3,17.2l-26.3-9.1v3.7l27.8,18.4l-1.3,16l-26.5-8.8l0,28.4l-4.6-2.8
		v-25l-25.6,8.5l26.5-22.3L587.4,259L587.4,259z"/>
	<polygon class="st1" points="574.6,236.1 559.9,253.4 562.7,255 578.1,243.7 574.6,236.1 	"/>
	<path d="M335.5,342.3v-10.1c0-0.7-0.6-1.3-1.3-1.3h-1.6c-0.7,0-1.3,0.6-1.3,1.3c0,0.7,0.6,1.3,1.3,1.3h0.4v8.8H335.5L335.5,342.3z"
		/>
	<path class="st3" d="M396.3,251.1l-31.7-21.7v-3.1l19.2,6.8l5.9-10.9l-25.1-29.6v-4.4l12.3,4.8l-1.7-11.3c-3.5-5-7.1-9.9-10.6-14.9
		v-20.4l-4.6-6.5l-3.2,18l3.2,4.2v3.4l-13.5,19.3l3.2,7.2l10.3-3.9v2.3c-7.7,9-15.5,17.9-23.2,26.9l-3,17.2l26.3-9.1v3.7l-27.8,18.4
		l1.3,16l26.5-8.8v87.5h4.6v-87l25.6,8.5L396.3,251.1L396.3,251.1z"/>
	<path class="st4" d="M396.3,251.1l-31.7-21.7v-3.1l19.2,6.8l5.9-10.9l-25.1-29.6v-4.4l12.3,4.8l-1.7-11.3c-3.5-5-7.1-9.9-10.6-14.9
		V177l-7.5,12.2l2.8-1.1v2.3l1.4-1.6l3.2,28.6l-13.1,7.1l-2.4,4.7l10.9-3.8v3.7l2.2-1.4l-2.2,16.7L342,260.8l17.9-6v25.4l4.6,2
		v-26.9l25.6,8.5L396.3,251.1L396.3,251.1z"/>
	<path class="st6" d="M576.3,47.5c-2.5,0-4.6,2.1-4.6,4.6c0,2.5,2.1,4.6,4.6,4.6c2.5,0,4.6-2.1,4.6-4.6
		C580.9,49.5,578.8,47.5,576.3,47.5L576.3,47.5z"/>
	<path class="st6" d="M544.4,71.6c-1.4,0-2.6,1.2-2.6,2.6c0,1.4,1.2,2.6,2.6,2.6c1.4,0,2.6-1.2,2.6-2.6
		C547,72.8,545.8,71.6,544.4,71.6L544.4,71.6z"/>
	<path class="st6" d="M382.5,7.2c-2.5,0-4.6,2.1-4.6,4.6c0,2.5,2.1,4.6,4.6,4.6c2.5,0,4.6-2.1,4.6-4.6
		C387.1,9.3,385.1,7.2,382.5,7.2L382.5,7.2z"/>
	<path class="st6" d="M531.9,23.8c-1.9,0-3.4,1.5-3.4,3.4c0,1.9,1.5,3.4,3.4,3.4c1.9,0,3.4-1.5,3.4-3.4
		C535.3,25.3,533.8,23.8,531.9,23.8L531.9,23.8z"/>
	<path class="st7" d="M316.1,27.1c-1.4,0-2.6,1.2-2.6,2.6c0,1.4,1.2,2.6,2.6,2.6c1.4,0,2.6-1.2,2.6-2.6
		C318.7,28.3,317.6,27.1,316.1,27.1L316.1,27.1z"/>
	<path class="st7" d="M604.3,12.3c-1.4,0-2.6,1.2-2.6,2.6c0,1.4,1.2,2.6,2.6,2.6c1.4,0,2.6-1.2,2.6-2.6
		C606.9,13.5,605.8,12.3,604.3,12.3L604.3,12.3z"/>
	<path class="st6" d="M620.7,59.3c-1.9,0-3.4,1.5-3.4,3.4c0,1.9,1.5,3.4,3.4,3.4c1.9,0,3.4-1.5,3.4-3.4
		C624.1,60.8,622.6,59.3,620.7,59.3L620.7,59.3z"/>
	<path class="st6" d="M297.5,76.8c-1.4,0-2.6,1.2-2.6,2.6c0,1.4,1.2,2.6,2.6,2.6c1.4,0,2.6-1.2,2.6-2.6
		C300.1,77.9,298.9,76.8,297.5,76.8L297.5,76.8z"/>
	<path class="st7" d="M515.6,52.6c-1.4,0-2.6,1.2-2.6,2.6c0,1.4,1.2,2.6,2.6,2.6c1.4,0,2.6-1.2,2.6-2.6
		C518.2,53.8,517,52.6,515.6,52.6L515.6,52.6z"/>
	<path class="st0" d="M416.7,35.7c-1.4,0-2.6,1.2-2.6,2.6c0,1.4,1.2,2.6,2.6,2.6c1.4,0,2.6-1.2,2.6-2.6
		C419.3,36.8,418.1,35.7,416.7,35.7L416.7,35.7z"/>
</g>
<g id="Layer_5">
	<polygon class="st8" points="258.1,340 335.1,340 311.4,288.6 324.4,294.9 303.3,235.6 309.7,239.7 295.1,192.4 280,242.3 
		285.8,235.6 267.9,294.6 280,288.6 258.1,340 	"/>
	<polygon class="st8" points="155.3,340 266.6,340 244.9,293.1 256.8,298.8 237.5,244.7 243.4,248.4 230.1,205.2 216.3,250.8 
		221.6,244.7 214.3,268.7 200.8,225.9 206.3,227.6 191.9,174.7 176.9,230.6 182,225.8 165,289.2 176,285 155.3,340 	"/>
	<polygon class="st9" points="120.9,340 50.6,340 72.3,293.1 60.4,298.8 79.7,244.7 73.8,248.4 87.1,205.2 101,250.8 95.6,244.7 
		111.9,298.5 101,293.1 120.9,340 	"/>
	<polygon class="st10" points="73,340 50.6,340 72.3,293.1 60.4,298.8 79.7,244.7 73.8,248.4 87.1,205.2 81.2,243.7 83.9,242 
		74.3,292.1 80.7,289.1 73,340 	"/>
	<path class="st11" d="M227.8,268.2"/>
	<line class="st11" x1="227.8" y1="265.7" x2="227.8" y2="265.7"/>
	<path class="st9" d="M190.4,251.4l-46.9-32.1v-4.6l28.3,10.1l8.7-16.2l-37-43.8v-6.4l18.2,7l-2.4-16.7c-5.2-7.3-10.5-14.7-15.7-22
		V96.7l-6.8-9.6l-4.7,26.6l4.7,6.2v5l-19.9,28.5l4.7,10.6l15.2-5.8v3.3c-11.4,13.2-22.9,26.4-34.3,39.7l-4.5,25.4l38.8-13.4v5.5
		l-41,27.2l1.9,23.7l39.1-13V340h6.8v-82.3l37.9,12.6L190.4,251.4L190.4,251.4z"/>
	<polygon class="st12" points="143.5,126.8 159.3,148.8 160.3,156 144.4,141.8 143.5,126.8 	"/>
	<path class="st10" d="M139.9,216.9l3.6,2.5v-4.6l22,7.8L143,200.3l-6.3,2.4l2.1-43.4l4.7,5.6v-6.4l6.5,2.5l-13.3-12.9l0-23.1
		l-19.9,28.5l4.7,10.6l15.2-5.8v3.3c-11.4,13.2-22.9,26.4-34.3,39.7l-4.5,25.4l38.8-13.4v5.5l-41,27.2l1.9,23.7l39.1-13l0,41.9
		l6.8-4.2v-36.9l37.9,12.6l-39.2-33L139.9,216.9L139.9,216.9z"/>
	<polygon class="st12" points="158.8,183 180.5,208.7 176.4,211 153.7,194.4 158.8,183 	"/>
</g>
<g id="Layer_6" class="st13">
	<path class="st14" d="M549.7,347.1l24.2-80.4c1.5-5,5.4-5.1,6.9,0c1.5,5.1,5.4,5,6.9,0l30.3-100.9c2.1-6.9,9.2-6.7,11.2,0l17,56.6
		c1.3,4.3,4.9,4.3,6.2,0c2-6.7,7.5-6.8,9.5,0l37.5,124.8C649.5,347.1,599.6,347.1,549.7,347.1L549.7,347.1z"/>
	<path class="st15" d="M622.9,160.7c3.7,1,6.2,4.6,5.7,10.5l-4.7,63.3c-0.4,4.9,0.8,10.9,3.5,15.2l20.9,33.3
		c3.4,5.4,3.9,14.9,1.6,21.6l-14.7,42.4h64.3l-37.5-124.8c-2-6.8-7.5-6.7-9.5,0c-1.3,4.3-5,4.3-6.2,0l-17-56.6
		C628.1,162,625.4,160.3,622.9,160.7L622.9,160.7z"/>
	<polygon class="st16" points="648.8,347.1 620.4,347.1 629.2,328.2 624.4,330.5 632.2,308.6 629.8,310.1 635.2,292.7 640.8,311.1 
		638.6,308.6 645.2,330.4 640.8,328.2 648.8,347.1 	"/>
	<polygon class="st16" points="686.8,347.1 645.7,347.1 653.7,329.8 649.3,331.9 656.4,312 654.3,313.3 659.2,297.4 664.3,314.2 
		662.3,312 665,320.8 670,305 668,305.7 673.3,286.2 678.8,306.8 676.9,305 683.2,328.4 679.1,326.8 686.8,347.1 	"/>
	<polygon class="st16" points="609.5,347.1 574.8,347.1 585.5,324 579.6,326.8 589.2,300 586.3,301.9 592.8,280.6 599.7,303.1 
		597,300 605.1,326.6 599.7,324 609.5,347.1 	"/>
	<path class="st14" d="M567.3,181.4c-7.4,0-13.4,6-13.4,13.4c0,7.4,6,13.4,13.4,13.4c7.4,0,13.4-6,13.4-13.4
		C580.6,187.4,574.7,181.4,567.3,181.4L567.3,181.4z"/>
	<polygon class="st17" points="699.4,347.1 725.4,347.1 717.4,329.8 721.8,331.9 714.6,312 716.8,313.3 711.9,297.4 706.8,314.2 
		708.8,312 702.7,331.8 706.8,329.8 699.4,347.1 	"/>
	<polygon class="st16" points="589.3,347.1 563.4,347.1 571.4,329.8 567,331.9 574.1,312 571.9,313.3 576.8,297.4 581.9,314.2 
		580,312 586,331.8 581.9,329.8 589.3,347.1 	"/>
	<polygon class="st17" points="533.6,347.1 559.6,347.1 551.6,329.8 556,331.9 548.8,312 551,313.3 546.1,297.4 541,314.2 543,312 
		537,331.8 541,329.8 533.6,347.1 	"/>
	<polygon class="st18" points="551.3,347.1 559.6,347.1 551.6,329.8 556,331.9 548.8,312 551,313.3 546.1,297.4 548.3,311.6 
		547.3,311 550.8,329.5 548.5,328.3 551.3,347.1 	"/>
	<path class="st18" d="M740.3,347.1H508.9c-1,0-1.8,0.8-1.8,1.8v2c0,1,0.8,1.8,1.8,1.8h231.4c1,0,1.8-0.8,1.8-1.8v-2
		C742.1,347.9,741.3,347.1,740.3,347.1L740.3,347.1z"/>
	<path class="st7" d="M567.3,181.4c-0.1,0-0.2,0-0.3,0c3.5,1.8,6,5.5,6,9.8c0,6.1-4.9,11-11,11c-2.7,0-5.2-1-7.1-2.6
		c1.9,5,6.8,8.5,12.5,8.5c7.4,0,13.4-6,13.4-13.4C580.6,187.4,574.7,181.4,567.3,181.4L567.3,181.4z"/>
	<polygon class="st18" points="717.1,347.1 725.4,347.1 717.4,329.8 721.8,331.9 714.6,312 716.8,313.3 711.9,297.4 714.1,311.6 
		713.1,311 716.6,329.5 714.3,328.3 717.1,347.1 	"/>
	<polygon class="st17" points="519.6,347.1 547.7,347.1 539.4,326.9 543.8,328.5 536.4,305 538.4,305.7 533.1,286.2 527.6,306.8 
		529.4,305 523.2,328.4 527.2,326.8 519.6,347.1 	"/>
	<polygon class="st18" points="538.9,347.1 547.7,347.1 539.4,326.9 543.8,328.5 536.4,305 538.4,305.7 533.1,286.2 535.9,304.9 
		534.6,304.5 538.2,326.4 536,325.6 538.9,347.1 	"/>
	<path class="st17" d="M600.9,236.3l3.5-5.3v-8.7l2.3,3.6v2.1l2.9,7.9l0.5,4.9l-3.4-1.7v2.8l9.7,12.3l-2.1,4.2l-7.6-2.6v0.8
		l16.1,16.6l2,10.1l-18.1-5.6v2l19.1,11.3l-3.5,8.7l-15.6-4.6v51.8h-2.3v-51.3l-17,5l-4-7.5l21-12.8v-1.8l-12.7,4l-3.9-6.4
		l16.6-17.5v-2.6l-8.2,2.8l1.1-6.7c2.4-2.9,4.7-5.9,7.1-8.8v-4.5l-2.5,0.3L600.9,236.3L600.9,236.3z"/>
	<polygon class="st18" points="606.7,237.8 606.7,228.1 609.6,236 610,240.9 606.7,239.2 606.7,242 616.4,254.3 614.3,258.6 
		606.7,256 606.7,256.8 622.8,273.4 624.8,283.6 606.7,278 606.7,280 625.8,291.3 622.3,299.9 606.7,295.3 606.7,319.1 604.4,319.9 
		604.4,295.8 594.7,298.7 595.7,295.9 604.6,289.6 606,279.6 604.4,280.6 604.4,278.7 598,280.8 604.6,271.8 608,273.3 605.8,257.4 
		604.4,258.9 604.4,256.3 601.3,257.4 607.7,251.3 606.2,241.4 604.4,243.6 604.4,239.1 601.9,239.5 606.7,237.8 	"/>
	<polygon class="st15" points="600.2,263.2 587.8,276.3 590.8,278 600.2,265.2 600.2,263.2 	"/>
	<polygon class="st15" points="591.8,288.2 583.4,293.4 585.4,297.1 593.6,290 591.8,288.2 	"/>
	<polygon class="st15" points="603,245.3 597.3,252.4 599.3,253.9 603.5,247.3 603,245.3 	"/>
	<path class="st7" d="M660,320.6"/>
	<line class="st7" x1="660" y1="319.7" x2="660" y2="319.7"/>
	<path class="st17" d="M673.8,314.5l17.3-11.8v-1.7l-10.4,3.7l-3.2-6l13.6-16.1v-2.4l-6.7,2.6l0.9-6.2c1.9-2.7,3.9-5.4,5.8-8.1
		v-11.1l2.5-3.5l1.7,9.8l-1.7,2.3v1.9l7.4,10.5l-1.7,3.9l-5.6-2.1v1.2c4.2,4.9,8.4,9.7,12.6,14.6l1.7,9.4l-14.3-4.9v2l15.1,10
		l-0.7,8.7l-14.4-4.8v30.6h-2.5v-30.4l-14,4.6L673.8,314.5L673.8,314.5z"/>
	<polygon class="st15" points="691.1,268.5 685.3,276.6 684.9,279.3 690.8,274 691.1,268.5 	"/>
	<path class="st18" d="M692.4,301.7l-1.3,0.9v-1.7l-8.1,2.9l8.3-8.2l2.3,0.9l-0.8-16l-1.7,2.1v-2.4l-2.4,0.9l4.9-4.7l0-8.5l7.4,10.5
		l-1.7,3.9l-5.6-2.1v1.2c4.2,4.9,8.4,9.7,12.6,14.6l1.7,9.4l-14.3-4.9v2l15.1,10l-0.7,8.7l-14.4-4.8l0,15.5l-2.5-1.6v-13.6l-14,4.6
		l14.4-12.2L692.4,301.7L692.4,301.7z"/>
	<polygon class="st15" points="685.5,289.2 677.4,298.7 679,299.5 687.4,293.4 685.5,289.2 	"/>
	<path class="st19" d="M555.2,347.1v-5.5c0-0.4-0.3-0.7-0.7-0.7h-0.9c-0.4,0-0.7,0.3-0.7,0.7c0,0.4,0.3,0.7,0.7,0.7h0.2v4.8H555.2
		L555.2,347.1z"/>
	<path class="st17" d="M588.3,297.4l-17.3-11.8v-1.7l10.4,3.7l3.2-6l-13.6-16.1v-2.4l6.7,2.6l-0.9-6.2c-1.9-2.7-3.9-5.4-5.8-8.1
		v-11.1l-2.5-3.5l-1.7,9.8l1.7,2.3v1.9l-7.4,10.5l1.7,3.9l5.6-2.1v1.2c-4.2,4.9-8.4,9.8-12.6,14.6l-1.7,9.4l14.3-4.9v2l-15.1,10
		l0.7,8.7l14.4-4.8v47.7h2.5v-47.4l14,4.6L588.3,297.4L588.3,297.4z"/>
	<path class="st18" d="M588.3,297.4l-17.3-11.8v-1.7l10.4,3.7l3.2-6l-13.6-16.1v-2.4l6.7,2.6l-0.9-6.2c-1.9-2.7-3.9-5.4-5.8-8.1v5.6
		l-4.1,6.6l1.5-0.6v1.2l0.8-0.9l1.7,15.6l-7.2,3.9l-1.3,2.5l6-2.1v2l1.2-0.8l-1.2,9.1l-9.7,8.9l9.7-3.2v13.9l2.5,1.1v-14.6l14,4.6
		L588.3,297.4L588.3,297.4z"/>
	<path class="st14" d="M686.4,186.5c-1.4,0-2.5,1.1-2.5,2.5c0,1.4,1.1,2.5,2.5,2.5c1.4,0,2.5-1.1,2.5-2.5
		C688.9,187.6,687.8,186.5,686.4,186.5L686.4,186.5z"/>
	<path class="st14" d="M669,199.7c-0.8,0-1.4,0.6-1.4,1.4c0,0.8,0.6,1.4,1.4,1.4c0.8,0,1.4-0.6,1.4-1.4
		C670.4,200.3,669.8,199.7,669,199.7L669,199.7z"/>
	<path class="st14" d="M580.8,164.6c-1.4,0-2.5,1.1-2.5,2.5c0,1.4,1.1,2.5,2.5,2.5c1.4,0,2.5-1.1,2.5-2.5
		C583.4,165.7,582.2,164.6,580.8,164.6L580.8,164.6z"/>
	<path class="st14" d="M662.2,173.6c-1,0-1.8,0.8-1.8,1.8c0,1,0.8,1.8,1.8,1.8c1,0,1.8-0.8,1.8-1.8
		C664,174.4,663.2,173.6,662.2,173.6L662.2,173.6z"/>
	<path class="st7" d="M544.7,175.4c-0.8,0-1.4,0.6-1.4,1.4c0,0.8,0.6,1.4,1.4,1.4s1.4-0.6,1.4-1.4
		C546.1,176,545.5,175.4,544.7,175.4L544.7,175.4z"/>
	<path class="st7" d="M701.6,167.4c-0.8,0-1.4,0.6-1.4,1.4c0,0.8,0.6,1.4,1.4,1.4c0.8,0,1.4-0.6,1.4-1.4
		C703.1,168,702.4,167.4,701.6,167.4L701.6,167.4z"/>
	<path class="st14" d="M710.6,193c-1,0-1.8,0.8-1.8,1.8c0,1,0.8,1.8,1.8,1.8c1,0,1.8-0.8,1.8-1.8C712.4,193.8,711.6,193,710.6,193
		L710.6,193z"/>
	<path class="st14" d="M534.5,202.5c-0.8,0-1.4,0.6-1.4,1.4c0,0.8,0.6,1.4,1.4,1.4c0.8,0,1.4-0.6,1.4-1.4
		C535.9,203.1,535.3,202.5,534.5,202.5L534.5,202.5z"/>
	<path class="st7" d="M653.3,189.3c-0.8,0-1.4,0.6-1.4,1.4c0,0.8,0.6,1.4,1.4,1.4c0.8,0,1.4-0.6,1.4-1.4
		C654.7,190,654.1,189.3,653.3,189.3L653.3,189.3z"/>
	<path class="st14" d="M599.5,180.1c-0.8,0-1.4,0.6-1.4,1.4c0,0.8,0.6,1.4,1.4,1.4c0.8,0,1.4-0.6,1.4-1.4
		C600.9,180.7,600.2,180.1,599.5,180.1L599.5,180.1z"/>
</g>
<g id="Layer_4">
	<g>
		<g>
			
				<rect x="110.1" y="273.9" transform="matrix(0.9777 -0.2102 0.2102 0.9777 -56.9479 29.5671)" class="st20" width="1" height="17.4"/>
			
				<rect x="111.3" y="285.6" transform="matrix(0.9778 -0.2095 0.2095 0.9778 -57.9319 29.8241)" class="st21" width="1" height="5.6"/>
			<polygon class="st20" points="114.4,288.1 109.7,288 110.2,293.5 114.6,292.5 			"/>
			
				<rect x="107" y="265.3" transform="matrix(0.9778 -0.2096 0.2096 0.9778 -54.5659 28.7581)" class="st22" width="2.8" height="13"/>
			
				<rect x="114" y="281.4" transform="matrix(0.994 -0.1097 0.1097 0.994 -31.1278 14.4292)" class="st20" width="3.3" height="17.7"/>
			<polygon class="st21" points="113.6,288.1 112.9,288 113.1,292.7 115.2,292.7 			"/>
			<polygon class="st21" points="117.4,281.1 114.2,281.4 115,299 119.5,299.4 			"/>
			<polygon class="st23" points="116.2,326.9 62.9,352.9 215.7,352.9 167.9,326.8 			"/>
			<polygon class="st24" points="118.4,329.2 109.9,350.7 178.4,351.5 165.2,329.3 			"/>
			<polygon class="st25" points="172.9,240.6 111.3,246 119.7,328.1 164.4,328.1 			"/>
			<polygon class="st26" points="170.6,243.8 113.5,248.6 120.4,321.8 163.4,323.3 			"/>
			<polygon class="st26" points="164.7,294.3 119.4,294.7 121.9,320.3 160.9,321.6 			"/>
			<polygon class="st25" points="164.7,236.2 115.9,241.3 117.7,247 164.7,244.3 			"/>
			<polygon class="st27" points="162.2,238.3 118.8,243.1 121.3,253.4 162.1,249.9 			"/>
			<polygon class="st28" points="157,238.8 135.8,241.3 127.6,252.9 145.7,251.4 			"/>
			<polygon class="st29" points="168.5,250.9 115.2,255.8 119.2,292.9 165.3,293.2 			"/>
			<polygon class="st22" points="167.4,251.8 115.7,256.4 120.2,292 164.3,292.3 			"/>
			<polygon class="st30" points="165.8,254 117.6,258.1 121.7,290.6 162.6,290.6 			"/>
			<polygon class="st31" points="164.3,258.2 119.1,262.5 122,285.9 161.6,287.8 			"/>
			<polygon class="st32" points="162.6,275.4 120.8,276.8 122,285.9 161.6,287.8 			"/>
			<polygon class="st22" points="133.1,255.8 132.3,255.8 134,291.3 134.7,291.3 			"/>
			<polygon class="st22" points="151.1,254.3 150.3,254.3 149.8,291.4 150.6,291.4 			"/>
			<polygon class="st22" points="165.8,324.9 118.4,324.7 118.7,328.5 165.3,328.5 			"/>
			<polygon class="st25" points="159.4,241 121.5,244.8 123.1,252.3 159.3,249.4 			"/>
			<polygon class="st29" points="122.5,292.7 123.7,303.8 160.5,304.4 161.6,292.7 			"/>
			<polygon class="st33" points="143.7,292.8 126.4,303.8 145.7,304.2 157.7,293.1 			"/>
			<ellipse class="st34" cx="118.8" cy="243.1" rx="1.1" ry="1"/>
			<ellipse class="st34" cx="124.6" cy="242.2" rx="1.1" ry="1"/>
			<ellipse class="st34" cx="120.1" cy="248.1" rx="1.1" ry="1"/>
			<ellipse class="st34" cx="121.2" cy="252.8" rx="1.1" ry="1"/>
			<ellipse class="st34" cx="130.5" cy="241.7" rx="1.1" ry="1"/>
			<ellipse class="st34" cx="136.4" cy="240.9" rx="1.1" ry="1"/>
			<ellipse class="st34" cx="143.4" cy="240.4" rx="1.1" ry="1"/>
			<ellipse class="st34" cx="150" cy="239.9" rx="1.1" ry="1"/>
			<ellipse class="st34" cx="156.4" cy="239.1" rx="1.1" ry="1"/>
			<ellipse class="st34" cx="162.6" cy="238.3" rx="1.1" ry="1"/>
			<ellipse class="st34" cx="162.2" cy="243.7" rx="1.1" ry="1"/>
			<ellipse class="st34" cx="162.3" cy="249.7" rx="1.1" ry="1"/>
			<polygon class="st35" points="108.4,265.2 105.7,265.8 109.2,276.7 110.1,276.1 			"/>
			<polygon class="st29" points="163.3,305.9 152.3,306.6 152,311.2 161.7,312.2 			"/>
			<polygon class="st36" points="128.5,305.1 123.7,305.6 124,311.8 128.8,311.4 			"/>
			<polygon class="st33" points="128.2,306 124.3,306.2 124.4,311 128.3,309.2 			"/>
			<polygon class="st22" points="126.8,306.3 125.5,306.5 125.7,310.7 127,310.5 			"/>
			<g>
				<path class="st37" d="M127.7,277.8l-2.6,0.2c0-0.2-0.1-0.4-0.1-0.6c0-0.2,0-0.4,0-0.6c-0.1-0.9,0-1.8,0.2-2.6
					c0.2-0.8,0.5-1.4,1-2.1c0.6-0.7,1-1.3,1.4-1.7c0.3-0.4,0.6-0.7,0.7-0.8c-0.4,0.2-0.8,0.3-1.2,0.3c-0.2,0-0.3,0-0.5,0
					c-0.2,0-0.3-0.1-0.5-0.1c-0.2,0-0.3-0.1-0.5-0.1c-0.2,0-0.3,0-0.5,0c-0.2,0-0.3,0-0.4,0.1c-0.1,0-0.3,0.1-0.4,0.2
					c-0.1,0.1-0.3,0.2-0.5,0.4c-0.2,0.2-0.4,0.5-0.6,0.8l-0.4-0.3c0.1-0.2,0.2-0.5,0.3-0.8c0.1-0.3,0.3-0.7,0.5-1
					c0.2-0.3,0.5-0.6,0.8-0.9c0.3-0.3,0.8-0.4,1.3-0.4c0.3,0,0.6,0,0.8,0c0.3,0,0.5,0.1,0.8,0.1c0.2,0,0.5,0.1,0.7,0.1
					c0.2,0,0.5,0,0.7,0c0.2,0,0.4-0.1,0.6-0.2c0.2-0.1,0.4-0.3,0.5-0.5l0.6,0.5c-2.6,2.9-3.8,5.6-3.6,8.1c0,0.6,0.1,1,0.2,1.2
					c0.1,0.3,0.3,0.4,0.6,0.4L127.7,277.8z"/>
			</g>
			<g>
				<path class="st38" d="M143,278.5l-2.6,0.1c0-0.2,0-0.4-0.1-0.6c0-0.2,0-0.4,0-0.6c0-0.9,0.1-1.8,0.3-2.6c0.2-0.8,0.6-1.4,1.1-2
					c0.6-0.7,1.1-1.3,1.4-1.7c0.4-0.4,0.6-0.7,0.8-0.8c-0.4,0.1-0.8,0.2-1.2,0.2c-0.2,0-0.3,0-0.5-0.1c-0.2,0-0.3-0.1-0.5-0.1
					c-0.2,0-0.3-0.1-0.5-0.1c-0.2,0-0.3-0.1-0.5-0.1c-0.2,0-0.3,0-0.4,0c-0.1,0-0.3,0.1-0.4,0.2c-0.1,0.1-0.3,0.2-0.5,0.4
					c-0.2,0.2-0.4,0.4-0.6,0.8l-0.4-0.3c0.1-0.2,0.2-0.5,0.3-0.8c0.1-0.3,0.3-0.7,0.5-1c0.2-0.3,0.5-0.6,0.9-0.9
					c0.4-0.2,0.8-0.4,1.3-0.4c0.3,0,0.6,0,0.8,0.1c0.3,0,0.5,0.1,0.8,0.1c0.2,0.1,0.5,0.1,0.7,0.1c0.2,0,0.5,0.1,0.7,0.1
					c0.2,0,0.4-0.1,0.6-0.1c0.2-0.1,0.4-0.2,0.5-0.5l0.6,0.5c-2.7,2.8-4,5.4-3.9,8c0,0.6,0.1,1,0.2,1.3c0.1,0.3,0.3,0.4,0.5,0.4
					L143,278.5z"/>
			</g>
			<g>
				<path class="st39" d="M158.4,276.4l-2.6,0c0-0.2,0-0.4,0-0.6c0-0.2,0-0.4,0-0.6c0-0.9,0.1-1.8,0.3-2.5c0.2-0.8,0.6-1.4,1.1-2
					c0.6-0.7,1.1-1.2,1.5-1.6c0.4-0.4,0.6-0.7,0.8-0.8c-0.4,0.1-0.8,0.2-1.2,0.2c-0.2,0-0.3,0-0.5-0.1c-0.2,0-0.3-0.1-0.5-0.1
					c-0.2,0-0.3-0.1-0.5-0.1c-0.2,0-0.3-0.1-0.5-0.1c-0.2,0-0.3,0-0.4,0c-0.1,0-0.3,0.1-0.4,0.2c-0.1,0.1-0.3,0.2-0.5,0.4
					c-0.2,0.2-0.4,0.4-0.6,0.8l-0.4-0.3c0.1-0.2,0.2-0.5,0.3-0.8c0.1-0.3,0.3-0.7,0.5-1c0.2-0.3,0.5-0.6,0.9-0.9
					c0.4-0.2,0.8-0.4,1.3-0.4c0.3,0,0.6,0,0.8,0.1c0.3,0,0.5,0.1,0.8,0.2c0.2,0.1,0.5,0.1,0.7,0.2c0.2,0,0.5,0.1,0.7,0.1
					c0.2,0,0.4,0,0.6-0.1c0.2-0.1,0.4-0.2,0.5-0.5l0.6,0.5c-2.7,2.7-4.1,5.4-4.1,7.9c0,0.6,0,1,0.1,1.3c0.1,0.3,0.3,0.4,0.5,0.4
					L158.4,276.4z"/>
			</g>
			<polygon class="st25" points="124.2,293.9 124.9,302.3 159.1,302.9 159.6,293.9 			"/>
			<polygon class="st25" points="119.2,317.3 128.4,317.4 119.5,317.8 			"/>
			<polygon class="st25" points="164.6,318 155.2,317.9 164.2,317.4 			"/>
			<polygon class="st28" points="113.3,289.3 109.8,289 110,291 113.2,289.9 			"/>
			<ellipse class="st29" cx="130.8" cy="298.3" rx="4.6" ry="2.8"/>
			<ellipse class="st33" cx="130.8" cy="297.8" rx="3.9" ry="2.3"/>
			<ellipse class="st29" cx="142" cy="298.4" rx="4.4" ry="2.7"/>
			<ellipse class="st33" cx="142.1" cy="298" rx="3.6" ry="2.2"/>
			<ellipse class="st29" cx="153" cy="298.4" rx="4.2" ry="2.5"/>
			<ellipse class="st33" cx="153.1" cy="298" rx="3.3" ry="2"/>
			<polygon class="st22" points="161.5,306.8 153.1,307.1 152.8,310.8 160.4,311.5 			"/>
			<polygon class="st40" points="160.8,306.8 154.2,307.2 155,309.9 159,310.5 			"/>
			<g>
				<path class="st27" d="M129.3,249.7c0,0.3,0,0.5-0.3,0.7c-0.2,0.2-0.5,0.3-0.8,0.4c-0.2,0-0.4,0-0.5-0.1l0.1-0.1
					c0.1,0,0.2,0.1,0.3,0.1c0.1,0,0.2-0.1,0.3-0.1c0.1-0.1,0.1-0.2,0.1-0.3l-0.7-5.1l0.9-0.1L129.3,249.7z"/>
				<path class="st27" d="M134.5,250l-1,0.1l-1.2-2l-1.7,0.1l-0.5,2.2l-0.2,0l1.1-4.6l-0.5-0.9l1-0.1L134.5,250z M132.2,247.9
					l-1.1-1.9l-0.5,2L132.2,247.9z"/>
				<path class="st27" d="M138.7,249.2c-0.2,0.2-0.3,0.4-0.5,0.4c-0.2,0.1-0.5,0.1-0.8,0.2c-0.5,0-0.9-0.1-1.3-0.3
					c-0.4-0.2-0.7-0.6-0.9-0.9c-0.2-0.4-0.4-0.8-0.4-1.3c-0.1-0.5,0-0.9,0.1-1.3c0.1-0.4,0.3-0.8,0.6-1.1c0.3-0.3,0.7-0.5,1.2-0.5
					c0.3,0,0.6,0,0.8,0.1c0.2,0.1,0.4,0.2,0.7,0.4l-0.1,0.2c-0.2-0.2-0.4-0.3-0.6-0.4c-0.2-0.1-0.4-0.1-0.6-0.1
					c-0.3,0-0.6,0.2-0.7,0.4c-0.2,0.3-0.3,0.6-0.4,1c0,0.4,0,0.8,0,1.2c0.1,0.4,0.2,0.9,0.3,1.2c0.2,0.4,0.4,0.7,0.6,0.9
					c0.3,0.2,0.5,0.3,0.8,0.3c0.4,0,0.8-0.2,1-0.6L138.7,249.2z"/>
				<path class="st27" d="M142.7,249.4l-1.1,0.1l-1.6-1.9l-0.1,0.1l0.3,1.9l-0.9,0.1l-0.8-5.4l0.9-0.1l0.5,3.2l1.5-3.3l0.2,0
					l-1.2,2.6L142.7,249.4z"/>
				<path class="st27" d="M144.3,246.7l-1.5,0.1l-0.1-0.6l1.5-0.1L144.3,246.7z"/>
				<path class="st27" d="M148,245.2c0.1,0.5,0,0.9-0.3,1.2c-0.3,0.3-0.7,0.5-1.2,0.6l-0.6,0l0.3,2.1l-0.9,0.1l-0.8-5.4l1.5-0.1
					c0.5,0,0.9,0.1,1.3,0.4C147.7,244.4,147.9,244.8,148,245.2z M146.9,245.3c0-0.2-0.1-0.3-0.1-0.5c-0.1-0.2-0.1-0.3-0.2-0.5
					c-0.1-0.1-0.2-0.3-0.3-0.4c-0.1-0.1-0.3-0.1-0.5-0.1l-0.4,0l0.4,3l0.4,0c0.2,0,0.3-0.1,0.4-0.2c0.1-0.1,0.2-0.2,0.2-0.4
					c0-0.2,0.1-0.3,0.1-0.5C146.9,245.6,146.9,245.5,146.9,245.3z"/>
				<path class="st27" d="M153.3,245.9c0,0.3,0,0.6,0,0.9c-0.1,0.3-0.2,0.6-0.3,0.9c-0.1,0.3-0.3,0.5-0.6,0.7
					c-0.3,0.2-0.6,0.3-0.9,0.3c-0.5,0-0.9-0.1-1.3-0.3c-0.4-0.3-0.7-0.6-0.9-1c-0.2-0.4-0.4-0.8-0.4-1.2c-0.1-0.4,0-0.8,0.1-1.3
					c0.1-0.4,0.3-0.8,0.6-1.1c0.3-0.3,0.7-0.5,1.1-0.5c0.3,0,0.7,0,1,0.2c0.3,0.1,0.6,0.3,0.8,0.6c0.2,0.2,0.4,0.5,0.5,0.8
					C153.2,245.2,153.3,245.6,153.3,245.9z M152.3,245.9c-0.2-1.7-0.7-2.5-1.5-2.4c-0.2,0-0.3,0.1-0.4,0.2c-0.1,0.1-0.2,0.2-0.3,0.4
					c-0.1,0.2-0.1,0.3-0.1,0.5c0,0.2,0,0.4,0,0.6c0,0.2,0,0.4,0,0.5c0,0.1,0,0.3,0.1,0.4c0,0.2,0,0.3,0.1,0.4c0,0.1,0.1,0.3,0.1,0.5
					c0.1,0.2,0.1,0.4,0.2,0.6c0.1,0.2,0.2,0.3,0.3,0.5c0.1,0.1,0.2,0.3,0.4,0.3c0.1,0.1,0.3,0.1,0.5,0.1
					C152.2,248.5,152.5,247.6,152.3,245.9z"/>
				<path class="st27" d="M157.1,243l-1.2,0.1l0.7,5.2l-0.9,0.1l-0.7-5.2l-1.2,0.1l0-0.2l3.3-0.3L157.1,243z"/>
			</g>
			<ellipse class="st41" cx="153" cy="298.4" rx="3.3" ry="2"/>
			<ellipse class="st41" cx="141.9" cy="298.4" rx="3.3" ry="2"/>
			<ellipse class="st41" cx="130.7" cy="298.3" rx="3.3" ry="2"/>
			
				<ellipse transform="matrix(0.1799 -0.9837 0.9837 0.1799 -166.9771 395.3246)" class="st26" cx="153.6" cy="297.8" rx="0.9" ry="2.3"/>
			
				<ellipse transform="matrix(0.1799 -0.9837 0.9837 0.1799 -175.7977 384.3865)" class="st26" cx="142.6" cy="297.6" rx="0.9" ry="2.3"/>
			
				<ellipse transform="matrix(0.1799 -0.9837 0.9837 0.1799 -184.806 373.1012)" class="st26" cx="131.3" cy="297.4" rx="0.9" ry="2.3"/>
			<polygon class="st30" points="146.9,288.5 147.6,279.7 147.9,279.7 148,288.7 			"/>
			<polygon class="st30" points="131.3,288.4 131.4,279.5 131.7,279.5 132.4,288.4 			"/>
			<polygon class="st30" points="152.5,289 152.8,283.1 153.1,283.1 153.6,289 			"/>
			<polygon class="st30" points="123.8,287.7 123.6,282.1 123.8,282.1 124.4,287.7 			"/>
			<polygon class="st30" points="135.1,258.3 135.4,265.9 135.2,265.9 134.3,258.2 			"/>
			<polygon class="st30" points="146.6,258.7 146.9,266.4 146.7,266.4 145.8,258.7 			"/>
			<polygon class="st30" points="121.8,259.4 122.1,267 121.8,267 120.9,259.3 			"/>
			<g>
				<path class="st42" d="M167.8,306.8c0,1.2,1.4,2.8,3.3,3.2C171.1,310,171.2,307.2,167.8,306.8z"/>
				<path class="st43" d="M168.2,306.6c0,1.2,1.4,2.8,3.3,3.2C171.4,309.8,171.6,307,168.2,306.6z"/>
			</g>
			<g>
				<path class="st42" d="M169.8,312.6c-0.9,0.8-1.3,2.8-0.4,4.5C169.4,317.1,171.7,315.5,169.8,312.6z"/>
				<path class="st43" d="M170.2,312.7c-0.9,0.8-1.3,2.8-0.4,4.5C169.8,317.2,172.1,315.6,170.2,312.7z"/>
			</g>
			<g>
				<path class="st42" d="M152.4,313.4c1.2,0.3,3-0.6,4-2.2C156.4,311.2,153.7,310.3,152.4,313.4z"/>
				<path class="st43" d="M152.3,313c1.2,0.3,3-0.6,4-2.2C156.3,310.8,153.6,309.9,152.3,313z"/>
			</g>
			<g>
				<path class="st42" d="M172.9,296.1c0,1.2,1.4,2.8,3.3,3.2C176.1,299.3,176.3,296.5,172.9,296.1z"/>
				<path class="st43" d="M173.2,295.9c0,1.2,1.4,2.8,3.3,3.2C176.4,299.1,176.6,296.2,173.2,295.9z"/>
			</g>
			<g>
				<path class="st42" d="M169,303.6c0.8,0.9,2.9,1.1,4.5,0.2C173.5,303.8,171.7,301.6,169,303.6z"/>
				<path class="st43" d="M169.1,303.3c0.8,0.9,2.9,1.1,4.5,0.2C173.6,303.4,171.8,301.2,169.1,303.3z"/>
			</g>
			<g>
				<path class="st42" d="M162.1,307.3c0.5,0.9,2.2,1.4,3.8,0.9C165.9,308.2,164.9,306.1,162.1,307.3z"/>
				<path class="st43" d="M162.3,307.1c0.5,0.9,2.2,1.4,3.8,0.9C166.1,307.9,165,305.8,162.3,307.1z"/>
			</g>
			<g>
				<path class="st42" d="M147.1,307.4c0.9,0.4,2.6-0.1,3.6-1.4C150.7,306,148.7,304.8,147.1,307.4z"/>
				<path class="st43" d="M147.1,307.1c0.9,0.4,2.6-0.1,3.6-1.4C150.7,305.6,148.6,304.5,147.1,307.1z"/>
			</g>
			<path class="st44" d="M163.8,308l0-1.3C163.8,306.6,160.5,306.8,163.8,308z"/>
			<path class="st44" d="M171,304l-0.2-1.5C170.8,302.5,166.9,303.2,171,304z"/>
			<path class="st44" d="M154.1,310.9l0.8,1.2C155,312.2,158.2,309.8,154.1,310.9z"/>
			<g>
				<polygon class="st45" points="191.2,197.2 97.2,194.5 99.9,238.2 194.4,228.3 184.5,220.1 				"/>
				<polygon class="st27" points="188.4,198.5 100.6,196.6 101.3,235.6 188.2,227.5 181.9,220.7 				"/>
				<polygon class="st46" points="181.7,201.2 107,199.6 106.6,231.8 175.6,223.6 				"/>
				<ellipse class="st47" cx="100.9" cy="196.7" rx="1.1" ry="1"/>
				<ellipse class="st47" cx="100.7" cy="202.9" rx="1.1" ry="1"/>
				<ellipse class="st47" cx="100.6" cy="209.4" rx="1.1" ry="1"/>
				<ellipse class="st47" cx="100.9" cy="216.2" rx="1.1" ry="1"/>
				<ellipse class="st47" cx="101.1" cy="223.5" rx="1.1" ry="1"/>
				<ellipse class="st47" cx="101.1" cy="230" rx="1.1" ry="1"/>
				<ellipse class="st47" cx="101.2" cy="236" rx="1.1" ry="1"/>
				<ellipse class="st47" cx="107.7" cy="235.3" rx="1.1" ry="1"/>
				<ellipse class="st47" cx="107.3" cy="196.6" rx="1.1" ry="1"/>
				<ellipse class="st47" cx="113.7" cy="196.8" rx="1.1" ry="1"/>
				<ellipse class="st47" cx="120" cy="196.9" rx="1.1" ry="1"/>
				<ellipse class="st47" cx="126.9" cy="197" rx="1.1" ry="1"/>
				<ellipse class="st47" cx="133.5" cy="197.3" rx="1.1" ry="1"/>
				<ellipse class="st47" cx="140.9" cy="197.3" rx="1.1" ry="1"/>
				<ellipse class="st47" cx="148.8" cy="197.6" rx="1.1" ry="1"/>
				<ellipse class="st47" cx="156.7" cy="197.8" rx="1.1" ry="1"/>
				<ellipse class="st47" cx="164.7" cy="198" rx="1.1" ry="1"/>
				<ellipse class="st47" cx="172.3" cy="198.1" rx="1.1" ry="1"/>
				<ellipse class="st47" cx="180.2" cy="198.2" rx="1.1" ry="1"/>
				<ellipse class="st47" cx="188.2" cy="198.2" rx="1.1" ry="1"/>
				<ellipse class="st47" cx="185.8" cy="207" rx="1.1" ry="1"/>
				<ellipse class="st47" cx="184.1" cy="213.3" rx="1.1" ry="1"/>
				<ellipse class="st47" cx="181.8" cy="220.9" rx="1.1" ry="1"/>
				<ellipse class="st47" cx="187.9" cy="227.4" rx="1.1" ry="1"/>
				<ellipse class="st47" cx="181.7" cy="228.1" rx="1.1" ry="1"/>
				<ellipse class="st47" cx="115.8" cy="234.4" rx="1.1" ry="1"/>
				<ellipse class="st47" cx="123.5" cy="233.7" rx="1.1" ry="1"/>
				<ellipse class="st47" cx="130.5" cy="233" rx="1.1" ry="1"/>
				<ellipse class="st47" cx="138.6" cy="232.3" rx="1.1" ry="1"/>
				<ellipse class="st47" cx="145.6" cy="231.7" rx="1.1" ry="1"/>
				<ellipse class="st47" cx="152.8" cy="231" rx="1.1" ry="1"/>
				<ellipse class="st47" cx="159.6" cy="230.2" rx="1.1" ry="1"/>
				<ellipse class="st47" cx="166.6" cy="229.7" rx="1.1" ry="1"/>
				<ellipse class="st47" cx="173.8" cy="229" rx="1.1" ry="1"/>
				<polygon class="st45" points="175.4,219.8 103.3,222.7 103.3,224.9 175.4,221 				"/>
				<polygon class="st45" points="178.8,201 185.1,200.8 185.3,202.6 178.8,202 				"/>
				<g>
					<path class="st22" d="M116.5,217c-0.6,0.6-1.2,1-1.9,1.3c-0.7,0.2-1.5,0.3-2.5,0.3c-1.6,0-2.9-0.4-4.1-1.3
						c-1.1-0.9-2-1.9-2.5-3.2c-0.5-1.3-0.8-2.7-0.8-4.2c0-1.5,0.3-2.9,0.8-4.2c0.5-1.3,1.4-2.4,2.5-3.2c1.1-0.9,2.5-1.3,4.1-1.3
						c1,0,1.8,0.1,2.5,0.4c0.7,0.2,1.3,0.7,1.9,1.3l-0.5,0.5c-0.5-0.6-1.1-1-1.6-1.3c-0.5-0.3-1.2-0.4-2-0.4c-1,0-1.8,0.4-2.6,1.2
						c-0.7,0.8-1.3,1.8-1.6,3c-0.3,1.2-0.5,2.5-0.5,4c0,1.4,0.2,2.8,0.5,4c0.3,1.2,0.9,2.3,1.6,3.1c0.7,0.8,1.6,1.2,2.6,1.2
						c1.3,0,2.5-0.6,3.6-1.7L116.5,217z"/>
					<path class="st22" d="M133.1,218.5h-3.3l-2.9-6.8h-5.5l-2.6,6.8h-0.6l5.5-14.3l-1.2-2.9h3.3L133.1,218.5z M126.7,211.2
						l-2.7-6.3l-2.4,6.3H126.7z"/>
					<path class="st22" d="M144.3,213.8c0,1.3-0.5,2.4-1.4,3.4c-1,0.9-2.1,1.4-3.5,1.4c-1,0-1.9-0.1-2.7-0.4c-0.1,0-0.2-0.1-0.5-0.2
						c-0.3-0.1-0.5-0.2-0.7-0.2l0.5-1c0.4,0.5,0.9,0.8,1.6,1.1c0.7,0.3,1.4,0.4,2,0.4c0.8,0,1.4-0.2,1.9-0.6c0.4-0.4,0.7-1,0.7-1.7
						c0-0.8-0.3-1.5-0.8-2.2c-0.5-0.7-1.1-1.2-1.8-1.7c-0.7-0.5-1.4-1-2.1-1.5c-0.7-0.5-1.3-1.1-1.8-1.8c-0.5-0.7-0.8-1.5-0.8-2.3
						c0-1.5,0.5-2.7,1.6-3.6c1.1-1,2.4-1.4,3.9-1.4c1.2,0,2.3,0.3,3.2,1l-0.7,0.8c-0.6-0.8-1.6-1.2-3-1.2c-0.9,0-1.7,0.2-2.3,0.6
						c-0.7,0.4-1,1-1,1.8c0,0.5,0.1,1.1,0.4,1.5c0.3,0.5,0.6,0.9,1.1,1.3c0.4,0.4,0.9,0.7,1.5,1.1c0.5,0.4,1.1,0.7,1.6,1.1
						c0.6,0.4,1.1,0.8,1.5,1.2c0.4,0.4,0.8,0.9,1.1,1.5C144.2,212.5,144.3,213.1,144.3,213.8z"/>
					<path class="st22" d="M149.5,218.5h-3v-17.2h3V218.5z"/>
					<path class="st22" d="M161.5,218.5h-0.6v-1l-7.4-12.2v13.2H153v-14.1l-1.9-3.1h3.5l6.3,10.5v-10.5h0.6V218.5z"/>
					<path class="st22" d="M178.2,209.9c0,1-0.2,2-0.5,3c-0.3,1-0.8,1.9-1.3,2.8c-0.6,0.8-1.3,1.5-2.3,2c-0.9,0.5-1.9,0.8-3,0.8
						c-1.5,0-2.8-0.4-3.9-1.4c-1.1-0.9-1.9-2-2.5-3.3c-0.5-1.3-0.8-2.6-0.8-4c0-1.4,0.3-2.7,0.8-4c0.5-1.3,1.4-2.4,2.5-3.3
						c1.1-0.9,2.4-1.4,3.9-1.4c1.1,0,2.1,0.3,3,0.8c0.9,0.5,1.7,1.2,2.3,2.1c0.6,0.8,1,1.8,1.3,2.8
						C178,207.9,178.2,208.9,178.2,209.9z M174.7,209.9c0-5.4-1.2-8.1-3.7-8.1c-0.6,0-1,0.1-1.5,0.4c-0.4,0.3-0.8,0.7-1,1.2
						c-0.3,0.5-0.5,1-0.6,1.6c-0.2,0.5-0.3,1.2-0.4,1.8c-0.1,0.7-0.1,1.3-0.1,1.7c0,0.4,0,0.9,0,1.4c0,0.5,0,1,0,1.4
						c0,0.4,0.1,1,0.1,1.7c0.1,0.7,0.2,1.3,0.4,1.8c0.2,0.5,0.4,1.1,0.6,1.6c0.3,0.5,0.6,0.9,1,1.2c0.4,0.3,0.9,0.4,1.5,0.4
						C173.5,218,174.7,215.3,174.7,209.9z"/>
				</g>
				<g>
					<path class="st48" d="M108,217.3c1.1,0.9,2.5,1.3,4.1,1.3c1,0,1.8-0.1,2.5-0.3c0.7-0.2,1.3-0.7,1.9-1.3l-0.5-0.5
						c-1.1,1.1-2.2,1.7-3.6,1.7c-1,0-1.8-0.4-2.6-1.2c-0.7-0.8-1.2-1.8-1.6-3.1c0-0.1-0.1-0.2-0.1-0.3l-1.6,0.5v1.9
						C107,216.4,107.5,216.9,108,217.3z"/>
					<polygon class="st48" points="118.9,218.5 121.4,211.7 126.9,211.7 129.8,218.5 133.1,218.5 128.2,206.9 125.3,207.8 
						126.7,211.2 121.6,211.2 122.6,208.7 121.9,209 118.3,218.5 					"/>
					<path class="st48" d="M136,216.6l-0.5,1c0.2,0,0.4,0.1,0.7,0.2c0.1,0.1,0.2,0.1,0.3,0.1l1-0.3
						C136.9,217.4,136.4,217.1,136,216.6z"/>
					<path class="st48" d="M143.9,211.9c-0.3-0.6-0.6-1.1-1.1-1.5c-0.4-0.4-0.9-0.8-1.5-1.2c-0.6-0.4-1.1-0.8-1.6-1.1
						c-0.5-0.4-1-0.7-1.5-1.1c-0.4-0.4-0.8-0.8-1.1-1.3c-0.3-0.5-0.4-1-0.4-1.5c0,0,0,0,0,0l-1.6,0.5c-0.2,0.5-0.3,1.1-0.3,1.6
						c0,0.8,0.3,1.6,0.8,2.3c0.5,0.7,1.1,1.3,1.8,1.8c0.7,0.5,1.4,1,2.1,1.5c0.7,0.5,1.3,1.1,1.8,1.7c0.5,0.7,0.8,1.4,0.8,2.2
						c0,0.1,0,0.2,0,0.4l1.9-0.6c0.2-0.5,0.3-1.1,0.3-1.8C144.3,213.1,144.2,212.5,143.9,211.9z"/>
					<path class="st48" d="M143,202.9l0.7-0.8c-0.1-0.1-0.3-0.2-0.4-0.3l-1,0.3C142.5,202.4,142.8,202.6,143,202.9z"/>
					<polygon class="st48" points="146.5,201.2 146.5,214.7 149.5,213.7 149.5,201.2 					"/>
					<polygon class="st48" points="160.9,201.2 160.9,209.9 161.5,209.7 161.5,201.2 					"/>
					<polygon class="st48" points="151.1,201.2 153,204.3 153,212.5 153.5,212.3 153.5,205.3 157.1,211.2 160,210.2 154.6,201.2 
											"/>
					<path class="st48" d="M174.1,202.1c-0.9-0.5-1.9-0.8-3-0.8c-1.5,0-2.8,0.5-3.9,1.4c-1.1,0.9-1.9,2-2.5,3.3c-0.4,1-0.6,2-0.7,3
						l3.5-1.2c0-0.3,0.1-0.6,0.1-1c0.1-0.7,0.2-1.3,0.4-1.8c0.2-0.5,0.4-1.1,0.6-1.6c0.3-0.5,0.6-0.9,1-1.2c0.4-0.3,0.9-0.4,1.5-0.4
						c1.6,0,2.7,1.2,3.3,3.7l2.4-0.8c-0.1-0.2-0.2-0.3-0.3-0.5C175.8,203.3,175,202.6,174.1,202.1z"/>
				</g>
			</g>
		</g>
		<g class="st49">
			<linearGradient id="SVGID_1_" gradientUnits="userSpaceOnUse" x1="127.9857" y1="198.3739" x2="141.1155" y2="378.1942">
				<stop  offset="0" style="stop-color:#FFEEC8"/>
				<stop  offset="1" style="stop-color:#3C0041"/>
			</linearGradient>
			<polygon class="st50" points="167.9,326.8 165.5,326.8 165.8,324.9 164.7,324.9 172.9,240.6 164.7,241.3 164.7,236.2 
				115.9,241.3 117.2,245.4 111.3,246 115,281.3 114.2,281.4 114.2,281.5 113,281.6 113.7,288 113.4,288 112.9,288 112.9,288 
				112.3,288 110.1,278.1 111.1,277.9 108.4,265.2 105.7,265.8 108.4,278.5 109.2,278.3 110.8,285.8 110.8,285.8 111.2,288 
				109.7,288 109.8,289 109.8,289 110,291 110,291 110.2,293.5 113.6,292.7 114.3,292.7 115,299.2 115.9,299.1 116.8,299.2 
				119.4,324.8 118.4,324.7 118.6,326.9 116.2,326.9 62.9,352.9 215.7,352.9 			"/>
			<linearGradient id="SVGID_2_" gradientUnits="userSpaceOnUse" x1="161.4237" y1="195.9404" x2="174.5525" y2="375.7473">
				<stop  offset="0" style="stop-color:#FFEEC8"/>
				<stop  offset="1" style="stop-color:#3C0041"/>
			</linearGradient>
			<path class="st51" d="M168.2,306.6c0,0.1,0,0.2,0,0.3c-0.1,0-0.2,0-0.3,0c0,1.2,1.4,2.8,3.3,3.2c0,0,0-0.1,0-0.3
				c0.1,0,0.2,0.1,0.3,0.1C171.4,309.8,171.6,307,168.2,306.6z"/>
			<linearGradient id="SVGID_3_" gradientUnits="userSpaceOnUse" x1="161.2405" y1="195.9421" x2="174.3706" y2="375.7672">
				<stop  offset="0" style="stop-color:#FFEEC8"/>
				<stop  offset="1" style="stop-color:#3C0041"/>
			</linearGradient>
			<path class="st52" d="M170,312.9c-0.1-0.1-0.1-0.2-0.2-0.3c-0.9,0.8-1.3,2.8-0.4,4.5c0,0,0.1-0.1,0.2-0.2c0,0.1,0.1,0.2,0.1,0.3
				c0,0,2.3-1.7,0.4-4.5C170.1,312.8,170.1,312.8,170,312.9z"/>
			<linearGradient id="SVGID_4_" gradientUnits="userSpaceOnUse" x1="167.2118" y1="195.5097" x2="180.3416" y2="375.3297">
				<stop  offset="0" style="stop-color:#FFEEC8"/>
				<stop  offset="1" style="stop-color:#3C0041"/>
			</linearGradient>
			<path class="st53" d="M173.2,295.9c0,0.1,0,0.2,0,0.3c-0.1,0-0.2,0-0.3,0c0,1.2,1.4,2.8,3.3,3.2c0,0,0-0.1,0-0.3
				c0.1,0,0.2,0.1,0.3,0.1C176.4,299.1,176.6,296.2,173.2,295.9z"/>
			<linearGradient id="SVGID_5_" gradientUnits="userSpaceOnUse" x1="163.4382" y1="195.7918" x2="176.5671" y2="375.6007">
				<stop  offset="0" style="stop-color:#FFEEC8"/>
				<stop  offset="1" style="stop-color:#3C0041"/>
			</linearGradient>
			<path class="st54" d="M170.2,302.6c-0.5,0.1-1,0.3-1.1,0.6c0,0,0,0-0.1,0c0,0,0.1,0.1,0.1,0.1c0,0,0,0.1,0.1,0.1
				c-0.1,0.1-0.2,0.1-0.3,0.2c0.8,0.9,2.9,1.1,4.5,0.2c0,0-0.1-0.1-0.2-0.2c0.1,0,0.2-0.1,0.3-0.2
				C173.6,303.4,172.3,301.8,170.2,302.6z"/>
			<linearGradient id="SVGID_6_" gradientUnits="userSpaceOnUse" x1="144.5446" y1="197.1649" x2="157.6743" y2="376.9846">
				<stop  offset="0" style="stop-color:#FFEEC8"/>
				<stop  offset="1" style="stop-color:#3C0041"/>
			</linearGradient>
			<polygon class="st55" points="194.4,228.3 184.5,220.1 191.2,197.2 97.2,194.5 99.9,238.2 			"/>
		</g>
	</g>
	<path class="st56" d="M6,342.1h770c3.3,0,6,2.7,6,6v1c0,3.3-2.7,6-6,6H6c-3.3,0-6-2.7-6-6v-1C0,344.8,2.7,342.1,6,342.1z"/>
	<path class="st56" d="M516.9,359.8c27.6,0,50,4.5,50,10c0,5.5-22.4,10-50,10c-27.6,0-50-4.5-50-10
		C466.9,364.3,489.3,359.8,516.9,359.8z"/>
</g>
<g id="Layer_2">
	<g id="viking">
		<linearGradient id="hair_1_" gradientUnits="userSpaceOnUse" x1="505.1723" y1="205.884" x2="502.3291" y2="258.5872">
			<stop  offset="0" style="stop-color:#FF2B15"/>
			<stop  offset="0.2842" style="stop-color:#E3200F"/>
			<stop  offset="0.7562" style="stop-color:#BB1007"/>
			<stop  offset="1" style="stop-color:#AB0A04"/>
		</linearGradient>
		<path id="hair" class="st57" d="M543.3,225.5c-7.4-10.5-11.8-7-14.5-9.8c-4.1-4.4-4.5-5.5-10-8.5c-13.5-7.4-22.2,2.5-24,6.1
			c-1.8,3.5-3.3,7.2-4.6,9.5c-1.9,3.3-6.8,3.4-9.3,6.7c-2.7,3.5-1,5.6-4.1,9.7c-1.4,1.8-7.1,4.2-8.4,7.7c-1.8,5.1,0.2,7.5-5.7,14
			C501.2,261.1,546.5,230,543.3,225.5z"/>
		<g id="arm_with_axe">
			<g id="axe_7_">
				<g id="handle_2_">
					<g id="handle_3_">
						
							<linearGradient id="SVGID_7_" gradientUnits="userSpaceOnUse" x1="2494.0398" y1="1159.1024" x2="2494.0398" y2="1064.0693" gradientTransform="matrix(-0.5398 0.8417 -0.8417 -0.5398 2841.3982 -1324.2882)">
							<stop  offset="0" style="stop-color:#6E1D05"/>
							<stop  offset="4.048824e-03" style="stop-color:#6F1D05"/>
							<stop  offset="0.2988" style="stop-color:#943807"/>
							<stop  offset="0.5724" style="stop-color:#AF4A09"/>
							<stop  offset="0.8145" style="stop-color:#BF560A"/>
							<stop  offset="1" style="stop-color:#C55A0A"/>
						</linearGradient>
						<path class="st58" d="M597.5,200.4c0,0-57-43-70.3-55.8c-2.3-0.1-4.8,0.2-4.8,0.2s0,3,0.4,5c12,7.2,68.9,55.1,70.5,56.4
							C593.3,206.2,599.4,205.3,597.5,200.4z"/>
						<path class="st59" d="M586.9,192.4c-3.1,3.1-6.9-0.2-9.9-2.3c-1.7-1.2-26.7-19.9-33.5-24.8c20.9,16.6,48.7,40,49.8,40.9
							c0,0,6.1-0.9,4.2-5.7C597.5,200.4,593.3,197.3,586.9,192.4z"/>
						<path class="st60" d="M543.8,158.8c-0.9,5.6,37.6,36.1,40.8,31.9C573.4,182.1,556.8,169.3,543.8,158.8z"/>
					</g>
					<g id="tip_1_">
						<path class="st61" d="M527.2,144.6c-2.3-0.1-4.8,0.2-4.8,0.2s0,3,0.4,5c0.2-0.4,1.1-1.9,1.3-2.5
							C524.8,146.7,526.9,145.1,527.2,144.6z"/>
						<path class="st62" d="M527.2,144.6c-2.3-0.1-4.8,0.2-4.8,0.2s1.2,1.9,1.7,2.5C524.8,146.7,526.9,145.1,527.2,144.6z"/>
					</g>
				</g>
				<g id="axe_8_">
					
						<linearGradient id="axe_1_" gradientUnits="userSpaceOnUse" x1="2543.6079" y1="-624.7706" x2="2605.0676" y2="-624.7706" gradientTransform="matrix(-0.6258 0.7799 0.7799 0.6258 2629.3599 -1464.6776)">
						<stop  offset="0" style="stop-color:#A8B5C1"/>
						<stop  offset="0.5064" style="stop-color:#819BB0"/>
						<stop  offset="1" style="stop-color:#A8B5C1"/>
					</linearGradient>
					<path id="axe_9_" class="st63" d="M506.1,171l1.8-2.8l-3.5,0.8c-2.8-3.4-4.7-7.3-5-11.5c17.5,10.6,28-4.4,28-4.4
						c-0.7-0.5,0-2,1.1-3.2c1-1.3,2.3-2.4,2.9-1.8c0,0,12.3-13.5-1.8-28.3c11.1-1.7,24.3,9.8,26.9,16l-2.8,2.9l4-0.4
						c0.8,1.3,2.2,5.5,2.1,7.9l-2.6,0.9l2.8,0.3c0.2,0.8-0.1,2.8-0.3,3.4c-6.9-1.8-15.9,3.4-18,5.2c0.7,0.3-0.1,2-1.2,3.5
						c-1.2,1.4-2.7,2.6-3.2,1.9c-1.3,2.4-4.5,12.3-1.2,18.7c-0.4,0.2-4.3,1.5-9.6,1.2l-0.2-3.4l-2,3.2c-1.1-0.2-2.2-0.4-3.3-0.7
						l0.2-2.7l-1.8,2.2C515.1,178.3,510.1,175.2,506.1,171z"/>
					<path id="shadow_4_" class="st64" d="M534.7,161l-7.4-7.8c-0.7-0.5,0-2,1.1-3.2c1-1.3,2.3-2.4,2.9-1.8l8.9,5.7
						c10.4-6,19.5-3.7,19.3-3.1c-6.9-1.8-15.9,3.4-18,5.2c0.7,0.3-0.1,2-1.2,3.5c-1.2,1.4-2.7,2.6-3.2,1.9
						c-1.3,2.4-4.5,12.3-1.2,18.7C535.6,180.3,531.3,173.2,534.7,161z"/>
					<g id="lights_4_">
						<g>
							<path class="st65" d="M506.1,171l1.8-2.8l-3.5,0.8c-2.8-3.4-4.7-7.3-5-11.5c1.7,1,3.3,1.8,4.9,2.4
								c5.9,12.6,19.9,18.9,30.7,16.8c0.2,1.2,0.6,2.3,1.1,3.4c-0.4,0.2-4.3,1.5-9.6,1.2l-0.2-3.4l-2,3.2c-1.1-0.2-2.2-0.4-3.3-0.7
								l0.2-2.7l-1.8,2.2C515.1,178.3,510.1,175.2,506.1,171z"/>
							<path class="st66" d="M515.4,172.5l-2.2,4.3c-1.7-1.1-3.4-2.3-5-3.7l3.2-3.5C512.6,170.6,514,171.6,515.4,172.5z"/>
						</g>
						<g>
							<path class="st65" d="M533.1,124.5c-0.9-1.5-2.1-3.1-3.6-4.6c11.1-1.7,24.3,9.8,26.9,16l-2.8,2.9l4-0.4
								c0.8,1.3,2.2,5.5,2.1,7.9l-2.6,0.9l2.8,0.3c0.2,0.8-0.1,2.8-0.3,3.4c-1.3-0.3-2.6-0.4-4-0.4
								C554.4,138.3,546.2,127.7,533.1,124.5z"/>
							<path class="st66" d="M555.2,133.8l-4.4,3.1c-0.5-0.8-1.1-1.6-1.7-2.3l3.6-4C553.8,131.7,554.6,132.8,555.2,133.8z"/>
						</g>
					</g>
					<g id="middle_part_4_">
						<path class="st67" d="M527.3,153.2c-0.7-0.5,0-2,1.1-3.2c1-1.3,2.3-2.4,2.9-1.8l10.2,7.8c0.7,0.3-0.1,2-1.2,3.5
							c-1.2,1.4-2.7,2.6-3.2,1.9L527.3,153.2z"/>
						<path class="st68" d="M541.4,157.9c-0.2,0.3-0.3,0.6-0.6,0.9l-11.8-9.6c0.2-0.2,0.4-0.4,0.6-0.6L541.4,157.9z"/>
					</g>
				</g>
			</g>
			<g id="arm">
				<g id="fingers">
					<path class="st69" d="M580.8,183.9c0.3-1.8-1.5-3-3-2.7c0.3-1.9-1.9-3.2-3.1-2.7c-0.1-0.4-0.1-0.9-0.1-1.1
						c-2.5-1.2-4.7,0.6-7.1,1.4c0.2,3.5-0.8,6,1.9,6.2c-0.6,1.1,1,3.8,3.5,3c0,2.3,2.4,2.6,3.1,1.8c-0.6,2.9,3.6,1.7,5.7-1.3
						l1.1,0.8C584.9,187.5,583.3,183.8,580.8,183.9z"/>
					<path class="st70" d="M567.5,178.7c0.2,3.5-0.8,6,1.9,6.2c-0.6,1.1,1,3.8,3.5,3c0,2.3,2.4,2.6,3.1,1.8
						c-0.6,2.9,3.6,1.7,5.7-1.3l1.1,0.8c0.9-0.7,1.1-1.8,0.9-2.7c-1.4,0.9-3.4,1.2-4.4,0.4c-1.4-1.1,0-2.3,1.5-3
						c-1.2,0.2-3.1,1.4-4.4,0.7c-2.1-1.2,0-2.3,1.4-3.4c-2.1,0.9-6.4,2-6.7-0.9c1-0.9,2.4-1.3,3.6-1.8
						C572.2,179,569.2,180.4,567.5,178.7z"/>
				</g>
				<linearGradient id="arm_3_" gradientUnits="userSpaceOnUse" x1="537.8138" y1="246.1598" x2="584.6228" y2="186.4367">
					<stop  offset="0" style="stop-color:#FF9163"/>
					<stop  offset="0.1186" style="stop-color:#FF9A6E"/>
					<stop  offset="0.4617" style="stop-color:#FFAF89"/>
					<stop  offset="0.7665" style="stop-color:#FFBC99"/>
					<stop  offset="1" style="stop-color:#FFC19F"/>
				</linearGradient>
				<path id="arm_1_" class="st71" d="M571.1,187.8c1.2,0.2,2.3-0.3,2.5-1.5c-1.8-1.5-4.1-3.1-6-4.1c-2.2,0.5-6.6,4-6,4.4
					c1.1,4,2.6,6.1,1.1,10.5c-1.2,3.8-25.6,24.8-28.9,35.7c4.7,7,12.5,25.9,15.6,28c18-24.6,24.9-59.3,26-61.2
					c2.3-1,3.8-3.3,4.4-4.4C577.3,192.9,573.2,189.2,571.1,187.8z"/>
				<g id="shadows_1_">
					<path class="st72" d="M565.3,212.5c-2-1.3-12.6-3.2-14.3-2.3c-0.1,0.1-0.1,0.1-0.2,0.2v0c5.8,1.6,15.6,9.1,14.8,12.8
						c-0.5,2.3-2.7,9.8-5.3,10.5c0,0-1.2-5.8-2.8-6.7c-1.4-0.8-4.4-1-6-1.5c-1.2-0.4-4.4-6.5-6.4-8.8c-3.7,4.1-7.1,8.3-9.2,11.9
						c2.5,4.7,12.8,20,17,20.9c0.7,0.2,2.1,0.2,3.6,0.3c6.6-11.8,11.2-24.4,14.3-34C569.1,214.5,567.1,213.7,565.3,212.5z"/>
					<path class="st70" d="M577.1,192.7c-2.2-1.9-4.6-3.9-6-4.9c-0.5-0.1-2.8-1-3.7-1.6c-1.5,0.9-0.6,2.6-0.6,2.6
						c3.4,1.8,3.2,5.1,3.2,7C571.1,195,574,192.3,577.1,192.7z"/>
				</g>
				<g id="bracers_3_">
					<linearGradient id="SVGID_8_" gradientUnits="userSpaceOnUse" x1="550.7599" y1="210.4237" x2="574.2079" y2="210.4237">
						<stop  offset="0" style="stop-color:#C55A0A"/>
						<stop  offset="0.1855" style="stop-color:#BF560A"/>
						<stop  offset="0.4276" style="stop-color:#AF4A09"/>
						<stop  offset="0.7012" style="stop-color:#943807"/>
						<stop  offset="0.9959" style="stop-color:#6F1D05"/>
						<stop  offset="1" style="stop-color:#6E1D05"/>
					</linearGradient>
					<path class="st73" d="M562.1,198.2c-1.7,2.4-6.3,7-11.4,12.3c6.4,0.6,14.8,6.9,17.8,12.2c2.7-7.7,4.5-14.4,5.7-18.6
						C571.2,201.2,566.3,198.6,562.1,198.2z"/>
					<linearGradient id="SVGID_9_" gradientUnits="userSpaceOnUse" x1="550.7599" y1="215.2975" x2="569.8735" y2="215.2975">
						<stop  offset="0" style="stop-color:#C55A0A"/>
						<stop  offset="0.3517" style="stop-color:#BF560A"/>
						<stop  offset="0.8099" style="stop-color:#AF4B09"/>
						<stop  offset="1" style="stop-color:#A64508"/>
					</linearGradient>
					<path class="st74" d="M550.8,210.5c6.4,0.6,14.8,6.9,17.8,12.2c0.5-1.4,0.9-2.7,1.3-4c-3.5-4.6-11.2-10.4-16.6-10.8
						C552.4,208.7,551.6,209.6,550.8,210.5z"/>
					<linearGradient id="SVGID_10_" gradientUnits="userSpaceOnUse" x1="560.3433" y1="202.5405" x2="574.2079" y2="202.5405">
						<stop  offset="0" style="stop-color:#C55A0A"/>
						<stop  offset="0.3589" style="stop-color:#BF560A"/>
						<stop  offset="0.8265" style="stop-color:#AF4B09"/>
						<stop  offset="1" style="stop-color:#A74508"/>
					</linearGradient>
					<path class="st75" d="M562.1,198.2c-0.4,0.6-1,1.3-1.8,2.2c4.2,0.3,9.8,3,13.1,6.6c0.3-1,0.5-2,0.8-2.8
						C571.2,201.2,566.3,198.6,562.1,198.2z"/>
				</g>
			</g>
		</g>
		<g id="pants_1_">
			<linearGradient id="pants_2_" gradientUnits="userSpaceOnUse" x1="519.3233" y1="354.9251" x2="519.3233" y2="304.2992">
				<stop  offset="0" style="stop-color:#0D1700"/>
				<stop  offset="0.3425" style="stop-color:#1D290C"/>
				<stop  offset="1" style="stop-color:#435628"/>
			</linearGradient>
			<path id="pants" class="st76" d="M468.7,314.2c6.1,11.8,26.5,10.6,31.6,40.7l9.7-1.1c-1.2-5.9-2.4-18.4,0-21
				c4.5-4.8,19.4-6.7,21.5-4.8c2.2,1.9-2.2,21.7-2.2,21.7l9.8,0.9c3.8-24.9,31.9-35.1,30.9-46.3
				C563.5,306.7,513.4,322.2,468.7,314.2z"/>
			<g id="shadows">
				<path class="st77" d="M503.2,329.6c0,0,7.2,8.2,2.7,24.6l4-0.5c-1.2-5.9-2.4-18.4,0-21c4.5-4.8,19.4-6.7,21.5-4.8
					c2.2,1.9-2.2,21.7-2.2,21.7l2.6,0.2c-0.9-9.6,2.5-22.5,6.7-28.5C531.5,325,510.3,330.1,503.2,329.6z"/>
				<path class="st78" d="M570,304.3c-6.4,2.4-56.5,17.9-101.3,9.9c5.8,11.2,24.5,10.8,30.7,36.4c0,0,0,0,0,0
					c-1.8-13.8-9.2-21.5-6.9-24.3c2.7-3.4,17.9-5.6,22.2-5.4c1.4,0.1,2,1.2,2.3,2.8c1.9,1,12.8-1,15.5-1.6c1-0.2,0.6-2.1,2.2-2.5
					c2.1-0.5,13.1-2.8,15.4,1.5c1.5,2.8-7.7,15.4-11.3,25c0.3-0.2,0.7-0.1,1.2,0.2C546,324.5,570.9,314.8,570,304.3z"/>
			</g>
		</g>
		<g id="boots">
			<g>
				<linearGradient id="SVGID_11_" gradientUnits="userSpaceOnUse" x1="501.1346" y1="353.5604" x2="502.459" y2="371.092">
					<stop  offset="0" style="stop-color:#AD3505"/>
					<stop  offset="0.6687" style="stop-color:#7D2303"/>
					<stop  offset="1" style="stop-color:#641902"/>
				</linearGradient>
				<path class="st79" d="M512,352.4c0,0-12.4,1.7-13.3,2.3c0,0,1.4,6.3,1.8,9.3c-0.4,0.2-0.8,0.4-0.9,0.6c-0.2,0.3,0,0.6,0.2,1
					c-4.3,3.7-9.4,5.2-8.1,6.7c2.3,0.7,15.1-1.6,21.1-3.2C512.8,366.3,512.3,353.7,512,352.4z"/>
				<path class="st80" d="M512,352.4c0,0-12.4,1.7-13.3,2.3c0,0,0.6,2.7,1.1,5.4c1.4-0.2,8.2,0,12.7,0.8
					C512.4,357,512.2,353.1,512,352.4z"/>
				<linearGradient id="SVGID_12_" gradientUnits="userSpaceOnUse" x1="504.0629" y1="350.6227" x2="505.0967" y2="358.6846">
					<stop  offset="0" style="stop-color:#5B1602"/>
					<stop  offset="0.401" style="stop-color:#7D2303"/>
					<stop  offset="1" style="stop-color:#AD3505"/>
				</linearGradient>
				<path class="st81" d="M513.4,350.3c-9.6-0.9-18.3,3.1-18.3,3.1c0.3,1,2.9,4.9,3.3,7.2c3.4-1.2,8-2.7,15.9-2.4
					C514.3,356,513.5,353.5,513.4,350.3z"/>
			</g>
			<g>
				
					<linearGradient id="SVGID_13_" gradientUnits="userSpaceOnUse" x1="2367.3926" y1="352.821" x2="2368.7332" y2="370.5678" gradientTransform="matrix(-1 0 0 1 2904.2427 0)">
					<stop  offset="0" style="stop-color:#AD3505"/>
					<stop  offset="0.6687" style="stop-color:#7D2303"/>
					<stop  offset="1" style="stop-color:#641902"/>
				</linearGradient>
				<path class="st82" d="M527.5,351.8c0,0,12.4,1.7,13.3,2.4c0,0-2.8,6.5-3.2,9.7c0.4,0.2,0.8,0.4,0.9,0.6c0.2,0.3,0,0.7-0.2,1
					c4.3,3.9,8.7,4.5,7.5,6.1c-2.3,0.7-14.5-0.9-20.5-2.6C525.2,366,527.2,353.2,527.5,351.8z"/>
				<path class="st80" d="M540.8,354.2c-0.9-0.7-13.3-2.4-13.3-2.4c-0.2,0.8-0.9,5.3-1.5,9.7c4.3-0.8,10.6-2,13.1-3
					C539.9,356.2,540.8,354.2,540.8,354.2z"/>
				
					<linearGradient id="SVGID_14_" gradientUnits="userSpaceOnUse" x1="2369.2144" y1="348.0941" x2="2370.4468" y2="357.7053" gradientTransform="matrix(-1 0 0 1 2904.2427 0)">
					<stop  offset="0" style="stop-color:#5B1602"/>
					<stop  offset="0.401" style="stop-color:#7D2303"/>
					<stop  offset="1" style="stop-color:#AD3505"/>
				</linearGradient>
				<path class="st83" d="M525.2,350.2c5-0.8,16-1.3,19.2-0.8c-0.8,3.9-2.5,6.2-2.9,8.6c-5.1-0.7-9.4-0.4-16.3-0.1
					C525.2,355.6,525.1,353.5,525.2,350.2z"/>
			</g>
		</g>
		<g id="right_arm">
			<linearGradient id="arm_4_" gradientUnits="userSpaceOnUse" x1="474.3091" y1="267.9601" x2="436.8893" y2="334.6852">
				<stop  offset="0" style="stop-color:#FF9163"/>
				<stop  offset="0.1186" style="stop-color:#FF9A6E"/>
				<stop  offset="0.4617" style="stop-color:#FFAF89"/>
				<stop  offset="0.7665" style="stop-color:#FFBC99"/>
				<stop  offset="1" style="stop-color:#FFC19F"/>
			</linearGradient>
			<path id="arm_2_" class="st84" d="M469.9,256.3c-13.1,9.8-30.1,26.8-31,67.7c-0.1,2.3,6.3,11,9,8.6c3.4,0.4,6.2-1.1,5.9-2.6
				c1.4,0.4,4.9-0.1,6-2.9c0.2-0.6-0.5-1.4-1.2-2.4c0.4,0.5,0.9,0.5,1.1,0.3c0.1-0.1,1.7-1.7,2.1-5.1c0-1.3-4.1-5.4-5.8-7.6
				c0.4-7.2,12.8-21.9,16.8-26.5C472.7,285.9,476.6,262.4,469.9,256.3z"/>
			<g id="shadows_2_">
				<path class="st72" d="M459.6,325.1c0.1-0.1,1.7-1.7,2.1-5.1c0-0.5-0.5-1.3-1.3-2.3c0,0,0,0,0,0c-0.1-0.1-0.2-0.2-0.2-0.3
					c0,0,0,0,0,0c0.9,1.2,1.3,2.9,0.9,3.2c0,0-1.3,3-3.4,1.2c-1-0.9-2-2.6-2.2-2.6c-0.2-0.1,0.3,1.2-2.4,2.2
					c-2.2,0.8-3.8-0.2-3.8-0.2c-0.2,0.1-0.9,2-2.9,2.7c-1.6,0.6-3.6-0.3-4-0.1c0,0-0.4,1.4-1.8,1.6c-0.6,0.1-1.2-0.2-1.8-1.4
					c0,0,0,0,0,0c-0.1,2.3,6.3,11,9,8.6c3.4,0.4,6.2-1.1,5.9-2.6c1.4,0.4,4.9-0.1,6-2.9c0.2-0.6-0.5-1.4-1.2-2.4
					C458.9,325.2,459.4,325.2,459.6,325.1z"/>
				<path class="st70" d="M454.8,280.3c0.5-2.8,3-4.7,3.7-5.6c-0.4,4.2-2.1,8.4,0.4,13.3c0-3.2,2.1-6,3.6-8.5
					c-0.4,3.3,0.1,6.6,0.5,10c0-1.8,4.5-7.5,10.6-10.4c0.6-6.9,0.8-17.2-2.7-21.8l-2.1,1C466.8,259.9,456.1,269.3,454.8,280.3z"/>
			</g>
			<g id="bracers_2_">
				<linearGradient id="SVGID_15_" gradientUnits="userSpaceOnUse" x1="439.8221" y1="299.5442" x2="465.7248" y2="299.5442">
					<stop  offset="0" style="stop-color:#C55A0A"/>
					<stop  offset="0.1855" style="stop-color:#BF560A"/>
					<stop  offset="0.4276" style="stop-color:#AF4A09"/>
					<stop  offset="0.7012" style="stop-color:#943807"/>
					<stop  offset="0.9959" style="stop-color:#6F1D05"/>
					<stop  offset="1" style="stop-color:#6E1D05"/>
				</linearGradient>
				<path class="st85" d="M445.1,288.5c-2.4,6.2-4.2,13.4-5.3,21.9c5-1.7,11.6-1.3,16.4,0.3c1.2-4.5,5.5-10.9,9.5-16.3
					C460.2,290.4,451.4,287.9,445.1,288.5z"/>
				<linearGradient id="SVGID_16_" gradientUnits="userSpaceOnUse" x1="439.8221" y1="308.2116" x2="457.438" y2="308.2116">
					<stop  offset="0" style="stop-color:#C55A0A"/>
					<stop  offset="0.3517" style="stop-color:#BF560A"/>
					<stop  offset="0.8099" style="stop-color:#AF4B09"/>
					<stop  offset="1" style="stop-color:#A64508"/>
				</linearGradient>
				<path class="st86" d="M440.4,306.5c-0.2,1.3-0.4,2.5-0.6,3.8c5-1.7,11.6-1.3,16.4,0.3c0.3-1,0.7-2.2,1.2-3.4
					C452.9,305.4,445.3,305.4,440.4,306.5z"/>
				<linearGradient id="SVGID_17_" gradientUnits="userSpaceOnUse" x1="443.8575" y1="292.921" x2="465.7248" y2="292.921">
					<stop  offset="0" style="stop-color:#C55A0A"/>
					<stop  offset="0.3589" style="stop-color:#BF560A"/>
					<stop  offset="0.8265" style="stop-color:#AF4B09"/>
					<stop  offset="1" style="stop-color:#A74508"/>
				</linearGradient>
				<path class="st87" d="M443.9,292.1c5.2-1,14.8,1.5,19.6,5.4c0.7-1,1.5-2,2.2-3c-5.5-4-14.3-6.5-20.6-5.9
					C444.7,289.7,444.3,290.8,443.9,292.1z"/>
			</g>
		</g>
		<g id="shirt_1_">
			<linearGradient id="shirt_2_" gradientUnits="userSpaceOnUse" x1="503.1379" y1="228.7053" x2="520.2996" y2="316.9655">
				<stop  offset="0" style="stop-color:#380800"/>
				<stop  offset="0.2009" style="stop-color:#3C0900"/>
				<stop  offset="0.396" style="stop-color:#480E01"/>
				<stop  offset="0.5887" style="stop-color:#5B1602"/>
				<stop  offset="0.7789" style="stop-color:#762003"/>
				<stop  offset="0.9062" style="stop-color:#8D2904"/>
			</linearGradient>
			<path id="shirt" class="st88" d="M556.8,250.2c0.5-1.2,3.2-3.7,6.6-4.2c-2.3-1.1-6.3-0.6-7.4-0.3c0.8-1.3,4.9-3.8,10.4-2.8
				c-3.1-3-8.5-3.8-11.9-3.9c1.2-1.9,4.1-5.7,6.8-5.9c-2.4-1.2-6.7-1.7-8.8-1.2c1.3-1.5,3.1-2.9,7.2-3.7c-1.6-0.9-11-1.6-13.3-0.8
				c0.7-4.1,4.9-8.9,7.7-11c-4.4,1-8.4,4.2-11.3,6.8c0.5-3.4,2.3-10.8,5.9-12.8c-6.3,2.3-10.8,9.2-12.4,16.6
				c0,0-53.4,19.7-56.7,20.7c-15.8,0.2-28.8,21.8-28.8,26c2.4-4.1,6.1-7.6,9.6-8.9c-5.1,7.4-6.9,12.2-6.9,16.2
				c1.3-4.7,4.2-7.9,6.9-9.8c-1.9,3.6-4.2,11.2-2.8,16c0.9-5.4,4.4-10.6,7.4-12c-0.8,1.8-2.1,8-1.2,9.6c0.5-0.7,1-2.5,3.1-3.8
				c0.1,1.4-8.4,25.3,0.2,30.5c9.8,9.2,94.7-3.2,105.3-10.8C582.6,291.4,567.3,259.8,556.8,250.2z"/>
			<linearGradient id="shadow_1_" gradientUnits="userSpaceOnUse" x1="507.0248" y1="254.4346" x2="522.4071" y2="318.5275">
				<stop  offset="0" style="stop-color:#380800"/>
				<stop  offset="0.1897" style="stop-color:#3C0900"/>
				<stop  offset="0.3739" style="stop-color:#480E01"/>
				<stop  offset="0.556" style="stop-color:#5B1601"/>
				<stop  offset="0.7368" style="stop-color:#772003"/>
				<stop  offset="0.9149" style="stop-color:#992D04"/>
				<stop  offset="1" style="stop-color:#AD3505"/>
			</linearGradient>
			<path id="shadow" class="st89" d="M556.8,250.2c15.7,25.9,15.7,50.6-25.3,56.2c-14.9,2-36.6,3.9-47.8-0.7
				c-14.4-6-18.3-27.5-11.2-37.4c-2.2,1.9-8.2,5.9-10.7,6.4c1.3-3.7,3.1-7.4,5.2-9.8c-1.4,0.9-3.1,2-6.5,4.3
				c2.5-4.3,4.7-8.1,8.7-10.9c0,0-10.3,4.7-10.9,5.4c1.2-2.7,9.4-13.6,21.4-15.8c-15.8,0.2-28.8,21.8-28.8,26
				c2.4-4.1,6.1-7.6,9.6-8.9c-5.1,7.4-6.9,12.2-6.9,16.2c1.3-4.7,4.2-7.9,6.9-9.8c-1.9,3.6-4.2,11.2-2.8,16c0.9-5.4,4.4-10.6,7.4-12
				c-0.8,1.8-2.1,8-1.2,9.6c0.5-0.7,1-2.5,3.1-3.8c0.1,1.4-8.4,25.3,0.2,30.5c9.8,9.2,94.7-3.2,105.3-10.8
				C582.6,291.4,567.3,259.8,556.8,250.2z"/>
		</g>
		<g id="belt_2_">
			<g id="belt_1_">
				<linearGradient id="belt_3_" gradientUnits="userSpaceOnUse" x1="467.0015" y1="310.9695" x2="572.5479" y2="310.9695">
					<stop  offset="0" style="stop-color:#9F3F08"/>
					<stop  offset="0.1418" style="stop-color:#AD4909"/>
					<stop  offset="0.3683" style="stop-color:#BF560A"/>
					<stop  offset="0.5352" style="stop-color:#C55A0A"/>
					<stop  offset="0.6792" style="stop-color:#BF560A"/>
					<stop  offset="0.8669" style="stop-color:#AF4A09"/>
					<stop  offset="1" style="stop-color:#9F3F08"/>
				</linearGradient>
				<path id="belt" class="st90" d="M467,311.5c1,3.1,4.7,7.6,7,8.9c18.4,3.2,83.6-4.3,95-11.1c1-1.1,3.6-5.7,3.6-8.6
					C565.9,304,490.3,316.4,467,311.5z"/>
				<g class="st91">
					<linearGradient id="SVGID_18_" gradientUnits="userSpaceOnUse" x1="467.0031" y1="307.8024" x2="572.5479" y2="307.8024">
						<stop  offset="0" style="stop-color:#9F3F08"/>
						<stop  offset="0.1418" style="stop-color:#AD4909"/>
						<stop  offset="0.3683" style="stop-color:#BF560A"/>
						<stop  offset="0.5352" style="stop-color:#C55A0A"/>
						<stop  offset="0.6792" style="stop-color:#BF560A"/>
						<stop  offset="0.8669" style="stop-color:#AF4A09"/>
						<stop  offset="1" style="stop-color:#9F3F08"/>
					</linearGradient>
					<path class="st92" d="M550,305.6c0.7,0.1,7.7-0.4,8.2,3.2c0.3,2.7-4.6,5.2-8.6,6c9.1-1.7,16.3-3.6,19.4-5.5
						c1-1.1,3.6-5.7,3.6-8.6C570.5,301.8,561.7,303.7,550,305.6z"/>
					<linearGradient id="SVGID_19_" gradientUnits="userSpaceOnUse" x1="467.0015" y1="316.3488" x2="572.5478" y2="316.3488">
						<stop  offset="0" style="stop-color:#9F3F08"/>
						<stop  offset="0.1418" style="stop-color:#AD4909"/>
						<stop  offset="0.3683" style="stop-color:#BF560A"/>
						<stop  offset="0.5352" style="stop-color:#C55A0A"/>
						<stop  offset="0.6792" style="stop-color:#BF560A"/>
						<stop  offset="0.8669" style="stop-color:#AF4A09"/>
						<stop  offset="1" style="stop-color:#9F3F08"/>
					</linearGradient>
					<path class="st93" d="M498.4,319.8c-2.1-0.2-6-0.8-5.7-3.8c0.2-1.8,1.5-3,3-3.9c-11.9,0.7-22.3,0.7-28.8-0.6
						c1,3.1,4.7,7.6,7,8.9c6.8,1.2,20.1,0.9,34.7-0.3C507,320,500.1,319.9,498.4,319.8z"/>
				</g>
				<g class="st94">
					<linearGradient id="SVGID_20_" gradientUnits="userSpaceOnUse" x1="514.0362" y1="314.72" x2="520.6819" y2="314.72">
						<stop  offset="0" style="stop-color:#9F3F08"/>
						<stop  offset="0.1418" style="stop-color:#AD4909"/>
						<stop  offset="0.3683" style="stop-color:#BF560A"/>
						<stop  offset="0.5352" style="stop-color:#C55A0A"/>
						<stop  offset="0.6792" style="stop-color:#BF560A"/>
						<stop  offset="0.8669" style="stop-color:#AF4A09"/>
						<stop  offset="1" style="stop-color:#9F3F08"/>
					</linearGradient>
					<path class="st95" d="M516.8,314.5c-0.1-1.8,0.8-3.4,2.4-4.5c-1.3,0.2-2.6,0.3-3.9,0.4c-0.9,1.3-1.3,2.7-1.2,4.3
						c0.1,1.8,1.1,3.5,2.6,4.7c1.4-0.1,2.7-0.3,4.1-0.4C518.5,318.2,517,316.6,516.8,314.5z"/>
					<linearGradient id="SVGID_21_" gradientUnits="userSpaceOnUse" x1="526.5114" y1="313.383" x2="533.9274" y2="313.383">
						<stop  offset="0" style="stop-color:#9F3F08"/>
						<stop  offset="0.1418" style="stop-color:#AD4909"/>
						<stop  offset="0.3683" style="stop-color:#BF560A"/>
						<stop  offset="0.5352" style="stop-color:#C55A0A"/>
						<stop  offset="0.6792" style="stop-color:#BF560A"/>
						<stop  offset="0.8669" style="stop-color:#AF4A09"/>
						<stop  offset="1" style="stop-color:#9F3F08"/>
					</linearGradient>
					<path class="st96" d="M529.8,311.7l-1.4,0.1c-0.8,0.1-1.2,0.7-1.3,1.4c0,0.8,0.5,1.6,1.5,1.6l1.7-0.1c-0.1,1.5-1,2.5-2.4,3.4
						c1.4-0.2,2.7-0.3,4-0.5c0.8-1.1,1.2-2.3,1.2-3.6c0.5-0.2,0.8-0.7,0.8-1.3c-0.1-0.6-0.6-1.1-1.2-1.2c-0.5-1.1-1.2-2.1-2.2-2.9
						c-1.3,0.2-2.6,0.4-3.9,0.5C527.9,309.6,529.1,310.6,529.8,311.7z"/>
				</g>
				<linearGradient id="SVGID_22_" gradientUnits="userSpaceOnUse" x1="515.087" y1="314.5736" x2="522.9305" y2="314.5736">
					<stop  offset="0" style="stop-color:#9F3F08"/>
					<stop  offset="0.1418" style="stop-color:#AD4909"/>
					<stop  offset="0.3683" style="stop-color:#BF560A"/>
					<stop  offset="0.5352" style="stop-color:#C55A0A"/>
					<stop  offset="0.6792" style="stop-color:#BF560A"/>
					<stop  offset="0.8669" style="stop-color:#AF4A09"/>
					<stop  offset="1" style="stop-color:#9F3F08"/>
				</linearGradient>
				<path class="st97" d="M521.3,309.8c-1.7,0.2-3.4,0.4-5.1,0.6c-0.8,1.1-1.4,2.7-1,5.2c0.2,1.6,0.9,2.9,1.8,3.8
					c2-0.2,4-0.4,5.9-0.6C518.4,318.3,518.8,311.3,521.3,309.8z"/>
			</g>
			<g id="buckle_1_">
				<g>
					<linearGradient id="SVGID_23_" gradientUnits="userSpaceOnUse" x1="522.0151" y1="306.3931" x2="523.472" y2="321.7694">
						<stop  offset="0" style="stop-color:#FED65B"/>
						<stop  offset="0.1988" style="stop-color:#FDCB4F"/>
						<stop  offset="0.5" style="stop-color:#FCBD40"/>
						<stop  offset="1" style="stop-color:#FCB538"/>
					</linearGradient>
					<path class="st98" d="M522.1,306.4c-5.3,0.4-9.3,4.1-8.9,8.3c0.3,4.2,4.9,7.3,10.1,7c5.3-0.4,9.3-4.1,8.9-8.3
						C531.9,309.2,527.4,306,522.1,306.4z M523.2,319.5c-3.7,0.3-6.9-1.9-7.2-4.9c-0.2-3,2.6-5.6,6.3-5.9c3.7-0.3,6.9,2,7.2,4.9
						C529.7,316.6,526.9,319.2,523.2,319.5z"/>
					<path class="st99" d="M531.5,310.9c-1.5-2.9-5.2-4.8-9.4-4.5c-4.4,0.3-7.9,3-8.8,6.3C515.5,308.4,524.7,303.9,531.5,310.9z"/>
					<path class="st100" d="M515.6,317.2c2.5,5.8,12.9,4.7,14.3-0.8C526.2,321.1,519.5,321.3,515.6,317.2z"/>
				</g>
				<g>
					
						<linearGradient id="SVGID_24_" gradientUnits="userSpaceOnUse" x1="522.976" y1="242.4475" x2="529.824" y2="242.4475" gradientTransform="matrix(0.9973 -7.380000e-02 7.380000e-02 0.9973 -13.2123 110.0331)">
						<stop  offset="0" style="stop-color:#FCBD40"/>
						<stop  offset="0.3679" style="stop-color:#FDCA4F"/>
						<stop  offset="1" style="stop-color:#FFEA71"/>
					</linearGradient>
					<path class="st101" d="M533.1,312.7c0.1,0.7-0.5,1.4-1.3,1.4l-4.1,0.3c-0.8,0.1-1.4-0.5-1.5-1.2l0,0c-0.1-0.7,0.5-1.3,1.3-1.4
						l4.1-0.3C532.4,311.5,533,312,533.1,312.7L533.1,312.7z"/>
					<path class="st100" d="M531.6,311.5l-4.1,0.3c-0.1,0-0.2,0-0.3,0.1c0,0.1,0,0.1,0,0.2c0.1,0.7,0.7,1.3,1.5,1.2l4.1-0.3
						c0.1,0,0.2,0,0.3-0.1c0-0.1,0-0.1,0-0.2C533,312,532.4,311.5,531.6,311.5z"/>
					
						<linearGradient id="SVGID_25_" gradientUnits="userSpaceOnUse" x1="522.976" y1="242.5762" x2="529.7556" y2="242.5762" gradientTransform="matrix(0.9973 -7.380000e-02 7.380000e-02 0.9973 -13.2123 110.0331)">
						<stop  offset="0" style="stop-color:#FCBD40"/>
						<stop  offset="0.3679" style="stop-color:#FDCA4F"/>
						<stop  offset="1" style="stop-color:#FFEA71"/>
					</linearGradient>
					<path class="st102" d="M532.2,313.4l-4.1,0.3c-0.8,0.1-1.4-0.5-1.5-1.2c0-0.1,0-0.3,0-0.4c-0.3,0.3-0.5,0.7-0.5,1.1
						c0.1,0.7,0.7,1.3,1.5,1.2l4.1-0.3c0.6,0,1.1-0.5,1.2-1C532.8,313.3,532.5,313.4,532.2,313.4z"/>
				</g>
			</g>
		</g>
		<g id="head">
			<g id="beard">
				<linearGradient id="SVGID_26_" gradientUnits="userSpaceOnUse" x1="517.308" y1="304.2992" x2="517.308" y2="224.6206">
					<stop  offset="0" style="stop-color:#BF1604"/>
					<stop  offset="0.1533" style="stop-color:#CE1B08"/>
					<stop  offset="0.4828" style="stop-color:#E9240F"/>
					<stop  offset="0.7757" style="stop-color:#F92913"/>
					<stop  offset="1" style="stop-color:#FF2B15"/>
				</linearGradient>
				<path class="st103" d="M550.8,281.3c9.1-9.7,2-68.1-38.6-54.7c-49.4,16.2-28.7,54.7-20.7,61.8c-0.8-1.8-1.3-6.7-1-7.1
					c1.3,3.5,8,13.4,12.7,14.6c0,0-3.8-6.3-3.5-10c1.5,2,6.8,11.5,14.8,13.6c0,0-2.5-7.5-2.2-6.6c1.9,4.5,5,6.6,8.6,8.9
					c0.6-1.3,5.6-11.4,6.1-12.2c0.2,7.5-1.9,11.3-3,14.7c4.4-2.1,12.3-8.7,18.5-16.8c-0.5,2.3-1.7,4.5-3,6
					c7.1-4.9,11.9-16.9,11.2-22.4C551.3,273.5,552.1,276.8,550.8,281.3z"/>
				<path class="st104" d="M550.8,281.3c4.8-5,5.1-23.3-1.4-37.8c-3.5-4.2-31.8-16.7-36.9-14.1c4.3,0.5,18.5,11.4,34.2,17
					c4.9,1.7,6.7,19.9,5.6,24.2c-0.6-2.2-1.6-7.3-2.3-9.4c0.7,3-1.8,20.1-5.1,23.7c1-1.6,0.7-5,1-6.6c-0.8,3.6-11.5,18.3-17,21.3
					c1.6-2.8,3.6-11.9,1.4-21.6c-0.8,2.7-9.5,16.2-12.7,17.9c-3.5-1.9-8.8-11.4-10.9-14.4c-0.1,3,3.2,11.5,5.5,14.7
					c-9.7-6.2-12.5-13-15.5-21.6c-0.8,4.3-1.6,10.1-0.3,15.1c-2.5-5.3-7-11.8-7.8-17.9c-1.3,2.7-1.4,6.4-1.3,9.5
					c-4-7.3-4.7-18.9,1.4-24.9c11.7-11.5,19.6-24.1,23.8-26.9c0,0-0.4-1.6-5.9-0.7c-42,17.2-22.7,52.9-15,59.7
					c-0.8-1.8-1.3-6.7-1-7.1c1.3,3.5,8,13.4,12.7,14.6c0,0-3.8-6.3-3.5-10c1.5,2,6.8,11.5,14.8,13.6c0,0-2.5-7.5-2.2-6.6
					c1.9,4.5,5,6.6,8.6,8.9c0.6-1.3,5.6-11.4,6.1-12.2c0.2,7.5-1.9,11.3-3,14.7c4.4-2.1,12.3-8.7,18.5-16.8c-0.5,2.3-1.7,4.5-3,6
					c7.1-4.9,11.9-16.9,11.2-22.4C551.3,273.5,552.1,276.8,550.8,281.3z"/>
			</g>
			<g id="mouth_2_">
				<path class="st105" d="M525.3,226.8c-8.7-2.2-22.6,2.7-26.3,7.6c3.6,6.5,7.9,12.7,17.9,10.1
					C528.7,241.4,526.1,227.6,525.3,226.8z"/>
				<path class="st106" d="M507.4,244c2.5,1.2,5.6,1.6,9.6,0.5c3.6-0.9,5.8-2.8,7.2-5.1C519.5,237.6,510.5,240.2,507.4,244z"/>
				<path class="st107" d="M525.3,226.8c-8.7-2.2-22.6,2.7-26.3,7.6c0.9,1.7,1.9,3.3,3,4.8c4.3-3.8,16.3-6.5,24-5.3c0,0,0,0,0,0
					C526.4,230.2,525.7,227.2,525.3,226.8z"/>
			</g>
			<path id="moustache" class="st108" d="M510.5,222.9c-36.7-5.9-21.8,31.1-39.4,40.2c20.9-2.5,35.9-33.5,41.5-33.7
				c9.8-0.3,30.7,20.3,44.8,15C542.7,239,536,204.5,510.5,222.9z"/>
			<g id="face">
				<linearGradient id="SVGID_27_" gradientUnits="userSpaceOnUse" x1="506.5999" y1="211.1332" x2="511.74" y2="226.5537">
					<stop  offset="0" style="stop-color:#FFC19F"/>
					<stop  offset="0.2335" style="stop-color:#FFBC99"/>
					<stop  offset="0.5383" style="stop-color:#FFAF89"/>
					<stop  offset="0.8814" style="stop-color:#FF9A6E"/>
					<stop  offset="1" style="stop-color:#FF9163"/>
				</linearGradient>
				<path class="st109" d="M514.8,209c-4.9,1.6-15.5,4.1-15.5,4.1c-5,9.6,0.4,13.4,7.3,9.3c-0.7,1.3-0.7,5.4,5.5,4.2
					c2.2-0.4,5.8-3,2.4-5.6C527.2,221.4,517.6,210.4,514.8,209z"/>
				<path class="st72" d="M512.2,226.6c2.2-0.4,5.8-3,2.4-5.6c9.7,0.4,6.3-6,3-9.7c2.9,4.3,3.4,6.7,1.8,8.1c-1.7,1.5-5.9,0.2-7.1-1
					c1.6,1.6,3.1,5.2,0.1,6.2c-2.7,0.9-6,0.6-4.8-5.2c-0.2,1.1-3.9,4.2-6.7,3.9c-4.3-0.4-3-6.4-3-6.4c-1.8,6.8,2.9,9,8.9,5.5
					C505.9,223.7,505.9,227.8,512.2,226.6z"/>
			</g>
			<g id="eyes">
				<g>
					<path class="st72" d="M511.9,216.4c0.2-0.2,3.6-4.5,5.7-3.8c0.2,0.3,0.6,2,0.2,2.5c-1.1,1.2-4.5,2.8-4.7,2.7
						C512.6,217.7,512,216.7,511.9,216.4z"/>
					<path class="st107" d="M513,217.8c1.3-0.8,4-1.9,4.2-2.5C516.4,213.2,511.4,214.5,513,217.8z"/>
					<g>
						<path class="st110" d="M515.9,214.3c-0.7-0.1-1.6,0.1-2.2,0.5c-0.2,0.3-0.3,0.6-0.3,1c0,0.6,0.3,1,0.7,1.4
							c1-0.5,2.2-1.1,2.8-1.6C516.7,215,516.4,214.5,515.9,214.3z"/>
						<path class="st111" d="M516.2,215.8c0-0.6-0.5-1.1-1.1-1.1c-0.6,0-1.1,0.5-1.1,1.1c0,0.5,0.3,0.9,0.7,1
							c0.5-0.3,1.1-0.6,1.5-0.8C516.2,216,516.2,215.9,516.2,215.8z"/>
						<path class="st107" d="M515.2,215.2c0.3,0,0.5-0.2,0.5-0.5c0-0.2-0.1-0.3-0.2-0.4c-0.2,0-0.5,0-0.7,0.1
							c-0.1,0.1-0.1,0.2-0.1,0.4C514.7,215,514.9,215.2,515.2,215.2z"/>
					</g>
					<path class="st108" d="M515.5,210.8c-1,0.5-3.2,4.2-3.6,4.4c-0.2,0.1-1-0.5-1.6-0.8c0.7,1.1,1.4,2.2,1.9,2.5
						c0,0,4.3-3.3,5.6-3.9C517.7,210.5,516.7,210.2,515.5,210.8z"/>
				</g>
				<g>
					<path class="st72" d="M506.8,217.5c-0.3-0.1-6.9-1.3-8.2,0.5c0.1,0.4,1.1,2,1.7,2.1c1.9,0.2,6-0.6,6.2-0.7
						C506.8,219.1,506.9,217.9,506.8,217.5z"/>
					<path class="st107" d="M506.3,219.4c-1.5,0.1-4.3,1-4.8,0.6C500.7,217.9,505.5,215.8,506.3,219.4z"/>
					<g>
						<path class="st110" d="M504.9,217.7c-0.1-0.1-0.2-0.1-0.3-0.2c-0.7-0.2-1.5,0-2.1,0.3c0,0-0.1,0.1-0.1,0.1
							c-0.5,0.6-0.5,1.4-0.1,2c0.9-0.1,2.1-0.4,3.1-0.5C505.7,218.8,505.4,218.1,504.9,217.7z"/>
						<path class="st111" d="M504.5,218.2c-0.5-0.4-1.2-0.3-1.6,0.2c-0.4,0.5-0.3,1.2,0.2,1.6c0.5-0.1,1.1-0.2,1.7-0.3
							C505,219.1,504.9,218.5,504.5,218.2z"/>
						
							<ellipse transform="matrix(0.6182 -0.7861 0.7861 0.6182 21.1264 480.0172)" class="st107" cx="504.6" cy="218.3" rx="0.5" ry="0.5"/>
					</g>
					<path class="st108" d="M506.9,215.3c-0.2,0.3-0.5,1.1-0.7,1.3c-2-0.6-5-1.2-6.1-0.7c-1.2,0.6-1.5,2.1-1.5,2.1
						c1-0.1,2.6-1,8.1,0.3C507,217.6,507.1,215.9,506.9,215.3z"/>
				</g>
			</g>
		</g>
		<g id="helmet_1_">
			<g id="horns_1_">
				<g>
					<path class="st112" d="M512.1,178.5c15.1,12.7-1.7,22.2-1.7,22.2c1,1.9,5,3.2,7.3,4.7C530.8,193.4,524.1,181.7,512.1,178.5z"/>
					<path class="st113" d="M519.7,200.2c-1.7,1.5-5.8,0.1-6.3-0.8c-0.1-0.3,0.3-1,0.7-1.8c-2,1.9-3.9,3-3.9,3c1,1.9,5,3.2,7.3,4.7
						c13.1-11.9,6.5-23.7-5.6-26.9C525.9,183.6,524.3,196.3,519.7,200.2z"/>
					
						<linearGradient id="SVGID_28_" gradientUnits="userSpaceOnUse" x1="509.9942" y1="-197.1247" x2="516.7182" y2="-197.1247" gradientTransform="matrix(0.9054 -0.4246 0.4246 0.9054 133.415 599.1949)">
						<stop  offset="0" style="stop-color:#923607"/>
						<stop  offset="1" style="stop-color:#C55A0A"/>
					</linearGradient>
					<path class="st114" d="M511.9,199.1c-0.8-0.2-1.7,1.2-1.9,1.9c0-0.1,6.9,5.6,7.3,5.6c0.2,0,1.9-1.8,1.8-2
						C518,203,512.6,199.2,511.9,199.1z"/>
				</g>
				<g>
					<path class="st112" d="M488.7,184.6c-10.2,18.5,7.5,19.7,7.5,19.7c1,1.9-0.3,5.5-0.4,8.2C481.8,214.3,475.5,196,488.7,184.6z"
						/>
					<path class="st113" d="M495.9,212.5c0-2.7,1.4-6.3,0.4-8.2c0,0-2.4-0.2-4.9-1.3c0.9,0.7,1.8,1.6,1.9,1.9
						c0.5,0.9-0.7,4.3-2.8,4.9c-4.9,1.2-14.4-11.7-1.7-25.1C475.5,196,481.8,214.3,495.9,212.5z"/>
					
						<linearGradient id="SVGID_29_" gradientUnits="userSpaceOnUse" x1="489.3626" y1="-199.9855" x2="497.3092" y2="-199.9855" gradientTransform="matrix(0.9054 -0.4246 0.4246 0.9054 133.415 599.1949)">
						<stop  offset="0" style="stop-color:#923607"/>
						<stop  offset="1" style="stop-color:#C55A0A"/>
					</linearGradient>
					<path class="st115" d="M494.7,204.2c0.2-0.7,2.3-0.1,2.9,0.2c-0.1,0-1.8,8.7-2.1,8.9c-0.2,0.1-2.7-0.1-2.6-0.4
						C493.1,209.2,494.5,204.8,494.7,204.2z"/>
				</g>
			</g>
			<g id="helmet">
				<g>
					
						<linearGradient id="SVGID_30_" gradientUnits="userSpaceOnUse" x1="496.6828" y1="102.5198" x2="499.741" y2="115.309" gradientTransform="matrix(0.9956 -9.310000e-02 9.310000e-02 0.9956 -1.3787 143.0042)">
						<stop  offset="0" style="stop-color:#AD3505"/>
						<stop  offset="1" style="stop-color:#380800"/>
					</linearGradient>
					<path class="st116" d="M502.9,199.5c-5.8,1.8-9.7,8-8.1,15c3.8-0.1,11.7-0.8,24.2-6.3C517.5,201.7,509.3,197.5,502.9,199.5z"/>
					
						<linearGradient id="SVGID_31_" gradientUnits="userSpaceOnUse" x1="496.6819" y1="102.5199" x2="499.7403" y2="115.3098" gradientTransform="matrix(0.9956 -9.310000e-02 9.310000e-02 0.9956 -1.3787 143.0042)">
						<stop  offset="0" style="stop-color:#AD3505"/>
						<stop  offset="1" style="stop-color:#380800"/>
					</linearGradient>
					<path class="st117" d="M516.7,203.8c-2.5,3.3-7.8,4.4-11.6,3.3c-2-0.6-4.6-2.3-4.6-4.7c0-0.8,0.3-1.5,0.7-2.1
						c-4.8,2.4-7.8,8-6.3,14.3c3.8-0.1,11.7-0.8,24.2-6.3C518.6,206.6,517.8,205.1,516.7,203.8z"/>
					
						<ellipse transform="matrix(0.3191 -0.9477 0.9477 0.3191 154.3453 619.5606)" class="st118" cx="508.3" cy="202.4" rx="2.6" ry="4.4"/>
				</g>
				<g>
					
						<linearGradient id="SVGID_32_" gradientUnits="userSpaceOnUse" x1="486.8459" y1="113.9865" x2="512.5428" y2="113.9865" gradientTransform="matrix(0.9956 -9.310000e-02 9.310000e-02 0.9956 -1.3787 143.0042)">
						<stop  offset="0" style="stop-color:#923607"/>
						<stop  offset="1" style="stop-color:#C55A0A"/>
					</linearGradient>
					<path class="st119" d="M518,204.7c-5.6,3.6-16.7,7.1-23.9,6.3c0,2.1,0.1,2.6,0.3,3.9c7.4,0.6,20.2-3.3,25.1-6.5
						C518.8,206.4,518,204.7,518,204.7z"/>
					
						<linearGradient id="SVGID_33_" gradientUnits="userSpaceOnUse" x1="486.8459" y1="115.5758" x2="512.5407" y2="115.5758" gradientTransform="matrix(0.9956 -9.310000e-02 9.310000e-02 0.9956 -1.3787 143.0042)">
						<stop  offset="0" style="stop-color:#923607"/>
						<stop  offset="1" style="stop-color:#C55A0A"/>
					</linearGradient>
					<path class="st120" d="M509.4,211.8c-1.3-0.9-1.1-2.1-0.3-3.1c-5.1,1.7-10.8,2.7-15.1,2.3c0,2.1,0.1,2.6,0.3,3.9
						c4.4,0.3,10.7-0.9,16.2-2.6C510.2,212.2,509.8,212.1,509.4,211.8z"/>
				</g>
			</g>
		</g>
	</g>
</g>
</svg>
