<?xml version="1.0" encoding="utf-8"?>
<!-- Generator: Adobe Illustrator 21.1.0, SVG Export Plug-In . SVG Version: 6.00 Build 0)  -->
<svg version="1.1" id="Layer_1" xmlns="http://www.w3.org/2000/svg" xmlns:xlink="http://www.w3.org/1999/xlink" x="0px" y="0px"
	 viewBox="0 0 55 28" style="enable-background:new 0 0 55 28;" xml:space="preserve">
<style type="text/css">
	.st0{fill-rule:evenodd;clip-rule:evenodd;fill:url(#SVGID_1_);}
	.st1{fill:none;}
	.st2{fill:#FFFFFF;}
</style>
<linearGradient id="SVGID_1_" gradientUnits="userSpaceOnUse" x1="5.409220e-08" y1="14" x2="55" y2="14">
	<stop  offset="1.087816e-03" style="stop-color:#267FEF"/>
	<stop  offset="1" style="stop-color:#4596FC"/>
</linearGradient>
<path class="st0" d="M14,0h27c7.7,0,14,6.3,14,14s-6.3,14-14,14H14C6.3,28,0,21.7,0,14S6.3,0,14,0z"/>
<g>
	<path class="st1" d="M54.5,15.2l-4.2-4.2l4.2-0.7C52.9,4.4,47.5,0,41,0H14C6.3,0,0,6.3,0,14c0,7.7,6.3,14,14,14h27
		c5.6,0,10.4-3.3,12.6-8L54.5,15.2z M23.8,21.2l-5.3-2.8l-5.3,2.8l1.1-6l-4.2-4.2l5.8-0.9l2.6-5.3l2.6,5.3l5.8,0.9l-4.2,4.2
		L23.8,21.2z M43.9,21.2l-5.3-2.8l-5.3,2.8l1.1-6l-4.2-4.2l5.8-0.9l2.6-5.3l2.6,5.3l5.8,0.9l-4.2,4.2L43.9,21.2z"/>
	<path class="st2" d="M54.5,15.2L53.6,20c0.9-1.8,1.4-3.9,1.4-6c0-1.2-0.2-2.4-0.5-3.6l-4.2,0.7L54.5,15.2z"/>
	<polygon class="st2" points="41.2,10.2 38.6,4.9 36,10.2 30.2,11.1 34.4,15.2 33.3,21.2 38.6,18.4 43.9,21.2 42.8,15.2 47,11.1 	
		"/>
	<polygon class="st2" points="21.2,10.2 18.6,4.9 15.9,10.2 10.2,11.1 14.4,15.2 13.3,21.2 18.6,18.4 23.8,21.2 22.8,15.2 27,11.1 	
		"/>
</g>
</svg>
