<?xml version="1.0" encoding="utf-8"?>
<!-- Generator: Adobe Illustrator 21.1.0, SVG Export Plug-In . SVG Version: 6.00 Build 0)  -->
<svg version="1.1" id="Layer_1" xmlns="http://www.w3.org/2000/svg" xmlns:xlink="http://www.w3.org/1999/xlink" x="0px" y="0px"
	 viewBox="0 0 76 75.8" style="enable-background:new 0 0 76 75.8;" xml:space="preserve">
<g>
	<path d="M33.5,67c8,0,15.3-2.8,21.1-7.5l15.3,15.3c0.7,0.7,1.6,1,2.5,1s1.8-0.3,2.5-1c1.4-1.4,1.4-3.6,0-5L59.5,54.6
		c4.7-5.8,7.5-13.1,7.5-21.1C67,15,52,0,33.5,0S0,15,0,33.5C0,52,15,67,33.5,67z M33.5,7C48.1,7,60,18.9,60,33.5S48.1,60,33.5,60
		S7,48.1,7,33.5C7,18.9,18.9,7,33.5,7z"/>
</g>
</svg>
