<?xml version="1.0" encoding="utf-8"?>
<!-- Generator: Adobe Illustrator 21.1.0, SVG Export Plug-In . SVG Version: 6.00 Build 0)  -->
<svg version="1.1"
	 id="Layer_1" xmlns:cc="http://creativecommons.org/ns#" xmlns:dc="http://purl.org/dc/elements/1.1/" xmlns:inkscape="http://www.inkscape.org/namespaces/inkscape" xmlns:rdf="http://www.w3.org/1999/02/22-rdf-syntax-ns#" xmlns:sodipodi="http://sodipodi.sourceforge.net/DTD/sodipodi-0.dtd" xmlns:svg="http://www.w3.org/2000/svg"
	 xmlns="http://www.w3.org/2000/svg" xmlns:xlink="http://www.w3.org/1999/xlink" x="0px" y="0px" viewBox="0 0 80 66"
	 style="enable-background:new 0 0 80 66;" xml:space="preserve">
<g transform="translate(0,-952.36218)">
	<path d="M56,952.4v8.9c-13.2,3.3-31.9,12.3-38,31.1c15.2-13.4,36.7-11.9,38-11.8v8.9l24-18.5L56,952.4z M4,958.4c-2.1,0-4,1.9-4,4
		v52c0,2.1,1.9,4,4,4h54c2.1,0,4-1.9,4-4v-24.6l-3.6,2.7L54,996v14.4H8v-44h26.1c5.9-3.7,12.1-6.3,17.6-8L4,958.4z"/>
</g>
</svg>
