<?xml version="1.0" encoding="utf-8"?>
<!-- Generator: Adobe Illustrator 21.1.0, SVG Export Plug-In . SVG Version: 6.00 Build 0)  -->
<svg version="1.1" id="Layer_1" xmlns="http://www.w3.org/2000/svg" xmlns:xlink="http://www.w3.org/1999/xlink" x="0px" y="0px"
	 viewBox="0 0 62.3 67.6" style="enable-background:new 0 0 62.3 67.6;" xml:space="preserve">
<g>
	<path d="M16.7,48.8c-3.4,0-6.6-1.2-9-3.7c-4.9-4.9-4.9-12.8,0-17.7L31.1,4c0,0,23.5,23.5,23.5,23.5c4.9,4.9,4.9,12.8,0,17.7
		c-2.3,2.3-5.4,3.6-8.7,3.7l-6.7,0c-1.4,0-2.4,1.5-1.8,2.8c1.4,3.2,5.4,12,5.4,12l-23.1,0l5.3-12c0.6-1.3-0.4-2.8-1.8-2.8L16.7,48.8
		z M15.6,63c-1,2.3,0.5,4.6,3,4.6h25.3c2.6,0,4.1-2.3,3-4.7c0,0-4.6-10.1-4.6-10.1l3.7,0c4.3-0.1,8.4-1.7,11.5-4.8
		c6.4-6.4,6.4-16.9,0-23.3L34,1.2c-1.6-1.6-4.1-1.6-5.6,0L4.8,24.6c-6.4,6.4-6.5,16.9,0,23.3c3.2,3.2,7.5,4.9,11.9,4.8l3.4,0
		L15.6,63z"/>
	<path d="M50.2,40.7c-1.1,1.1-2.6,1.7-4.1,1.7c-1.1,0-2,0.9-2,2c0,1.1,0.9,2,2,2c2.6,0,5.1-1.1,6.9-2.9c3.9-3.9,3.9-10.2,0-14.1
		c-0.8-0.8-2-0.8-2.8,0c-0.8,0.8-0.8,2,0,2.8C52.5,34.7,52.5,38.4,50.2,40.7z"/>
</g>
</svg>
