<?xml version="1.0" encoding="utf-8"?>
<!-- Generator: Adobe Illustrator 21.1.0, SVG Export Plug-In . SVG Version: 6.00 Build 0)  -->
<svg version="1.1" id="Layer_1" xmlns="http://www.w3.org/2000/svg" xmlns:xlink="http://www.w3.org/1999/xlink" x="0px" y="0px"
	 viewBox="0 0 31.4 23.9" style="enable-background:new 0 0 31.4 23.9;" xml:space="preserve">
<title>casinoset</title>
<path d="M20.9,23.9H3c-1.7,0-3-1.3-3-3V3c0-1.7,1.3-3,3-3h17.9c1.7,0,3,1.3,3,3v17.9C23.9,22.5,22.6,23.9,20.9,23.9z M3,2
	C2.4,2,2,2.4,2,3v17.9c0,0.6,0.4,1,1,1h17.9c0.6,0,1-0.4,1-1V3c0-0.6-0.4-1-1-1H3z"/>
<path d="M18.1,12.7H5.8c-1.7,0-3-1.3-3-3V7.5c0-1.7,1.3-3,3-3h12.3c1.7,0,3,1.3,3,3v2.2C21.1,11.4,19.8,12.7,18.1,12.7z M5.8,6.5
	c-0.6,0-1,0.4-1,1v2.2c0,0.6,0.4,1,1,1h12.3c0.6,0,1-0.4,1-1V7.5c0-0.6-0.4-1-1-1H5.8z"/>
<path d="M26.3,16.9c-0.6,0-1-0.4-1-1v-4.9l3.4-5.1c0.3-0.5,0.9-0.6,1.4-0.3c0.5,0.3,0.6,0.9,0.3,1.4l-3,4.6v4.3
	C27.3,16.4,26.8,16.9,26.3,16.9C26.3,16.9,26.3,16.9,26.3,16.9z"/>
<ellipse transform="matrix(0.5524 -0.8336 0.8336 0.5524 7.7346 27.4199)" cx="29.4" cy="6.5" rx="2" ry="2"/>
<path d="M9.3,12.7c-0.6,0-1-0.4-1-1V5.5c0-0.6,0.4-1,1-1s1,0.4,1,1v6.2C10.3,12.3,9.8,12.7,9.3,12.7z"/>
<path d="M14.7,12.7c-0.6,0-1-0.4-1-1V5.5c0-0.6,0.4-1,1-1s1,0.4,1,1v6.2C15.7,12.3,15.2,12.7,14.7,12.7z"/>
<path d="M17.3,18.8H6.7c-0.6,0-1-0.4-1-1s0.4-1,1-1h10.6c0.6,0,1,0.4,1,1S17.8,18.8,17.3,18.8z"/>
</svg>
