<?xml version="1.0" encoding="utf-8"?>
<!-- Generator: Adobe Illustrator 21.1.0, SVG Export Plug-In . SVG Version: 6.00 Build 0)  -->
<svg version="1.1" id="Layer_1" xmlns="http://www.w3.org/2000/svg" xmlns:xlink="http://www.w3.org/1999/xlink" x="0px" y="0px"
	 viewBox="0 0 88.5 14.9" style="enable-background:new 0 0 88.5 14.9;" xml:space="preserve">
<polygon points="10,4.8 7.7,0 5.3,4.8 0,5.6 3.8,9.4 2.9,14.9 7.7,12.3 12.5,14.9 11.5,9.4 15.3,5.6 "/>
<polygon points="28.3,4.8 26,0 23.6,4.8 18.3,5.6 22.1,9.4 21.1,14.9 26,12.3 30.8,14.9 29.8,9.4 33.6,5.6 "/>
<polygon points="46.6,4.8 44.2,0 41.9,4.8 36.6,5.6 40.4,9.4 39.4,14.9 44.2,12.3 49.1,14.9 48.1,9.4 51.9,5.6 "/>
<polygon points="64.9,4.8 62.5,0 60.2,4.8 54.9,5.6 58.7,9.4 57.7,14.9 62.5,12.3 67.3,14.9 66.4,9.4 70.2,5.6 "/>
<polygon points="88.5,5.6 83.2,4.8 80.8,0 78.4,4.8 73.2,5.6 77,9.4 76,14.9 80.8,12.3 85.6,14.9 84.7,9.4 "/>
</svg>
