<?xml version="1.0" encoding="utf-8"?>
<!-- Generator: Adobe Illustrator 21.1.0, SVG Export Plug-In . SVG Version: 6.00 Build 0)  -->
<svg version="1.1" id="Layer_1" xmlns="http://www.w3.org/2000/svg" xmlns:xlink="http://www.w3.org/1999/xlink" x="0px" y="0px"
	 viewBox="0 0 149 20.3" style="enable-background:new 0 0 149 20.3;" xml:space="preserve">
<style type="text/css">
	.st0{fill:#00B2F2;}
	.st1{fill:#102344;}
</style>
<g id="Layer_2">
</g>
<g id="Layer_3">
</g>
<path class="st0" d="M114.5,14.7c0,1,0.7,1.7,1.7,1.7c1,0,1.7-0.7,1.7-1.7s-0.7-1.7-1.7-1.7C115.2,13,114.5,13.7,114.5,14.7z"/>
<path class="st0" d="M124.8,16.5c3.2,0,5-2.2,5-5V9.7c0-2.8-1.8-5-5-5c-3.2,0-5,2.2-5,5v1.8C119.8,14.3,121.6,16.5,124.8,16.5z
	 M128.2,9.7v1.8c0,2.1-1.2,3.7-3.4,3.7s-3.4-1.5-3.4-3.7V9.7c0-2.1,1.2-3.7,3.4-3.7S128.2,7.5,128.2,9.7z"/>
<path class="st0" d="M132.5,16.2h1.7v-5.5c0-2.8,1.4-4.2,3.5-4.2h0.3V4.9h-0.3c-2,0-3.3,0.9-3.7,2.7V5h-1.6V16.2z"/>
<path class="st0" d="M144,20.3c2.9,0,5-1.8,5-4.1V5h-1.6v1.9c-0.5-1-1.7-2.1-3.8-2.1c-3,0-4.6,2-4.6,4.6v1.9c0,2.5,1.7,4.6,4.6,4.6
	c1.9,0,3.4-1.1,3.8-2.1v2.6c0,1.7-1.3,2.8-3.3,2.8c-1.5,0-2.6-0.5-3.2-1.6h-1.6C139.8,19.3,141.8,20.3,144,20.3z M143.9,14.4
	c-2.2,0-3.3-1.3-3.3-3.4V9.4c0-2.2,1.1-3.4,3.3-3.4c1.9,0,3.4,1.6,3.4,3.5V11C147.3,13.1,145.8,14.4,143.9,14.4z"/>
<g>
	<g>
		<path class="st1" d="M9,7.3L4.9,6.2c-0.6-0.2-1-0.5-1-1.3c0-1.1,0.8-1.6,2.2-1.6c1.6,0,2.2,0.9,2.2,1.9v0.3h3.5V5.1
			c0-2.8-2.2-4.7-5.6-4.7c-3.6,0-5.8,1.8-5.8,4.8c0,2.5,1.2,3.6,3.6,4.2l3.8,1c0.8,0.2,1.1,0.7,1.1,1.4c0,1.2-1,1.8-2.6,1.8
			c-1.7,0-2.6-0.8-2.6-2.1v-0.3H0v0.4c0,3.1,2.5,4.9,6.2,4.9c3.6,0,6.3-2,6.3-5C12.5,9.3,11.5,7.9,9,7.3z M27.7,10.9L24.8,0.8h-3.5
			l-2.9,10.1L16.5,0.8h-3.7l3.7,15.4H20l3-10.8l3,10.8h3.5l3.7-15.4h-3.7L27.7,10.9z M38.6,9.9h6.7V6.8h-6.7V3.9H46V0.8H34.8v15.4
			H46V13h-7.4V9.9z M53.1,6.9c1.6,0,2.3,1,2.4,2.1h2.7c-0.1-2.6-2.2-4.5-5.2-4.5c-3.4,0-5.4,2.2-5.4,5.2v1.6c0,3,2,5.2,5.4,5.2
			c3.1,0,5.1-1.9,5.2-4.5h-2.7C55.4,13,54.7,14,53.1,14c-1.7,0-2.5-1.1-2.5-2.6V9.5C50.6,8,51.4,6.9,53.1,6.9z M65.5,4.5
			c-2.5,0-4.2,1.2-4.9,3.4h2.8c0.3-0.6,0.9-1.1,2-1.1c1.2,0,2,0.8,2,1.8v1.6c-0.5-0.4-1.5-1-2.9-1c-2.7,0-4.6,1.1-4.6,3.6
			c0,2.2,1.8,3.6,4.3,3.6c1.3,0,2.8-0.5,3.3-1.3v1.1h2.9V8.9C70.3,6.2,68.3,4.5,65.5,4.5z M64.9,14.5c-1.3,0-2.2-0.6-2.2-1.7
			c0-1.1,0.9-1.6,2.3-1.6c1.3,0,2.3,0.6,2.3,1.6C67.3,13.7,66.2,14.5,64.9,14.5z M79.2,9.7l-3.5-0.9c-0.6-0.1-0.9-0.4-0.9-1
			c0-0.8,0.7-1.3,1.9-1.3c1.3,0,1.9,0.6,1.9,1.5v0.2h2.6V8.1c0-2.3-1.8-3.7-4.5-3.7c-2.7,0-4.6,1.3-4.6,3.7c0,1.7,0.9,2.6,2.6,3
			l3.4,0.8c0.7,0.2,0.9,0.5,0.9,1c0,0.9-0.9,1.4-2.2,1.4c-1.4,0-2.3-0.6-2.3-1.6v-0.2h-2.6v0.2c0,2.4,2,3.7,4.9,3.7
			c2.8,0,4.9-1.6,4.9-3.8C81.8,11,80.9,10.1,79.2,9.7z M84.8,0c-1,0-1.7,0.7-1.7,1.7c0,1,0.7,1.7,1.7,1.7c1,0,1.7-0.7,1.7-1.7
			C86.5,0.7,85.8,0,84.8,0z M83.3,16.2h3V4.7h-3V16.2z M95.2,4.5c-1.6,0-2.8,0.6-3.4,1.6V4.7H89v11.4h3V9.4c0-1.5,0.9-2.3,2.2-2.3
			c1.4,0,2.1,0.9,2.1,2.3v6.8h3V8.8C99.3,6.1,97.7,4.5,95.2,4.5z M106.7,4.5c-3.4,0-5.4,2.2-5.4,5.2v1.6c0,2.9,2,5.2,5.4,5.2
			c3.4,0,5.4-2.2,5.4-5.2V9.6C112,6.7,110.1,4.5,106.7,4.5z M109.1,11.5c0,1.5-0.8,2.6-2.5,2.6c-1.7,0-2.5-1.1-2.5-2.6v-2
			c0-1.5,0.8-2.6,2.5-2.6c1.7,0,2.5,1.1,2.5,2.6V11.5z"/>
	</g>
</g>
</svg>
